<svg id="Layer_1" data-name="Layer 1" xmlns="http://www.w3.org/2000/svg" viewBox="0 0 681 983"><defs><style>.cls-1{fill:#7b1515;}.cls-2{fill:#be3535;}.cls-3,.cls-4{fill:#fff;}.cls-4,.cls-5{stroke:#fff;stroke-miterlimit:10;}.cls-5{fill:none;}</style></defs><title>SLeeTitle2</title><polygon class="cls-1" points="661.82 819.68 339.9 983 17.98 819.68 17.98 51.04 661.82 51.04 661.82 819.68"/><polygon class="cls-2" points="681 788.07 340.5 955.51 0 788.07 0 0 681 0 681 788.07"/><path class="cls-3" d="M243.44,236.21V194a81.2,81.2,0,0,0,24.95,14.45,80.26,80.26,0,0,0,27.19,4.82,60.18,60.18,0,0,0,14.06-1.45,32.76,32.76,0,0,0,10-4,17.48,17.48,0,0,0,6-6.07,15.14,15.14,0,0,0,2-7.59,16.34,16.34,0,0,0-3.17-9.9,33.88,33.88,0,0,0-8.64-8,90.28,90.28,0,0,0-13-7.13q-7.51-3.44-16.23-7-22.19-9.24-33.07-22.57t-10.89-32.21q0-14.79,5.94-25.42a50.52,50.52,0,0,1,16.17-17.49,72.75,72.75,0,0,1,23.69-10.1A122.17,122.17,0,0,1,317,51a171.26,171.26,0,0,1,26.2,1.78,103.63,103.63,0,0,1,21.06,5.48V97.73a64.77,64.77,0,0,0-10.36-5.81,83.77,83.77,0,0,0-11.56-4.16,88.54,88.54,0,0,0-11.81-2.44,83.37,83.37,0,0,0-11.15-.79,57.85,57.85,0,0,0-13.21,1.39,33.81,33.81,0,0,0-10,3.89,19.42,19.42,0,0,0-6.34,6,14.27,14.27,0,0,0-2.24,7.85,15,15,0,0,0,2.51,8.52,28.79,28.79,0,0,0,7.13,7.12,75.46,75.46,0,0,0,11.22,6.61q6.6,3.22,14.92,6.66a167.72,167.72,0,0,1,20.39,10.1,72.22,72.22,0,0,1,15.51,12.08,47.19,47.19,0,0,1,9.9,15.38,54.27,54.27,0,0,1,3.43,20.13q0,15.84-6,26.6a48.93,48.93,0,0,1-16.3,17.43,71,71,0,0,1-24,9.57,139,139,0,0,1-28.85,2.9,160.54,160.54,0,0,1-29.64-2.64A89.4,89.4,0,0,1,243.44,236.21Z" transform="translate(-160 -4)"/><path class="cls-3" d="M558,161.49q0,85.27-79.47,85.28-77.1,0-77.1-83.3V54.17h42.78V164q0,45.94,35.9,45.94,35.25,0,35.25-44.36V54.17H558Z" transform="translate(-160 -4)"/><path class="cls-3" d="M673.26,168.36q0,38-17.62,58.21t-51,20.2A72.65,72.65,0,0,1,577,241.62v-40a39.57,39.57,0,0,0,24.55,8.32q29.17,0,29.18-43.3V54.17h42.5Z" transform="translate(-160 -4)"/><path class="cls-3" d="M757.35,243.47H714.71V54.17h42.64Z" transform="translate(-160 -4)"/><path class="cls-3" d="M330.08,480.89V302.51h12.31V469.69h71.53v11.2Z" transform="translate(-160 -4)"/><path class="cls-3" d="M447,417.7q0,26.25,12.13,41.05t33.27,14.8q21.39,0,41.8-15.8v12.19A74.41,74.41,0,0,1,490.05,484q-24.63,0-39.81-17.66t-15.17-49.89q0-27.85,15.86-46.95t41.23-19.1q23.76,0,36.45,16.67T541.3,412.6v5.1Zm82.35-10.45q-.75-22-10.58-34.21t-27.11-12.19q-17.93,0-29.67,12t-14.49,34.39Z" transform="translate(-160 -4)"/><path class="cls-3" d="M575.63,417.7q0,26.25,12.13,41.05T621,473.55q21.4,0,41.8-15.8v12.19A74.41,74.41,0,0,1,618.67,484q-24.63,0-39.81-17.66t-15.17-49.89q0-27.85,15.86-46.95t41.23-19.1q23.76,0,36.45,16.67t12.69,45.53v5.1ZM658,407.25q-.75-22-10.58-34.21t-27.11-12.19q-17.91,0-29.67,12t-14.49,34.39Z" transform="translate(-160 -4)"/><circle class="cls-4" cx="340" cy="567.24" r="6.58"/><line class="cls-5" x1="396" y1="567.5" x2="632" y2="567.5"/><line class="cls-5" x1="50" y1="567.5" x2="286" y2="567.5"/></svg>