<svg id="Layer_1" data-name="Layer 1" xmlns="http://www.w3.org/2000/svg" viewBox="0 0 611.87 998.41"><defs><style>.cls-1{fill:#7b1515;}.cls-2{fill:#be3535;}.cls-3,.cls-4{fill:#fff;}.cls-4,.cls-5{stroke:#fff;stroke-miterlimit:10;}.cls-5{fill:none;}</style></defs><title>SLeeTitle</title><polygon class="cls-1" points="592.87 839.07 305.94 998.41 19 839.07 19 89.11 592.87 89.11 592.87 839.07"/><polygon class="cls-2" points="611.87 799.62 305.94 969.52 0 799.62 0 0 611.87 0 611.87 799.62"/><path class="cls-3" d="M288,319.64v-38A72.89,72.89,0,0,0,334.82,299a54.21,54.21,0,0,0,12.63-1.3,29.74,29.74,0,0,0,9-3.62,15.67,15.67,0,0,0,5.39-5.46,13.56,13.56,0,0,0,1.78-6.82,14.78,14.78,0,0,0-2.84-8.89,30.81,30.81,0,0,0-7.77-7.24,80.87,80.87,0,0,0-11.69-6.4q-6.75-3.09-14.59-6.29Q306.83,244.69,297,232.7t-9.78-28.94q0-13.29,5.34-22.84a45.25,45.25,0,0,1,14.53-15.71,65.13,65.13,0,0,1,21.29-9.08,109.72,109.72,0,0,1,25.62-2.9,153.79,153.79,0,0,1,23.54,1.6,93.16,93.16,0,0,1,18.92,4.92v35.47a57,57,0,0,0-9.31-5.22,74.66,74.66,0,0,0-10.38-3.74,78.28,78.28,0,0,0-10.62-2.19,74.21,74.21,0,0,0-10-.71,52.29,52.29,0,0,0-11.86,1.24,30.6,30.6,0,0,0-9,3.5,17.4,17.4,0,0,0-5.69,5.4,12.78,12.78,0,0,0-2,7.05,13.48,13.48,0,0,0,2.25,7.65,25.88,25.88,0,0,0,6.4,6.41,67.81,67.81,0,0,0,10.09,5.93q5.93,2.91,13.4,6a149.65,149.65,0,0,1,18.32,9.07A65,65,0,0,1,392,246.46a42.47,42.47,0,0,1,8.9,13.81A49,49,0,0,1,404,278.36q0,14.24-5.4,23.9a43.76,43.76,0,0,1-14.65,15.66,63.52,63.52,0,0,1-21.52,8.6,124.49,124.49,0,0,1-25.92,2.61,143.38,143.38,0,0,1-26.63-2.38A80.45,80.45,0,0,1,288,319.64Z" transform="translate(-213)"/><path class="cls-3" d="M570.62,252.51q0,76.62-71.41,76.62-69.27,0-69.26-74.85v-98.2h38.43v98.68q0,41.28,32.26,41.27,31.67,0,31.67-39.85V156.08h38.31Z" transform="translate(-213)"/><path class="cls-3" d="M674.16,258.67q0,34.17-15.83,52.31t-45.84,18.15a65.11,65.11,0,0,1-24.79-4.63V288.56A35.57,35.57,0,0,0,609.76,296Q636,296,636,257.13v-101h38.19Z" transform="translate(-213)"/><path class="cls-3" d="M749.72,326.16H711.41V156.08h38.31Z" transform="translate(-213)"/><path class="cls-3" d="M365.82,539.48V379.21h11.06V529.42h64.27v10.06Z" transform="translate(-213)"/><path class="cls-3" d="M470.88,482.71q0,23.58,10.89,36.88t29.9,13.3q19.21,0,37.55-14.2v11a66.87,66.87,0,0,1-39.67,12.63q-22.14,0-35.77-15.87t-13.63-44.82q0-25,14.25-42.19t37.05-17.16q21.34,0,32.74,15t11.4,40.9v4.59Zm74-9.39q-.66-19.79-9.5-30.74T511,431.63q-16.1,0-26.66,10.78t-13,30.91Z" transform="translate(-213)"/><path class="cls-3" d="M586.44,482.71q0,23.58,10.9,36.88t29.89,13.3q19.23,0,37.56-14.2v11a66.92,66.92,0,0,1-39.68,12.63q-22.12,0-35.76-15.87t-13.64-44.82q0-25,14.25-42.19t37-17.16q21.35,0,32.75,15t11.4,40.9v4.59Zm74-9.39q-.67-19.79-9.5-30.74t-24.37-10.95q-16.09,0-26.65,10.78t-13,30.91Z" transform="translate(-213)"/><circle class="cls-4" cx="305.49" cy="620.66" r="5.91"/><line class="cls-5" x1="355.8" y1="620.89" x2="567.85" y2="620.89"/><line class="cls-5" x1="44.92" y1="620.89" x2="256.97" y2="620.89"/></svg>