<?xml version="1.0" encoding="utf-8"?>
<!-- Generator: Adobe Illustrator 22.1.0, SVG Export Plug-In . SVG Version: 6.00 Build 0)  -->
<svg version="1.1" id="Layer_1" xmlns="http://www.w3.org/2000/svg" xmlns:xlink="http://www.w3.org/1999/xlink" x="0px" y="0px"
	 viewBox="0 0 500 500" style="enable-background:new 0 0 500 500;" xml:space="preserve">
<style type="text/css">
	.st0{fill:#F4B47A;}
	.st1{fill:#F7F7F7;}
	.st2{fill:#50B5D8;}
	.st3{fill:#D8B679;}
	.st4{opacity:0.29;fill:#231F20;}
	.st5{fill:#4C4C4C;}
	.st6{fill:#DD3333;}
	.st7{opacity:0.5;fill:#3C2415;}
	.st8{fill:#A97C50;}
	.st9{fill:#8DC63F;}
	.st10{fill:#EFE3AF;}
	.st11{fill:#FFFFFF;}
	.st12{fill:#F4EA95;}
	.st13{opacity:0.5;fill:#EF8F60;}
	.st14{fill:#0D4E6B;}
	.st15{opacity:0.5;fill:#603913;}
	.st16{opacity:0.5;fill:#D67B58;}
	.st17{opacity:0.5;fill:#DD825E;}
	.st18{fill:#F7F7F7;stroke:#21409A;stroke-width:5;stroke-miterlimit:10;}
	.st19{opacity:0.5;fill:#3C2415;stroke:#603913;stroke-miterlimit:10;}
	.st20{opacity:0.5;fill:none;stroke:#547028;stroke-linecap:round;stroke-miterlimit:10;}
</style>
<circle class="st0" cx="252.4" cy="257.2" r="150.3"/>
<path class="st1" d="M198.5,167.5c-0.4,0-0.8,0-1.3,0.1c-2.1-1.8-4.9-2.9-7.9-2.9c-2.7,0-5.2,0.9-7.2,2.4c-2.1-1.8-4.9-2.9-7.9-2.9
	c-3.5,0-6.7,1.5-8.9,3.9c-1-0.3-2.1-0.4-3.3-0.4c-6.7,0-12.2,5.4-12.2,12.2c0,6.7,5.4,12.2,12.2,12.2c0.4,0,0.7,0,1.1,0
	c2.2,2.2,5.3,3.6,8.6,3.6c2.7,0,5.3-0.9,7.3-2.4c2,1.5,4.6,2.4,7.3,2.4c3.6,0,6.8-1.5,9-4c1,0.3,2.1,0.4,3.2,0.4
	c6.7,0,12.2-5.4,12.2-12.2C210.7,172.9,205.2,167.5,198.5,167.5z"/>
<path class="st2" d="M105.5,268.2h294.2c0,0-1.5,34.8-18.3,60.2h-258C123.4,328.4,105.5,296.5,105.5,268.2z"/>
<path class="st3" d="M416,334.1c0-6.7-3.9-12.1-8.7-12.1H106.7c-4.8,0-8.7,5.4-8.7,12.1l0,0l0,0c0,0,0,0,0,0.1
	c0,1.1,0.1,2.2,0.3,3.3c2.3,14.3,19.9,68.5,153.9,68.5C252.3,406,416,406,416,334.1C416,334.1,416,334.1,416,334.1L416,334.1z"/>
<g>
	<polygon class="st4" points="139,318.3 140.9,317.9 155.6,355.2 153.6,356.9 	"/>
	<g>
		<path class="st1" d="M128.1,313.5l-18.9,7c1.9,5.1,7.6,7.6,12.9,5.7S129.9,318.5,128.1,313.5z"/>
		<g>
			
				<rect x="144.8" y="308.4" transform="matrix(0.9358 -0.3526 0.3526 0.9358 -108.136 73.1996)" class="st5" width="4.1" height="50.2"/>
			<path class="st6" d="M192.6,290L192.6,290c-10.8-29.2-43.2-44.3-72.4-33.6c-29.2,10.6-44.3,42.8-33.9,72l-0.1,0
				c2.3,6.2,9.3,9.3,15.7,7c6.2-2.3,9.4-8.9,7.5-14.9l0.1,0l18.6-6.8c2.3,6,9.1,9,15.3,6.7c6.2-2.3,9.5-8.9,7.4-15l11.7-4.3l7.4-2.7
				l-0.7,0.2c2.3,6.3,9.4,9.4,15.8,7S195,296.3,192.6,290z"/>
			<path class="st1" d="M109.5,320.5c0,0-22.4-32,10.7-64c0,0,44.2-3.4,49.2,42.2L109.5,320.5z"/>
			<path class="st6" d="M120.7,256.4c0,0-4.4,26.1,7.5,57.3l22.7-8.3C150.9,305.4,139.8,262.3,120.7,256.4z"/>
			<path class="st1" d="M169.4,298.6l-18.5,6.8c1.8,4.9,7.4,7.3,12.5,5.4C168.5,309,171.2,303.5,169.4,298.6z"/>
			<path class="st0" d="M120.7,254.7"/>
			<path class="st7" d="M143.5,320.4c-20.8-18.8-22.8-64.1-22.8-64.1c-29,8-44.8,42.9-34.5,72.1l-0.1,0c2.3,6.2,9.3,9.3,15.7,7
				c6.2-2.3,9.4-8.9,7.5-14.9l0.1,0l1.6-0.6l-1.6,0.6c1.9,5,7.5,7.5,12.6,5.6c5.1-1.9,7.7-7.4,5.9-12.4l0.1,0
				C130.5,319.6,137.3,322.7,143.5,320.4L143.5,320.4z"/>
		</g>
	</g>
</g>
<circle class="st8" cx="403.8" cy="330.9" r="1.2"/>
<path class="st7" d="M276.9,367.8l-124.7,3.7c-1.7,0.1-2.3-2.1-0.8-2.9l57.3-31.1c2.7-1.5,5.7-2.3,8.9-2.4l126.2-3.8
	c1.7-0.1,2.3,2.1,0.8,2.9l-56,30.4C284.9,366.6,280.9,367.7,276.9,367.8z"/>
<circle class="st8" cx="408.8" cy="332.1" r="1.2"/>
<path class="st9" d="M341.6,331.7L295,367c-3.5,2-8.9,2.8-13,3l-129.6-0.8c-1.7,0.1-2.3-2-0.9-2.8l57-31.9c2.7-1.5,5.7-2.4,8.8-2.5"
	/>
<path class="st10" d="M292.6,287.2h-47.5c-1,0-1.8-0.8-1.8-1.8l0,0c0-1,0.8-1.8,1.8-1.8h47.5c1,0,1.8,0.8,1.8,1.8l0,0
	C294.5,286.3,293.7,287.2,292.6,287.2z"/>
<path class="st10" d="M283.4,307.1h-23.2c-1,0-1.8-0.8-1.8-1.8l0,0c0-1,0.8-1.8,1.8-1.8h23.2c1,0,1.8,0.8,1.8,1.8l0,0
	C285.2,306.3,284.4,307.1,283.4,307.1z"/>
<path class="st1" d="M319.1,272.6v-25.2c0,0,9.8,2.9,9.8,16.7L319.1,272.6z"/>
<path class="st1" d="M329.2,273.3h-17.3c-0.4,0-0.7-0.3-0.7-0.7l0,0c0-0.4,0.3-0.7,0.7-0.7h17.3c0.4,0,0.7,0.3,0.7,0.7l0,0
	C329.9,273,329.6,273.3,329.2,273.3z"/>
<path class="st11" d="M355.7,269.5h-11.8l11.5-9.9c0.1-17.8-12.5-21.4-12.5-21.4v31.3h-9.3c-0.5,0-0.9,0.4-0.9,0.9
	c0,0.5,0.4,0.9,0.9,0.9h22.2c0.5,0,0.9-0.4,0.9-0.9C356.6,269.9,356.2,269.5,355.7,269.5z"/>
<path class="st10" d="M264.8,277.9h-55.8c-1,0-1.8-0.8-1.8-1.8l0,0c0-1,0.8-1.8,1.8-1.8h55.8c1,0,1.8,0.8,1.8,1.8l0,0
	C266.6,277.1,265.8,277.9,264.8,277.9z"/>
<path class="st10" d="M246.7,297.1h-33.1c-1,0-1.8-0.8-1.8-1.8l0,0c0-1,0.8-1.8,1.8-1.8h33.1c1,0,1.8,0.8,1.8,1.8l0,0
	C248.5,296.4,247.7,297.1,246.7,297.1z"/>
<path class="st12" d="M297.1,268.1h-90.7c0-25,20.3-45.3,45.3-45.3S297.1,243,297.1,268.1z"/>
<path class="st10" d="M257.2,317.8H248c-1,0-1.8-0.8-1.8-1.8l0,0c0-1,0.8-1.8,1.8-1.8h9.3c1,0,1.8,0.8,1.8,1.8l0,0
	C259,317,258.2,317.8,257.2,317.8z"/>
<path class="st10" d="M250,307.1h-23.2c-1,0-1.8-0.8-1.8-1.8l0,0c0-1,0.8-1.8,1.8-1.8H250c1,0,1.8,0.8,1.8,1.8l0,0
	C251.8,306.3,251,307.1,250,307.1z"/>
<path class="st10" d="M264.9,297.1h-9.3c-1,0-1.8-0.8-1.8-1.8l0,0c0-1,0.8-1.8,1.8-1.8h9.3c1,0,1.8,0.8,1.8,1.8l0,0
	C266.7,296.4,265.9,297.1,264.9,297.1z"/>
<path class="st10" d="M287.2,297.1h-13.6c-1,0-1.8-0.8-1.8-1.8l0,0c0-1,0.8-1.8,1.8-1.8h13.6c1,0,1.8,0.8,1.8,1.8l0,0
	C289,296.4,288.2,297.1,287.2,297.1z"/>
<path class="st13" d="M197.2,167.9C196.9,167.9,197.6,167.8,197.2,167.9c-1.5-2.2-6-3.3-8.8-3.3c-2.5,0-4.6,1.3-6.4,2.7
	c-1.9-1.7-5.2-3.2-7.9-3.2c-3.2,0-6.9,2-8.9,4.2c-0.9-0.3-3.3-0.5-4.4-0.5c-6.1,0-11,6.5-11,12.8c0,6.3,8.9,6.5,11,5c0,0,2,4,8,4
	c4.1,0,5.6-1.6,7.4-3c1.8,1.4,4.2,2.3,6.6,2.3c3.2,0,5.9-1.9,7.5-6c0.9,0.3,2.7,0.6,3.6,1.1c2.4,1.3,8.7-0.9,10.8-3.5
	c2.3-2.8,0.3-10.7-2.2-11.9C200.7,167.6,199.7,167.9,197.2,167.9z"/>
<path class="st14" d="M396.4,290.7h-11.9c-1,0-1.8-0.8-1.8-1.8l0,0c0-1,0.8-1.8,1.8-1.8h12.7L396.4,290.7z"/>
<path class="st14" d="M394.9,297.1h-37.3c-1,0-1.8-0.8-1.8-1.8l0,0c0-1,0.8-1.8,1.8-1.8h38.2L394.9,297.1z"/>
<path class="st14" d="M393,303.6h-20.5c-1,0-1.8-0.8-1.8-1.8l0,0c0-1,0.8-1.8,1.8-1.8H394L393,303.6z"/>
<path class="st15" d="M320.5,248v23.4l8.4-7.3C328.9,264.1,329.4,252.2,320.5,248z"/>
<path class="st15" d="M344.6,238.9v30l10.8-9.3C355.4,259.5,356.5,244.6,344.6,238.9z"/>
<path class="st1" d="M320.7,176.5c0.3,0,0.7,0,1,0.1c1.7-1.4,3.8-2.3,6.2-2.3c2.1,0,4.1,0.7,5.7,1.9c1.7-1.4,3.8-2.3,6.2-2.3
	c2.8,0,5.2,1.2,7,3c0.8-0.2,1.7-0.4,2.6-0.4c5.3,0,9.6,4.3,9.6,9.6s-4.3,9.6-9.6,9.6c-0.3,0-0.6,0-0.8,0c-1.7,1.7-4.1,2.8-6.8,2.8
	c-2.2,0-4.1-0.7-5.7-1.9c-1.6,1.2-3.6,1.9-5.7,1.9c-2.8,0-5.3-1.2-7.1-3.1c-0.8,0.2-1.6,0.3-2.5,0.3c-5.3,0-9.6-4.3-9.6-9.6
	S315.4,176.5,320.7,176.5z"/>
<path class="st13" d="M321.7,176.5c2.4-2.1,4.7-2.4,6.9-2.4c1.9,0,3.5,0.9,5.1,1.9c1.5-1.3,3.7-2.3,6.2-2.3c2.5,0,5.3,1.1,7,3
	c0.7-0.2,1.8-0.4,3.4-0.3c4.8,0.2,9.2,5,8.7,9.9c-0.5,4.9-7,5.1-8.7,3.9c0,0-1.6,3.2-6.3,3.2c-3.2,0-4.4-1.2-5.8-2.4
	c-1.5,1.1-3.3,1.8-5.2,1.8c-2.5,0-4.6-1.5-5.9-4.7c-0.7,0.2-2.1,0.5-2.8,0.9c-1.9,1-6.8-0.7-8.5-2.8c-1.8-2.2-1.3-8.2,1.7-9.3
	C319,176.4,321.4,176.3,321.7,176.5z"/>
<path class="st1" d="M249.2,131c-0.3,0-0.5,0-0.7,0c-1.3-1.1-2.9-1.7-4.7-1.7c-1.6,0-3.1,0.5-4.3,1.4c-1.3-1.1-2.9-1.7-4.7-1.7
	c-2.1,0-3.9,0.9-5.3,2.3c-0.6-0.2-1.3-0.3-1.9-0.3c-4,0-7.2,3.2-7.2,7.2s3.2,7.2,7.2,7.2c0.2,0,0.4,0,0.6,0c1.3,1.3,3.1,2.1,5.1,2.1
	c1.6,0,3.1-0.5,4.3-1.4c1.2,0.9,2.7,1.4,4.3,1.4c2.1,0,4-0.9,5.3-2.3c0.6,0.2,1.2,0.2,1.9,0.2c4,0,7.2-3.2,7.2-7.2
	S253.2,131,249.2,131z"/>
<path class="st16" d="M248.5,131c-1.9-1.5-3.3-1.7-4.9-1.7c-1.5,0-2.9,0.6-4,1.4c-1.9-1.7-4.1-1.7-5.6-1.7c-0.7,0-3.2,0.9-4.3,2.3
	c-0.6-0.2-2.2-0.4-2.7-0.2c-3.4,1.1-5.3,4-5.3,7.7s5.2,3.9,6.5,3c0,0,1.2,2.4,4.7,2.4c2.4,0,3.3-0.9,4.4-1.8
	c1.1,0.9,2.5,1.4,3.9,1.4c1.9,0,3.5-1.1,4.4-3.6c0.5,0.2,1.6,0.4,2.1,0.7c1.4,0.8,5.1-0.5,6.4-2.1c1.4-1.6,0.2-6.1-1.3-6.8
	C251.5,131.3,249.8,130.8,248.5,131z"/>
<path class="st1" d="M274.2,158.7c0.2,0,0.4,0,0.5,0c0.9-0.8,2.1-1.3,3.4-1.3c1.2,0,2.3,0.4,3.1,1c0.9-0.8,2.1-1.3,3.4-1.3
	c1.5,0,2.9,0.6,3.9,1.7c0.5-0.1,0.9-0.2,1.4-0.2c2.9,0,5.3,2.4,5.3,5.3c0,2.9-2.4,5.3-5.3,5.3c-0.2,0-0.3,0-0.5,0
	c-1,1-2.3,1.6-3.7,1.6c-1.2,0-2.3-0.4-3.2-1.1c-0.9,0.7-2,1.1-3.2,1.1c-1.5,0-2.9-0.7-3.9-1.7c-0.4,0.1-0.9,0.2-1.4,0.2
	c-2.9,0-5.3-2.4-5.3-5.3C268.9,161.1,271.2,158.7,274.2,158.7z"/>
<path class="st17" d="M274.7,158.8C274.9,158.8,274.5,158.8,274.7,158.8c0.7-0.9,2.4-1.3,3.7-1.3c1.2,0,2,0.5,2.9,1.1
	c0.3-0.4,2-1.4,3.9-1.3c1.5,0.1,2.5,0.7,3.4,1.7c0.6-0.5,2.3-0.2,2.8-0.1c1.6,0.3,3.9,2.6,3.9,5.2c0,2.6-2.9,2.8-3.9,2.2
	c0,0-0.9,1.7-3.8,1.7c-1.9,0-2.6-0.6-3.5-1.2c-0.9,0.6-2,1-3.1,1c-1.5,0-2.8-0.8-3.5-2.5c-0.4,0.1-1.3,0.3-1.7,0.5
	c-1.1,0.5-4.1-0.4-5.1-1.5c-1.1-1.2-0.7-3.6,0.4-4.4C272,159.1,273.1,158.4,274.7,158.8z"/>
<ellipse transform="matrix(0.3183 -0.948 0.948 0.3183 -26.786 570.52)" class="st18" cx="383.3" cy="303.9" rx="58.6" ry="18.8"/>
<line class="st18" x1="408" y1="256" x2="374" y2="348.9"/>
<line class="st18" x1="392.9" y1="252.1" x2="358.9" y2="345"/>
<path class="st19" d="M403.6,307.4c-9.5,33-26.2,57.2-37.2,54c-4.5-1.3-7.4-7-8.6-15.5l52.1-82.6
	C410.4,275.2,408.4,290.9,403.6,307.4z"/>
<path class="st3" d="M382,375h-35.5c0-14.2,8-25.8,17.8-25.8S382,360.8,382,375z"/>
<path class="st3" d="M388,367h-10.7c0-7.4,2.4-13.5,5.3-13.5C385.6,353.5,388,359.6,388,367z"/>
<circle class="st8" cx="390.8" cy="371.4" r="0.9"/>
<circle class="st8" cx="398.8" cy="347.3" r="0.9"/>
<circle class="st8" cx="369.5" cy="367.3" r="0.9"/>
<circle class="st8" cx="388" cy="352.3" r="0.9"/>
<circle class="st8" cx="365" cy="370.5" r="0.9"/>
<circle class="st8" cx="396.4" cy="366.5" r="0.9"/>
<circle class="st8" cx="371.3" cy="371.4" r="0.9"/>
<g>
	<path class="st3" d="M161.9,355.2l-22.5,8.9c-2.4-6.2,0.6-13.3,6.8-15.7S159.5,348.9,161.9,355.2z"/>
	<circle class="st8" cx="155.2" cy="353.9" r="0.6"/>
	<circle class="st8" cx="157.8" cy="354.1" r="0.6"/>
	<circle class="st8" cx="156.5" cy="352.2" r="0.6"/>
</g>
<path class="st8" d="M277,386c0,0,12.2-3,35,0C312,386,292.2,389,277,386z"/>
<path class="st8" d="M243,395.5c0,0,10.4-5.6,30,0C273,395.5,256,401.1,243,395.5z"/>
<path class="st8" d="M213,384.1c0,0,6.7-1.7,19.6-1.8c5.6-0.1,5.9,4.1,0.4,4.3C224.2,386.9,215.9,386.4,213,384.1z"/>
<path class="st20" d="M248,355.8c0,0,3.2-0.6,9-0.6c2.6,0,5.2,0.2,7.6,0.5c4.2,0.5,12.8,1.5,20.4,1.3"/>
<path class="st20" d="M228,358.9c0,0,2.7-1.7,7.5-1.8c2.2,0,4.3,0.5,6.4,1.4c3.5,1.6,10.8,4.3,17.1,3.8"/>
</svg>
