<?xml version="1.0" encoding="utf-8"?>
<!-- Generator: Adobe Illustrator 22.1.0, SVG Export Plug-In . SVG Version: 6.00 Build 0)  -->
<svg version="1.1" id="Beer" xmlns="http://www.w3.org/2000/svg" xmlns:xlink="http://www.w3.org/1999/xlink" x="0px" y="0px"
	 viewBox="0 0 1366 952" style="enable-background:new 0 0 1366 952;" xml:space="preserve">
<style type="text/css">
	.st0{fill:#F4B47A;}
	.st1{fill:#F7F7F7;}
	.st2{fill:#50B5D8;}
	.st3{fill:#F7F7F7;stroke:#1B75BC;stroke-width:3;stroke-miterlimit:10;}
	.st4{fill:#D8B679;}
	.st5{fill:#1B75BC;}
	.st6{opacity:0.5;}
	.st7{fill:#3C2415;}
	.st8{fill:#4C4C4C;}
	.st9{opacity:0.29;fill:#231F20;}
	.st10{fill:#DD3333;}
	.st11{fill:#A97C50;}
	.st12{opacity:0.5;fill:#3C2415;}
	.st13{fill:#8DC63F;}
	.st14{fill:#EFE3AF;}
	.st15{fill:#FFFFFF;}
	.st16{fill:#F4EA95;}
	.st17{opacity:0.5;fill:#EF8F60;}
	.st18{fill:#0D4E6B;}
	.st19{opacity:0.5;fill:#603913;}
	.st20{opacity:0.5;fill:#D67B58;}
	.st21{fill:#04381C;}
	.st22{fill:#034926;}
	.st23{opacity:0.5;fill:#DD825E;}
	.st24{fill:#022611;}
	.st25{fill:#F7F7F7;stroke:#21409A;stroke-width:10;stroke-miterlimit:10;}
	.st26{opacity:0.5;fill:#3C2415;stroke:#603913;stroke-miterlimit:10;}
</style>
<circle class="st0" cx="716.1" cy="457.7" r="407.8"/>
<path class="st1" d="M566.8,209.2c-1.2,0-2.3,0.1-3.5,0.2c-5.9-5.1-13.6-8.2-21.9-8.2c-7.5,0-14.4,2.5-20,6.6
	c-5.9-5-13.5-8.1-21.9-8.1c-9.7,0-18.5,4.1-24.6,10.7c-2.9-0.8-5.9-1.2-9-1.2c-18.6,0-33.6,15.1-33.6,33.6
	c0,18.6,15.1,33.6,33.6,33.6c1,0,2-0.1,2.9-0.1c6.1,6.1,14.5,9.9,23.9,9.9c7.6,0,14.6-2.5,20.2-6.8c5.6,4.2,12.6,6.8,20.2,6.8
	c9.8,0,18.7-4.2,24.9-11c2.8,0.8,5.7,1.2,8.8,1.2c18.6,0,33.6-15.1,33.6-33.6C600.4,224.3,585.4,209.2,566.8,209.2z"/>
<path class="st2" d="M309.3,488h814.4c0,0-4.1,96.3-50.6,166.6H358.8C358.8,654.6,309.3,566.3,309.3,488z"/>
<path class="st3" d="M401.8,652.3H263.7c-2.6,0-4.8-2.1-4.8-4.8v-6.6c0-2.6,2.1-4.8,4.8-4.8h138.1c2.6,0,4.8,2.1,4.8,4.8v6.6
	C406.6,650.2,404.4,652.3,401.8,652.3z"/>
<path class="st4" d="M1249,708.2c0-16.7-13.6-30.3-30.3-30.3H169.6c-16.7,0-30.3,13.6-30.3,30.3v0l0,0c0,0,0,0.1,0,0.3
	c0,2.8,0.5,5.6,1.2,8.2c8.1,35.7,69.5,171.8,537.2,171.8C677.7,888.5,1249,888.5,1249,708.2C1249,708.2,1249,708.2,1249,708.2
	L1249,708.2z"/>
<path class="st5" d="M387.4,736.1H275.8c-6.7,0-12.1-5.4-12.1-12.1v-61.2c0-6.7,5.4-12.1,12.1-12.1h111.7c6.7,0,12.1,5.4,12.1,12.1
	V724C399.5,730.7,394.1,736.1,387.4,736.1z"/>
<path class="st3" d="M399.3,718.3l-76.9-63.6c-1.8-1.5-2-4.1-0.6-5.9l5-6c1.5-1.8,4.1-2,5.9-0.6l76.9,63.6c1.8,1.5,2,4.1,0.6,5.9
	l-5,6C403.7,719.6,401.1,719.8,399.3,718.3z"/>
<g class="st6">
	<path class="st7" d="M263.6,653.5c-2.6,0-4.8-2.1-4.8-4.8v-6.6c0-2.6,2.1-4.8,4.8-4.8h69l0,14.8C297.7,653,263.6,653.5,263.6,653.5
		z"/>
	<path class="st7" d="M332.6,737.3h-57c-6.7,0-12.1-5.4-12.1-12.1v-61.2c0-6.7,5.4-12.1,12.1-12.1h57V737.3z"/>
</g>
<rect x="270.2" y="556.6" transform="matrix(0.9358 -0.3526 0.3526 0.9358 -212.9427 140.1056)" class="st8" width="16" height="196"/>
<polygon class="st9" points="250.5,603.9 256.6,602.7 304.6,724.3 298,730 "/>
<path class="st10" d="M456.8,485.1l-0.2,0.1C414.6,371,288.3,312.3,174,353.9C60,395.3,1,520.9,41.5,635l-0.3,0.1
	c9,24.2,36.4,36.4,61.2,27.2c24-8.9,36.8-34.6,29.4-58.2l0.4-0.1l72.8-26.5c9.1,23.3,35.7,35.1,59.9,26.2c24.2-8.8,37-34.9,29-58.6
	l45.8-16.7l29-10.6l-2.6,1c9.1,24.5,36.8,36.7,61.8,27.4S465.9,509.5,456.8,485.1z"/>
<circle class="st11" cx="1205.5" cy="718.4" r="7"/>
<path class="st12" d="M743.5,807.7H334.3c-5.5,0-7.4-5.9-2.5-8l190.9-81.2c9-3.8,19.1-5.8,29.3-5.8H966c5.5,0,7.4,5.9,2.5,8
	L781.9,800C770.1,805.1,756.9,807.7,743.5,807.7z"/>
<circle class="st11" cx="1235.7" cy="725.4" r="7"/>
<circle class="st11" cx="1212.5" cy="749" r="7"/>
<path class="st13" d="M1005.6,704.2l-186.6,79.4c-11.8,5-25,7.7-38.4,7.7H371.3c-5.5,0-7.4-5.9-2.5-8l190.9-81.2
	c9-3.8,19.1-5.8,29.3-5.8"/>
<path class="st4" d="M373.1,770.2H267.3c0-29.2,23.7-52.9,52.9-52.9S373.1,741,373.1,770.2z"/>
<path class="st1" d="M132.2,603.9c0,0-87.4-125.1,41.8-250c0,0,172.6-13.4,192,164.9L132.2,603.9z"/>
<path class="st10" d="M175.8,353.9c0,0-17.2,101.8,29.2,223.9l88.8-32.5C293.8,545.2,250.3,377,175.8,353.9z"/>
<path class="st1" d="M204.5,577.1L132,604c7.2,19.5,29.3,29.3,49.3,21.9C201.4,618.4,211.7,596.6,204.5,577.1z"/>
<path class="st1" d="M366.1,518.7l-72.4,26.4c6.9,19,28.7,28.5,48.7,21.2C362.4,559,373,537.7,366.1,518.7z"/>
<circle class="st11" cx="320.2" cy="734.9" r="2.4"/>
<circle class="st11" cx="330.3" cy="739.7" r="2.4"/>
<circle class="st11" cx="327.9" cy="730" r="2.4"/>
<path class="st14" d="M827.4,540.6H695.8c-2.8,0-5.1-2.3-5.1-5.1l0,0c0-2.8,2.3-5.1,5.1-5.1h131.6c2.8,0,5.1,2.3,5.1,5.1l0,0
	C832.5,538.3,830.2,540.6,827.4,540.6z"/>
<path class="st14" d="M802,595.8h-64.3c-2.7,0-4.9-2.2-4.9-4.9l0,0c0-2.7,2.2-4.9,4.9-4.9H802c2.7,0,4.9,2.2,4.9,4.9l0,0
	C806.8,593.6,804.7,595.8,802,595.8z"/>
<path class="st1" d="M900.8,500.2v-69.7c0,0,27.2,7.9,27.1,46.3L900.8,500.2z"/>
<path class="st1" d="M928.5,502.2h-47.9c-1.1,0-1.9-0.9-1.9-1.9l0,0c0-1.1,0.9-1.9,1.9-1.9h47.9c1.1,0,1.9,0.9,1.9,1.9l0,0
	C930.5,501.3,929.6,502.2,928.5,502.2z"/>
<path class="st15" d="M1002,491.6h-32.6l31.8-27.5c0.2-49.2-34.7-59.3-34.7-59.3v86.8h-25.8c-1.4,0-2.5,1.1-2.5,2.5
	c0,1.4,1.1,2.5,2.5,2.5h61.3c1.4,0,2.5-1.1,2.5-2.5C1004.5,492.7,1003.4,491.6,1002,491.6z"/>
<path class="st14" d="M750.8,514.9H595.6c-2.5,0-4.4-2-4.4-4.4v-0.8c0-2.5,2-4.4,4.4-4.4h155.2c2.5,0,4.4,2,4.4,4.4v0.8
	C755.3,512.9,753.3,514.9,750.8,514.9z"/>
<path class="st14" d="M700.3,568.2h-91.5c-2.7,0-4.9-2.2-4.9-4.9l0,0c0-2.7,2.2-4.9,4.9-4.9h91.5c2.7,0,4.9,2.2,4.9,4.9l0,0
	C705.2,566,703,568.2,700.3,568.2z"/>
<path class="st16" d="M839.8,487.8H588.8c0-69.3,56.2-125.5,125.5-125.5S839.8,418.4,839.8,487.8z"/>
<path class="st14" d="M729.4,625.2h-25.7c-2.7,0-4.9-2.2-4.9-4.9l0,0c0-2.7,2.2-4.9,4.9-4.9h25.7c2.7,0,4.9,2.2,4.9,4.9l0,0
	C734.2,623.1,732.1,625.2,729.4,625.2z"/>
<path class="st14" d="M709.4,595.8h-64.3c-2.7,0-4.9-2.2-4.9-4.9l0,0c0-2.7,2.2-4.9,4.9-4.9h64.3c2.7,0,4.9,2.2,4.9,4.9l0,0
	C714.3,593.6,712.1,595.8,709.4,595.8z"/>
<path class="st14" d="M750.7,568.2H725c-2.7,0-4.9-2.2-4.9-4.9l0,0c0-2.7,2.2-4.9,4.9-4.9h25.7c2.7,0,4.9,2.2,4.9,4.9l0,0
	C755.5,566,753.4,568.2,750.7,568.2z"/>
<path class="st14" d="M812.4,568.2h-37.7c-2.7,0-4.9-2.2-4.9-4.9l0,0c0-2.7,2.2-4.9,4.9-4.9h37.7c2.7,0,4.9,2.2,4.9,4.9l0,0
	C817.3,566,815.1,568.2,812.4,568.2z"/>
<path class="st0" d="M175.8,347.1"/>
<path class="st12" d="M264.9,603.6C183.6,530.3,176,353.5,176,353.5C62.7,384.6,1,520.9,41.5,635l-0.3,0.1
	c9,24.2,36.4,36.4,61.2,27.2c24-8.9,36.8-34.6,29.4-58.2l0.4-0.1l6.1-2.2L132,604c7.2,19.5,29.3,29.3,49.3,21.9
	c19.8-7.4,30.2-28.9,23.2-48.4l0.4-0.1C214.1,600.7,240.6,612.4,264.9,603.6L264.9,603.6z"/>
<path class="st17" d="M563.3,210.4C562.2,210.4,564.4,210.2,563.3,210.4c-4.2-6.2-16.6-9.2-24.3-9.2c-6.8,0-12.6,3.6-17.7,7.5
	c-5.3-4.7-14.3-8.9-21.9-8.9c-8.8,0-19,5.6-24.6,11.8c-2.6-0.8-9.3-1.4-12.1-1.4c-16.9,0-30.6,17.9-30.6,35.4
	c0,17.5,24.5,18.1,30.6,13.8c0,0,5.5,11.2,22.2,11.2c11.4,0,15.4-4.3,20.6-8.3c5.1,4,11.5,6.4,18.4,6.4c9,0,16.3-5.3,20.6-16.7
	c2.5,0.7,7.4,1.8,9.8,3.1c6.5,3.5,24-2.6,30-9.7c6.5-7.7,0.8-29.6-6.1-33C572.8,209.7,570,210.4,563.3,210.4z"/>
<path class="st18" d="M1114.7,550.4h-33c-2.7,0-4.9-2.2-4.9-4.9l0,0c0-2.7,2.2-4.9,4.9-4.9h35L1114.7,550.4z"/>
<path class="st18" d="M1110.4,568.2H1007c-2.7,0-4.9-2.2-4.9-4.9l0,0c0-2.7,2.2-4.9,4.9-4.9h105.9L1110.4,568.2z"/>
<path class="st18" d="M1105.1,585.9h-56.8c-2.7,0-4.9-2.2-4.9-4.9l0,0c0-2.7,2.2-4.9,4.9-4.9h59.7L1105.1,585.9z"/>
<path class="st18" d="M391.7,623.3h-48.3l-4.2-9.7h52.5c2.7,0,4.9,2.2,4.9,4.9l0,0C396.6,621.1,394.4,623.3,391.7,623.3z"/>
<path class="st18" d="M453.4,600.7H334l-3.6-9.7h123.1c2.7,0,4.9,2.2,4.9,4.9l0,0C458.3,598.5,456.1,600.7,453.4,600.7z"/>
<path class="st19" d="M904.6,432.1V497l23.3-20.1C927.9,476.8,929,443.8,904.6,432.1z"/>
<path class="st19" d="M971.4,406.9v83l29.9-25.8C1001.2,464.1,1004.1,422.7,971.4,406.9z"/>
<path class="st1" d="M905.1,234.1c0.9,0,1.8,0,2.7,0.1c4.6-4,10.7-6.4,17.3-6.4c5.9,0,11.3,1.9,15.7,5.2c4.6-4,10.6-6.4,17.2-6.4
	c7.6,0,14.5,3.2,19.3,8.4c2.3-0.6,4.6-1,7.1-1c14.6,0,26.5,11.8,26.5,26.5S999.1,287,984.5,287c-0.8,0-1.6,0-2.3-0.1
	c-4.8,4.8-11.4,7.8-18.8,7.8c-6,0-11.5-2-15.9-5.3c-4.4,3.3-9.9,5.3-15.9,5.3c-7.7,0-14.7-3.3-19.5-8.6c-2.2,0.6-4.5,0.9-6.9,0.9
	c-14.6,0-26.5-11.8-26.5-26.5S890.5,234.1,905.1,234.1z"/>
<path class="st17" d="M907.9,234.3c6.6-5.8,13-6.5,19-6.5c5.4,0,9.8,2.6,14,5.3c4.2-3.7,10.3-6.4,17.2-6.4c6.9,0,14.6,2.9,19.3,8.4
	c2.1-0.6,5-1.2,9.3-0.9c13.4,0.7,25.6,13.9,24.2,27.3c-1.4,13.7-19.3,14.2-24,10.9c0,0-4.3,8.8-17.5,8.8c-8.9,0-12.1-3.4-16.2-6.5
	c-4,3.1-9,5-14.5,5c-7,0-12.8-4.2-16.2-13.1c-2,0.6-5.8,1.4-7.7,2.4c-5.1,2.8-18.9-2-23.6-7.6c-5.1-6-3.5-22.7,4.7-25.7
	C900.5,234,906.9,233.7,907.9,234.3z"/>
<path class="st1" d="M707.1,108.2c-0.7,0-1.4,0-2.1,0.1c-3.5-3-8-4.8-13-4.8c-4.4,0-8.5,1.4-11.8,3.9c-3.5-3-8-4.8-12.9-4.8
	c-5.7,0-10.9,2.4-14.5,6.3c-1.7-0.5-3.5-0.7-5.3-0.7c-11,0-19.9,8.9-19.9,19.9c0,11,8.9,19.9,19.9,19.9c0.6,0,1.2,0,1.7-0.1
	c3.6,3.6,8.6,5.9,14.1,5.9c4.5,0,8.6-1.5,12-4c3.3,2.5,7.5,4,12,4c5.8,0,11.1-2.5,14.7-6.5c1.7,0.4,3.4,0.7,5.2,0.7
	c11,0,19.9-8.9,19.9-19.9C727,117.1,718.1,108.2,707.1,108.2z"/>
<path class="st20" d="M705.1,108.3c-5.2-4.3-9.2-4.8-13.7-4.8c-4,0-8.1,1.6-11.1,3.9c-5.3-4.8-11.4-4.7-15.6-4.8
	c-1.8,0-9,2.5-11.9,6.3c-1.5-0.4-6-1.1-7.6-0.6c-9.5,3.1-14.7,11-14.7,21.4s14.5,10.7,18.1,8.2c0,0,3.2,6.6,13.1,6.6
	c6.7,0,9.1-2.5,12.1-4.9c3,2.4,6.8,3.8,10.9,3.8c5.3,0,9.7-3.1,12.2-9.8c1.5,0.4,4.3,1,5.8,1.8c3.9,2.1,14.2-1.5,17.7-5.7
	c3.8-4.5,0.5-16.9-3.6-18.9C713.7,109.1,708.9,107.7,705.1,108.3z"/>
<path class="st21" d="M1265.1,551.6L1114,737.4c-20.7-16.9-2.4-73.9,41.1-127.3c37-45.5,80.3-73.8,105.1-70.7
	C1266,540.2,1268.8,547.1,1265.1,551.6z"/>
<path class="st22" d="M1318.2,601.3l-202.6,127.7c-14.3-22.6,21.4-70.7,79.7-107.4c49.7-31.3,99.7-44.2,122.2-33.3
	C1322.7,590.8,1323.1,598.1,1318.2,601.3z"/>
<path class="st1" d="M776.2,185.1c0.5,0,1,0,1.5,0.1c2.6-2.2,5.9-3.5,9.5-3.5c3.3,0,6.3,1.1,8.7,2.9c2.6-2.2,5.9-3.5,9.5-3.5
	c4.2,0,8,1.8,10.7,4.7c1.3-0.3,2.6-0.5,3.9-0.5c8.1,0,14.6,6.5,14.6,14.6s-6.5,14.6-14.6,14.6c-0.4,0-0.9,0-1.3-0.1
	c-2.6,2.7-6.3,4.3-10.4,4.3c-3.3,0-6.3-1.1-8.8-2.9c-2.4,1.8-5.5,2.9-8.8,2.9c-4.3,0-8.1-1.8-10.8-4.8c-1.2,0.3-2.5,0.5-3.8,0.5
	c-8.1,0-14.6-6.5-14.6-14.6S768.2,185.1,776.2,185.1z"/>
<path class="st23" d="M777.7,185.1C778.2,185.3,777.3,185.1,777.7,185.1c2-2.6,6.7-3.6,10.3-3.6c3.2,0,5.6,1.3,8,2.9
	c0.8-1.2,5.5-3.9,10.7-3.5c4.2,0.3,6.9,2.1,9.5,4.7c1.8-1.4,6.5-0.6,7.8-0.3c4.4,0.9,10.8,7.1,10.8,14.4s-7.9,7.9-10.7,6.1
	c0,0-2.6,4.6-10.5,4.6c-5.4,0-7.3-1.8-9.7-3.5c-2.4,1.7-5.4,2.7-8.7,2.7c-4.2,0-7.7-2.2-9.7-6.9c-1.2,0.3-3.5,0.7-4.6,1.3
	c-3.1,1.5-11.3-1.1-14.2-4c-3.1-3.2-1.8-10.1,1.1-12.1C770.3,186,773.3,184,777.7,185.1z"/>
<path class="st21" d="M1327.8,642.2l-220.7,83.1c-6.3-16.8,40.7-50.2,105.2-74.4c48.2-18.1,92.4-26.1,114.3-21.9
	C1333.4,630.3,1334.3,639.8,1327.8,642.2z"/>
<path class="st22" d="M1293.1,705l-219.8,28.3c0,0,50.8-42.3,119.1-51.1c40.4-5.2,77.9,2.5,101.8,9.6
	C1301.1,693.9,1300.3,704,1293.1,705z"/>
<path class="st21" d="M1260.8,746.7l-215.6-3.5c0.3-16.5,51.5-29,114.5-28c47.1,0.8,87.3,8.9,104.6,19.8
	C1269.7,738.4,1267.2,746.8,1260.8,746.7z"/>
<path class="st24" d="M1201.6,790.2l-173.9-68.8c6.6-16.7,53.2-14,104,6.1c38,15,67.6,35.5,77.3,51.9
	C1211.9,784.5,1206.7,792.2,1201.6,790.2z"/>
<ellipse transform="matrix(0.3183 -0.948 0.948 0.3183 159.5483 1462.6349)" class="st25" cx="1096.8" cy="620.4" rx="203.9" ry="65.5"/>
<line class="st25" x1="1182.9" y1="453.8" x2="1064.6" y2="777.2"/>
<line class="st25" x1="1130" y1="440.2" x2="1011.7" y2="763.6"/>
<path class="st26" d="M1167.5,632.7c-33.1,114.9-91.1,199.1-129.6,188c-15.7-4.5-25.8-24.2-29.9-53.8l181.4-287.5
	C1191.3,520.7,1184.1,575.1,1167.5,632.7z"/>
<path class="st4" d="M1091.5,821H948.7c0-39.4,32-71.4,71.4-71.4S1091.5,781.6,1091.5,821z"/>
<path class="st4" d="M1136.5,797.3h-74.7c0-20.6,16.7-37.3,37.3-37.3S1136.5,776.7,1136.5,797.3z"/>
<circle class="st11" cx="1099.2" cy="773.8" r="2.4"/>
<circle class="st11" cx="1121.3" cy="762.4" r="2.4"/>
<circle class="st11" cx="1040.2" cy="762.4" r="2.4"/>
<circle class="st11" cx="1091.5" cy="776.2" r="2.4"/>
<circle class="st11" cx="1027.6" cy="771.4" r="2.4"/>
<circle class="st11" cx="1114.7" cy="760.2" r="2.4"/>
<circle class="st11" cx="1045.3" cy="773.8" r="2.4"/>
</svg>
