<?xml version="1.0" encoding="utf-8"?>
<!-- Generator: Adobe Illustrator 22.1.0, SVG Export Plug-In . SVG Version: 6.00 Build 0)  -->
<svg version="1.1" id="Layer_1" xmlns="http://www.w3.org/2000/svg" xmlns:xlink="http://www.w3.org/1999/xlink" x="0px" y="0px"
	 viewBox="0 0 500 500" style="enable-background:new 0 0 500 500;" xml:space="preserve">
<style type="text/css">
	.st0{fill:#F4B47A;}
	.st1{fill:#F7F7F7;}
	.st2{fill:#50B5D8;}
	.st3{fill:#D8B679;}
	.st4{opacity:0.29;fill:#231F20;enable-background:new    ;}
	.st5{fill:#4C4C4C;}
	.st6{fill:#DD3333;}
	.st7{opacity:0.5;fill:#3C2415;enable-background:new    ;}
	.st8{fill:#A97C50;}
	.st9{fill:#8DC63F;}
	.st10{fill:#EFE3AF;}
	.st11{fill:#FFFFFF;}
	.st12{fill:#F4EA95;}
	.st13{opacity:0.5;fill:#EF8F60;enable-background:new    ;}
	.st14{fill:#0D4E6B;}
	.st15{opacity:0.5;fill:#603913;enable-background:new    ;}
	.st16{opacity:0.5;fill:#D67B58;enable-background:new    ;}
	.st17{opacity:0.5;fill:#DD825E;enable-background:new    ;}
	.st18{fill:#F7F7F7;stroke:#21409A;stroke-width:5;stroke-miterlimit:10;}
	.st19{fill:none;stroke:#21409A;stroke-width:5;stroke-miterlimit:10;}
	.st20{opacity:0.5;fill:#3C2415;stroke:#603913;stroke-miterlimit:10;enable-background:new    ;}
	.st21{opacity:0.5;fill:none;stroke:#547028;stroke-linecap:round;stroke-miterlimit:10;enable-background:new    ;}
</style>
<circle class="st0" cx="253.8" cy="249" r="194.6"/>
<path class="st1" d="M182.6,130.5c-0.5,0-1.1,0-1.7,0.1c-2.8-2.4-6.5-3.8-10.4-3.8c-3.6,0-6.9,1.2-9.5,3.2
	c-2.8-2.4-6.5-3.8-10.4-3.8c-4.6,0-8.9,2-11.8,5.2c-1.3-0.4-2.8-0.5-4.4-0.5c-8.9,0-16.1,7.1-16.1,16.1c0,8.9,7.1,16.1,16.1,16.1
	c0.5,0,0.9,0,1.5,0c2.9,2.9,7,4.8,11.4,4.8c3.6,0,7-1.2,9.6-3.2c2.6,2,6.1,3.2,9.6,3.2c4.8,0,9-2,11.9-5.3c1.3,0.4,2.8,0.5,4.2,0.5
	c8.9,0,16.1-7.1,16.1-16.1C198.7,137.6,191.5,130.5,182.6,130.5z"/>
<path class="st2" d="M59.7,263.5h388.7c0,0-2,46-24.2,79.5H83.4C83.4,343.1,59.7,300.9,59.7,263.5z"/>
<path class="st3" d="M470,350.6c0-8.9-5.2-16-11.5-16H61.3c-6.3,0-11.5,7.1-11.5,16l0,0l0,0c0,0,0,0,0,0.1c0,1.5,0.1,2.9,0.4,4.4
	c3,18.9,26.3,90.5,203.3,90.5C253.7,445.6,470,445.6,470,350.6L470,350.6L470,350.6z"/>
<g>
	<polygon class="st4" points="104,329.7 106.5,329.2 125.9,378.5 123.3,380.7 	"/>
	<g>
		<path class="st1" d="M89.6,323.4l-25,9.2c2.5,6.7,10,10,17,7.5S92,330,89.6,323.4z"/>
		<g>
			
				<rect x="111.7" y="316.7" transform="matrix(0.9358 -0.3526 0.3526 0.9358 -116.002 62.8032)" class="st5" width="5.4" height="66.3"/>
			<path class="st6" d="M174.8,292.3L174.8,292.3c-14.3-38.6-57.1-58.5-95.7-44.4c-38.6,14-58.5,56.6-44.8,95.1h-0.1
				c3,8.2,12.3,12.3,20.7,9.2c8.2-3,12.4-11.8,9.9-19.7H65l24.6-9c3,7.9,12,11.9,20.2,8.9c8.2-3,12.6-11.8,9.8-19.8L135,307l9.8-3.6
				l-0.9,0.3c3,8.3,12.4,12.4,20.9,9.2C173.2,309.8,178,300.7,174.8,292.3z"/>
			<path class="st1" d="M65,332.6c0,0-29.6-42.3,14.1-84.6c0,0,58.4-4.5,65,55.8L65,332.6z"/>
			<path class="st6" d="M79.8,248c0,0-5.8,34.5,9.9,75.7l30-11C119.7,312.7,105,255.7,79.8,248z"/>
			<path class="st1" d="M144.2,303.7l-24.4,9c2.4,6.5,9.8,9.6,16.5,7.1C143,317.5,146.5,310.2,144.2,303.7z"/>
			<path class="st0" d="M79.8,245.7"/>
			<path class="st7" d="M109.9,332.5c-27.5-24.8-30.1-84.7-30.1-84.7c-38.3,10.6-59.2,56.7-45.6,95.3h-0.1c3,8.2,12.3,12.3,20.7,9.2
				c8.2-3,12.4-11.8,9.9-19.7h0.1l2.1-0.8l-2.1,0.8c2.5,6.6,9.9,9.9,16.6,7.4c6.7-2.5,10.2-9.8,7.8-16.4h0.1
				C92.8,331.5,101.7,335.6,109.9,332.5L109.9,332.5z"/>
		</g>
	</g>
</g>
<circle class="st8" cx="453.9" cy="346.4" r="1.6"/>
<path class="st7" d="M286.2,395.1L121.4,400c-2.2,0.1-3-2.8-1.1-3.8l75.7-41.1c3.6-2,7.5-3,11.8-3.2l166.7-5c2.2-0.1,3,2.8,1.1,3.8
	l-74,40.2C296.8,393.6,291.5,395,286.2,395.1z"/>
<circle class="st8" cx="460.5" cy="348" r="1.6"/>
<path class="st9" d="M371.7,347.4l-61.6,46.6c-4.6,2.6-11.8,3.7-17.2,4L121.7,397c-2.2,0.1-3-2.6-1.2-3.7l75.3-42.1
	c3.6-2,7.5-3.2,11.6-3.3"/>
<path class="st10" d="M306.9,288.6h-62.8c-1.3,0-2.4-1.1-2.4-2.4l0,0c0-1.3,1.1-2.4,2.4-2.4h62.8c1.3,0,2.4,1.1,2.4,2.4l0,0
	C309.4,287.5,308.4,288.6,306.9,288.6z"/>
<path class="st10" d="M294.8,314.9h-30.7c-1.3,0-2.4-1.1-2.4-2.4l0,0c0-1.3,1.1-2.4,2.4-2.4h30.7c1.3,0,2.4,1.1,2.4,2.4l0,0
	C297.2,313.9,296.1,314.9,294.8,314.9z"/>
<path class="st1" d="M342,269.4v-33.3c0,0,12.9,3.8,12.9,22.1L342,269.4z"/>
<path class="st1" d="M355.3,270.3h-22.9c-0.5,0-0.9-0.4-0.9-0.9l0,0c0-0.5,0.4-0.9,0.9-0.9h22.9c0.5,0,0.9,0.4,0.9,0.9l0,0
	C356.2,269.9,355.8,270.3,355.3,270.3z"/>
<path class="st11" d="M390.3,265.3h-15.6l15.2-13.1c0.1-23.5-16.5-28.3-16.5-28.3v41.4h-12.3c-0.7,0-1.2,0.5-1.2,1.2
	c0,0.7,0.5,1.2,1.2,1.2h29.3c0.7,0,1.2-0.5,1.2-1.2C391.5,265.8,391,265.3,390.3,265.3z"/>
<path class="st10" d="M270.2,276.4h-73.7c-1.3,0-2.4-1.1-2.4-2.4l0,0c0-1.3,1.1-2.4,2.4-2.4h73.7c1.3,0,2.4,1.1,2.4,2.4l0,0
	C272.6,275.3,271.5,276.4,270.2,276.4z"/>
<path class="st10" d="M246.3,301.7h-43.7c-1.3,0-2.4-1.1-2.4-2.4l0,0c0-1.3,1.1-2.4,2.4-2.4h43.7c1.3,0,2.4,1.1,2.4,2.4l0,0
	C248.7,300.8,247.6,301.7,246.3,301.7z"/>
<path class="st12" d="M312.9,263.4H193c0-33,26.8-59.9,59.9-59.9S312.9,230.2,312.9,263.4z"/>
<path class="st10" d="M260.2,329.1H248c-1.3,0-2.4-1.1-2.4-2.4l0,0c0-1.3,1.1-2.4,2.4-2.4h12.3c1.3,0,2.4,1.1,2.4,2.4l0,0
	C262.5,328,261.5,329.1,260.2,329.1z"/>
<path class="st10" d="M250.7,314.9H220c-1.3,0-2.4-1.1-2.4-2.4l0,0c0-1.3,1.1-2.4,2.4-2.4h30.7c1.3,0,2.4,1.1,2.4,2.4l0,0
	C253,313.9,252,314.9,250.7,314.9z"/>
<path class="st10" d="M270.3,301.7H258c-1.3,0-2.4-1.1-2.4-2.4l0,0c0-1.3,1.1-2.4,2.4-2.4h12.3c1.3,0,2.4,1.1,2.4,2.4l0,0
	C272.7,300.8,271.7,301.7,270.3,301.7z"/>
<path class="st10" d="M299.8,301.7h-18c-1.3,0-2.4-1.1-2.4-2.4l0,0c0-1.3,1.1-2.4,2.4-2.4h18c1.3,0,2.4,1.1,2.4,2.4l0,0
	C302.2,300.8,301.1,301.7,299.8,301.7z"/>
<path class="st13" d="M180.9,131C180.5,131,181.4,130.9,180.9,131c-2-2.9-7.9-4.4-11.6-4.4c-3.3,0-6.1,1.7-8.5,3.6
	c-2.5-2.2-6.9-4.2-10.4-4.2c-4.2,0-9.1,2.6-11.8,5.5c-1.2-0.4-4.4-0.7-5.8-0.7c-8.1,0-14.5,8.6-14.5,16.9c0,8.3,11.8,8.6,14.5,6.6
	c0,0,2.6,5.3,10.6,5.3c5.4,0,7.4-2.1,9.8-4c2.4,1.8,5.5,3,8.7,3c4.2,0,7.8-2.5,9.9-7.9c1.2,0.4,3.6,0.8,4.8,1.5
	c3.2,1.7,11.5-1.2,14.3-4.6c3-3.7,0.4-14.1-2.9-15.7C185.5,130.6,184.2,131,180.9,131z"/>
<path class="st14" d="M444.1,293.3h-15.7c-1.3,0-2.4-1.1-2.4-2.4l0,0c0-1.3,1.1-2.4,2.4-2.4h16.8L444.1,293.3z"/>
<path class="st14" d="M442.1,301.7h-49.3c-1.3,0-2.4-1.1-2.4-2.4l0,0c0-1.3,1.1-2.4,2.4-2.4h50.5L442.1,301.7z"/>
<path class="st14" d="M439.6,310.3h-27.1c-1.3,0-2.4-1.1-2.4-2.4l0,0c0-1.3,1.1-2.4,2.4-2.4h28.4L439.6,310.3z"/>
<path class="st15" d="M343.8,236.9v30.9l11.1-9.6C354.9,258.1,355.6,242.4,343.8,236.9z"/>
<path class="st15" d="M375.6,224.8v39.6l14.3-12.3C389.9,252,391.4,232.4,375.6,224.8z"/>
<path class="st1" d="M344.1,142.4c0.4,0,0.9,0,1.3,0.1c2.2-1.8,5-3,8.2-3c2.8,0,5.4,0.9,7.5,2.5c2.2-1.8,5-3,8.2-3
	c3.7,0,6.9,1.6,9.2,4c1.1-0.3,2.2-0.5,3.4-0.5c7,0,12.7,5.7,12.7,12.7s-5.7,12.7-12.7,12.7c-0.4,0-0.8,0-1.1,0
	c-2.2,2.2-5.4,3.7-9,3.7c-2.9,0-5.4-0.9-7.5-2.5c-2.1,1.6-4.8,2.5-7.5,2.5c-3.7,0-7-1.6-9.4-4.1c-1.1,0.3-2.1,0.4-3.3,0.4
	c-7,0-12.7-5.7-12.7-12.7S337.1,142.4,344.1,142.4z"/>
<path class="st13" d="M345.4,142.4c3.2-2.8,6.2-3.2,9.1-3.2c2.5,0,4.6,1.2,6.7,2.5c2-1.7,4.9-3,8.2-3s7,1.5,9.2,4
	c0.9-0.3,2.4-0.5,4.5-0.4c6.3,0.3,12.2,6.6,11.5,13.1c-0.7,6.5-9.2,6.7-11.5,5.2c0,0-2.1,4.2-8.3,4.2c-4.2,0-5.8-1.6-7.7-3.2
	c-2,1.5-4.4,2.4-6.9,2.4c-3.3,0-6.1-2-7.8-6.2c-0.9,0.3-2.8,0.7-3.7,1.2c-2.5,1.3-9-0.9-11.2-3.7c-2.4-2.9-1.7-10.8,2.2-12.3
	C341.8,142.2,345,142.1,345.4,142.4z"/>
<path class="st1" d="M249.6,82.3c-0.4,0-0.7,0-0.9,0c-1.7-1.5-3.8-2.2-6.2-2.2c-2.1,0-4.1,0.7-5.7,1.8c-1.7-1.5-3.8-2.2-6.2-2.2
	c-2.8,0-5.2,1.2-7,3c-0.8-0.3-1.7-0.4-2.5-0.4c-5.3,0-9.5,4.2-9.5,9.5s4.2,9.5,9.5,9.5c0.3,0,0.5,0,0.8,0c1.7,1.7,4.1,2.8,6.7,2.8
	c2.1,0,4.1-0.7,5.7-1.8c1.6,1.2,3.6,1.8,5.7,1.8c2.8,0,5.3-1.2,7-3c0.8,0.3,1.6,0.3,2.5,0.3c5.3,0,9.5-4.2,9.5-9.5
	S254.9,82.3,249.6,82.3z"/>
<path class="st16" d="M248.7,82.3c-2.5-2-4.4-2.2-6.5-2.2c-2,0-3.8,0.8-5.3,1.8c-2.5-2.2-5.4-2.2-7.4-2.2c-0.9,0-4.2,1.2-5.7,3
	c-0.8-0.3-2.9-0.5-3.6-0.3c-4.5,1.5-7,5.3-7,10.2c0,4.9,6.9,5.2,8.6,4c0,0,1.6,3.2,6.2,3.2c3.2,0,4.4-1.2,5.8-2.4
	c1.5,1.2,3.3,1.8,5.2,1.8c2.5,0,4.6-1.5,5.8-4.8c0.7,0.3,2.1,0.5,2.8,0.9c1.8,1.1,6.7-0.7,8.5-2.8c1.8-2.1,0.3-8.1-1.7-9
	C252.6,82.7,250.4,82,248.7,82.3z"/>
<path class="st1" d="M282.6,118.9c0.3,0,0.5,0,0.7,0c1.2-1.1,2.8-1.7,4.5-1.7c1.6,0,3,0.5,4.1,1.3c1.2-1.1,2.8-1.7,4.5-1.7
	c2,0,3.8,0.8,5.2,2.2c0.7-0.1,1.2-0.3,1.8-0.3c3.8,0,7,3.2,7,7c0,3.8-3.2,7-7,7c-0.3,0-0.4,0-0.7,0c-1.3,1.3-3,2.1-4.9,2.1
	c-1.6,0-3-0.5-4.2-1.5c-1.2,0.9-2.6,1.5-4.2,1.5c-2,0-3.8-0.9-5.2-2.2c-0.5,0.1-1.2,0.3-1.8,0.3c-3.8,0-7-3.2-7-7
	C275.6,122,278.7,118.9,282.6,118.9z"/>
<path class="st17" d="M283.3,119C283.6,119,283,119,283.3,119c0.9-1.2,3.2-1.7,4.9-1.7c1.6,0,2.6,0.7,3.8,1.5
	c0.4-0.5,2.6-1.8,5.2-1.7c2,0.1,3.3,0.9,4.5,2.2c0.8-0.7,3-0.3,3.7-0.1c2.1,0.4,5.2,3.4,5.2,6.9c0,3.4-3.8,3.7-5.2,2.9
	c0,0-1.2,2.2-5,2.2c-2.5,0-3.4-0.8-4.6-1.6c-1.2,0.8-2.6,1.3-4.1,1.3c-2,0-3.7-1.1-4.6-3.3c-0.5,0.1-1.7,0.4-2.2,0.7
	c-1.5,0.7-5.4-0.5-6.7-2c-1.5-1.6-0.9-4.8,0.5-5.8C279.7,119.4,281.2,118.5,283.3,119z"/>
<ellipse transform="matrix(0.3183 -0.948 0.948 0.3183 -3.5821 616.3994)" class="st18" cx="426.8" cy="310.7" rx="77.4" ry="24.8"/>
<line class="st19" x1="459.4" y1="247.4" x2="414.5" y2="370.2"/>
<line class="st19" x1="439.5" y1="242.3" x2="394.5" y2="365"/>
<path class="st20" d="M453.6,315.3c-12.6,43.6-34.6,75.6-49.2,71.3c-5.9-1.7-9.8-9.2-11.4-20.5l68.8-109.1
	C462.6,272.8,459.9,293.5,453.6,315.3z"/>
<path class="st3" d="M425.1,404.7h-46.9c0-18.8,10.6-34.1,23.5-34.1C414.6,370.6,425.1,385.9,425.1,404.7z"/>
<path class="st3" d="M433,394.1h-14.1c0-9.8,3.2-17.8,7-17.8C429.8,376.2,433,384.3,433,394.1z"/>
<circle class="st8" cx="436.7" cy="399.9" r="1.2"/>
<circle class="st8" cx="447.3" cy="368.1" r="1.2"/>
<circle class="st8" cx="408.5" cy="394.5" r="1.2"/>
<circle class="st8" cx="433" cy="374.7" r="1.2"/>
<circle class="st8" cx="402.6" cy="398.7" r="1.2"/>
<circle class="st8" cx="444.1" cy="393.4" r="1.2"/>
<circle class="st8" cx="410.9" cy="399.9" r="1.2"/>
<g>
	<path class="st3" d="M134.2,378.5l-29.7,11.8c-3.2-8.2,0.8-17.6,9-20.7C121.7,366.3,131.1,370.2,134.2,378.5z"/>
	<circle class="st8" cx="125.4" cy="376.8" r="0.8"/>
	<circle class="st8" cx="128.8" cy="377" r="0.8"/>
	<circle class="st8" cx="127.1" cy="374.5" r="0.8"/>
</g>
<path class="st8" d="M286.3,419.2c0,0,16.1-4,46.2,0C332.6,419.2,306.4,423.2,286.3,419.2z"/>
<path class="st8" d="M241.4,431.7c0,0,13.7-7.4,39.6,0C281,431.7,258.6,439.1,241.4,431.7z"/>
<path class="st8" d="M201.8,416.7c0,0,8.9-2.2,25.9-2.4c7.4-0.1,7.8,5.4,0.5,5.7C216.6,420.4,205.6,419.7,201.8,416.7z"/>
<path class="st21" d="M248,379.3c0,0,4.2-0.8,11.9-0.8c3.4,0,6.9,0.3,10,0.7c5.5,0.7,16.9,2,27,1.7"/>
<path class="st21" d="M221.6,383.4c0,0,3.6-2.2,9.9-2.4c2.9,0,5.7,0.7,8.5,1.8c4.6,2.1,14.3,5.7,22.6,5"/>
</svg>
