<?xml version="1.0" encoding="utf-8"?>
<!-- Generator: Adobe Illustrator 22.1.0, SVG Export Plug-In . SVG Version: 6.00 Build 0)  -->
<svg version="1.1" id="Beer" xmlns="http://www.w3.org/2000/svg" xmlns:xlink="http://www.w3.org/1999/xlink" x="0px" y="0px"
	 viewBox="0 0 1174 886" style="enable-background:new 0 0 1174 886;" xml:space="preserve">
<style type="text/css">
	.st0{fill:#9ED6E5;}
	.st1{fill:#F7F7F7;}
	.st2{fill:#5B5B66;}
	.st3{fill:#3F3F4C;}
	.st4{fill:#303044;}
	.st5{fill:#03B0D8;}
	.st6{fill:#51A34D;}
	.st7{fill:#92EFEA;}
	.st8{fill:#F15A29;}
	.st9{fill:#F7941D;}
	.st10{fill:#FBB040;}
	.st11{fill:#603913;}
	.st12{fill:#006838;}
	.st13{fill:#024F28;}
	.st14{fill:#3C2415;}
	.st15{fill:#11490D;}
	.st16{fill:#404902;}
	.st17{fill:#D0D0D0;}
	.st18{fill:#9D9D9D;}
	.st19{fill:#414042;}
	.st20{fill:#9DD9ED;}
	.st21{fill:#38177F;}
	.st22{fill:none;}
	.st23{fill:#CCCCCC;}
	.st24{fill:#545472;}
	.st25{opacity:0.5;fill:#9D9D9D;}
</style>
<g>
	<circle class="st0" cx="583.7" cy="442.9" r="407.8"/>
	<path class="st1" d="M375.4,581.4l199.3-325.1c16.8-27.4,56.8-26.7,72.6,1.2L833.1,584L375.4,581.4z"/>
	<path class="st2" d="M689.7,331.9c-4.2,2.4-9.1,3.7-14.3,3.7c-7.6,0-14.6-2.9-19.8-7.7c-2.8,14.1-15.3,24.7-30.2,24.7
		c-11.3,0-21.2-6.1-26.6-15.3c-3.9,4-9.3,6.5-15.3,6.5c-11.7,0-21.2-9.5-21.2-21.2c0-1.5,0.1-2.9,0.4-4.3c-3.2,6.1-9.6,10.3-17,10.3
		c-4.8,0-9.2-1.8-12.6-4.7L375.4,581.4l457.7,2.6L689.7,331.9z"/>
	<path class="st1" d="M271.4,586.1l127.5-247.7c10.7-20.9,36.3-20.4,46.5,0.9l118.9,248.8L271.4,586.1z"/>
	<path class="st1" d="M683,581.1l110.7-180.6c9.3-15.2,31.5-14.8,40.4,0.7l103.2,181.4L683,581.1z"/>
	<path class="st3" d="M487.5,424.2c-3.5,1.7-7.4,2.7-11.5,2.7c-10.6,0-19.9-6.4-24.9-15.8c-2.3,1.2-4.8,1.8-7.5,1.8
		c-6.3,0-11.8-3.6-14.6-8.8c-5.1,4.5-11.8,7.2-19.2,7.2c-5.3,0-10.2-1.4-14.5-3.9c-3.3,4.5-8.6,7.4-14.7,7.4
		c-7.2,0-13.4-4.2-16.3-10.2l-92.3,179.3l292.8,2L487.5,424.2z"/>
	<path class="st4" d="M853.5,435.3c-2.3,1.1-4.9,1.8-7.6,1.8c-0.1,0-0.2,0-0.2,0c-1.3,8.4-8.5,14.7-17.3,14.7
		c-3.1,0-5.9-0.8-8.4-2.2c-2.4,2.8-5.9,4.6-9.8,4.6c-5.5,0-10.1-3.4-12-8.2c-3.2,3.6-7.8,5.8-13,5.8c-7.3,0-13.6-4.5-16.2-10.9
		L683,581.1l254.3,1.5L853.5,435.3z"/>
	<path class="st5" d="M226.6,639.7c0,0,101.5,210.9,357.2,210.9c0,0,227.6,15.7,357.2-210.9H226.6z"/>
	<path class="st6" d="M1108.3,639.7H59.2c-16.7,0-30.3-13.6-30.3-30.3v0c0-16.7,13.6-30.3,30.3-30.3h1049.1
		c16.7,0,30.3,13.6,30.3,30.3v0C1138.6,626.2,1125,639.7,1108.3,639.7z"/>
	<path class="st7" d="M622,750.3h-45.5c-3.8,0-6.9-3.1-6.9-6.9l0,0c0-3.8,3.1-6.9,6.9-6.9H622c3.8,0,6.9,3.1,6.9,6.9l0,0
		C628.8,747.2,625.8,750.3,622,750.3z"/>
	<path class="st8" d="M838.8,553.5c0,19.2-15.6,34.7-34.7,34.7c-19.2,0-34.7-15.6-34.7-34.7s34.7-53.7,34.7-53.7
		S838.8,534.3,838.8,553.5z"/>
	<path class="st9" d="M831,561.3c0,14.9-12.1,26.9-26.9,26.9c-14.9,0-26.9-12.1-26.9-26.9s26.9-41.6,26.9-41.6S831,546.4,831,561.3z
		"/>
	<path class="st10" d="M821.4,570.8c0,9.6-7.8,17.4-17.4,17.4c-9.6,0-17.4-7.8-17.4-17.4s17.4-26.8,17.4-26.8
		S821.4,561.2,821.4,570.8z"/>
	<circle class="st11" cx="778.6" cy="588.2" r="8.5"/>
	<circle class="st11" cx="795.6" cy="588.2" r="8.5"/>
	<circle class="st11" cx="812.6" cy="588.2" r="8.5"/>
	<circle class="st11" cx="829.6" cy="588.2" r="8.5"/>
	<path class="st12" d="M1056,429.6l-63.4-62c-9.5-9.3-24.6-9.1-33.9,0.4l0,0l-62,63.4c-9.3,9.5-9.1,24.6,0.4,33.9l0,0
		c9.5,9.3,24.6,9.1,33.9-0.4l45.3-46.3l46.3,45.3c9.5,9.3,24.6,9.1,33.9-0.4v0C1065.6,454,1065.4,438.8,1056,429.6z"/>
	<path class="st13" d="M1063.9,476.8L995.1,408c-10.3-10.3-26.9-10.3-37.2,0l0,0l-68.8,68.8c-10.3,10.3-10.3,26.9,0,37.2h0
		c10.3,10.3,26.9,10.3,37.2,0l50.2-50.2l50.2,50.2c10.3,10.3,26.9,10.3,37.2,0h0C1074.2,503.7,1074.2,487.1,1063.9,476.8z"/>
	<path class="st12" d="M1063.9,520.3l-68.8-68.8c-10.3-10.3-26.9-10.3-37.2,0l0,0l-68.8,68.8c-10.3,10.3-10.3,26.9,0,37.2l0,0
		c10.3,10.3,26.9,10.3,37.2,0l50.2-50.2l50.2,50.2c10.3,10.3,26.9,10.3,37.2,0l0,0C1074.2,547.2,1074.2,530.6,1063.9,520.3z"/>
	<path class="st14" d="M977.4,617.2L977.4,617.2c-7.4,0-13.4-6-13.4-13.4v-71.7c0-7.4,6-13.4,13.4-13.4l0,0c7.4,0,13.4,6,13.4,13.4
		v71.7C990.8,611.2,984.8,617.2,977.4,617.2z"/>
	<path class="st13" d="M1064.8,557.5L996,488.6c-10.3-10.3-26.9-10.3-37.2,0v0l-68.8,68.8c-10.3,10.3-10.3,26.9,0,37.2h0
		c10.3,10.3,26.9,10.3,37.2,0l50.2-50.2l50.2,50.2c10.3,10.3,26.9,10.3,37.2,0h0C1075.1,584.4,1075.1,567.7,1064.8,557.5z"/>
	<path class="st15" d="M1134.6,497.4l-40.6-39.7c-6-5.9-15.8-5.8-21.7,0.2l0,0l-39.7,40.6c-5.9,6-5.8,15.8,0.2,21.7v0
		c6,5.9,15.8,5.8,21.7-0.2l29-29.6l29.6,29c6,5.9,15.8,5.8,21.7-0.2l0,0C1140.7,513,1140.6,503.3,1134.6,497.4z"/>
	<path class="st16" d="M1139.7,527.6l-44-44c-6.6-6.6-17.2-6.6-23.8,0v0l-44,44c-6.6,6.6-6.6,17.2,0,23.8v0c6.6,6.6,17.2,6.6,23.8,0
		l32.1-32.1l32.1,32.1c6.6,6.6,17.2,6.6,23.8,0v0C1146.2,544.8,1146.2,534.2,1139.7,527.6z"/>
	<path class="st15" d="M1139.7,555.4l-44-44c-6.6-6.6-17.2-6.6-23.8,0v0l-44,44c-6.6,6.6-6.6,17.2,0,23.8v0c6.6,6.6,17.2,6.6,23.8,0
		l32.1-32.1l32.1,32.1c6.6,6.6,17.2,6.6,23.8,0v0C1146.2,572.6,1146.2,562,1139.7,555.4z"/>
	<path class="st11" d="M1083.7,630L1083.7,630c-6.2,0-11.3-5-11.3-11.3v-51c0-6.2,5-11.3,11.3-11.3l0,0c6.2,0,11.3,5,11.3,11.3v51
		C1095,625,1090,630,1083.7,630z"/>
	<path class="st16" d="M1140.2,579.2l-44-44c-6.6-6.6-17.2-6.6-23.8,0l0,0l-44,44c-6.6,6.6-6.6,17.2,0,23.8l0,0
		c6.6,6.6,17.2,6.6,23.8,0l32.1-32.1l32.1,32.1c6.6,6.6,17.2,6.6,23.8,0l0,0C1146.8,596.4,1146.8,585.8,1140.2,579.2z"/>
	<path class="st1" d="M232.9,561.3c0,0-9.1-33.5,5.8-57l0,0h233.7l24.3,24.3c40.1-0.8,42.3,19.6,42.3,19.6v13.1"/>
	<path class="st17" d="M457.8,467.5c26.9,0,26.9,36.8,6.5,36.8h-225l0,0c0,0,8.7-23.8,19-24.4l60-1c2-0.1,5.1-1.2,6.8-2.1l8.5-4.8
		c1.8-0.9,8.4-4.5,10-4.2L457.8,467.5z"/>
	<path class="st17" d="M543.3,563v8.8c0,1,0.8,1.8,1.8,1.8l0,0c1,0,1.8,0.8,1.8,1.8v6.4c0,6.5-5.5,11.8-12.4,11.8h-1.1
		c-1,0-1.8-0.8-1.8-1.8v-4c0-12.1-10.3-21.9-23-21.9h-9c-12.7,0-23,9.8-23,21.9v4c0,1-0.8,1.8-1.8,1.8H333.6c-1,0-1.8-0.8-1.8-1.8
		v-4c0-12.1-10.3-21.9-23-21.9h-9c-12.7,0-23,9.8-23,21.9v4c0,1-0.8,1.8-1.8,1.8h-23.3h0c-8.3-7-14.3-16.3-17.4-26.7l-1.6-5.5h308.6
		C542.5,561.3,543.3,562.1,543.3,563z"/>
	<path class="st18" d="M540.5,592.7h5.5c1.2,0,2.3-1,2.3-2.3v-14.9c0-1.2-1-2.3-2.3-2.3h-5.5c-1.2,0-2.3,1-2.3,2.3v14.9
		C538.2,591.7,539.3,592.7,540.5,592.7z"/>
	<ellipse class="st19" cx="503.8" cy="593.5" rx="24.1" ry="22.9"/>
	<ellipse class="st19" cx="304.5" cy="593.5" rx="24.1" ry="22.9"/>
	<ellipse class="st18" cx="503.8" cy="593.5" rx="15.2" ry="14.5"/>
	<ellipse class="st18" cx="304.5" cy="593.5" rx="15.2" ry="14.5"/>
	<ellipse class="st17" cx="503.8" cy="593.5" rx="11.3" ry="10.7"/>
	<ellipse class="st17" cx="304.5" cy="593.5" rx="11.3" ry="10.7"/>
	<path class="st20" d="M466,508.9h5.6l18.2,17.6c0,0,2.3,2.8,0,4.2h-41.4c0,0-6.1,0-7.3-7.8l-1.8-14H466z"/>
	<path class="st20" d="M343.7,527.7h77.2c1.9,0,3.4-1.5,3.4-3.4v-9.4c0-1.9-1.5-3.4-3.4-3.4h-77.2c-1.9,0-3.4,1.5-3.4,3.4v9.4
		C340.3,526.2,341.8,527.7,343.7,527.7z"/>
	<path class="st20" d="M305.9,527.7h14.8c1.9,0,3.5-1.6,3.5-3.5V515c0-1.9-1.6-3.5-3.5-3.5h-14.8c-1.9,0-3.5,1.6-3.5,3.5v9.3
		C302.4,526.2,304,527.7,305.9,527.7z"/>
	<path class="st20" d="M380,483H453c1.2,0,2.1-0.9,2.1-2.1v-5.3c0-1.2-0.9-2.1-2.1-2.1H380c-1.2,0-2.1,0.9-2.1,2.1v5.3
		C377.9,482,378.8,483,380,483z"/>
	<path class="st8" d="M536.1,570.6h6.7c0.5,0,0.8-0.4,0.8-0.8v-20.8c0-0.5-0.4-0.8-0.8-0.8h-6.7c-0.5,0-0.8,0.4-0.8,0.8v20.8
		C535.2,570.2,535.6,570.6,536.1,570.6z"/>
	<path class="st21" d="M385.9,561.3h143.6c0.4,0,0.7-0.3,0.7-0.7v-6.4c0-0.4-0.3-0.7-0.7-0.7H393.8c-1.5,0-2.9,0.6-3.9,1.8l-4.4,4.8
		C385,560.5,385.3,561.3,385.9,561.3z"/>
	<path class="st21" d="M372.6,552.3l15-13.9c1.2-1.1,2.7-1.7,4.2-1.7h117c1.2,0,2.5,0.2,3.7,0.6c0,0,12.5,4.5,17.5,6.1
		c0.3,0.1,0.2,0.6-0.1,0.6H393.1c-1.2,0-2.4,0.5-3.4,1.4l-16,15.8l0,0H233.9v-7.7h135.4C370.5,553.6,371.7,553.1,372.6,552.3z"/>
	<path class="st21" d="M233,545.4h131.4c0.8,0,1.6-0.3,2.2-0.9l5.9-5.5c0.9-0.8,0.3-2.3-0.8-2.3H238.2c-1.9,0-2.1,2.1-3,3.8
		l-2.3,4.6C232.8,545.3,232.9,545.4,233,545.4z"/>
	<polyline class="st22" points="253.3,496.8 333.2,495 345.2,491.9 479.7,488.9 	"/>
	<path class="st18" d="M253.2,470.3l70.9-1.3c1.1,0,2,0.8,2.1,1.9l0,0.4c0,1.1-0.9,1.9-2,2l-2.2,0l0.1,5.6l-2.9,0.1l-0.1-5.6
		l-10.3,0.2l0.1,5.7l-2.9,0.1l-0.1-5.7l-10.3,0.2l0.1,5.6l-2.9,0.1l-0.1-5.6l-10.1,0.2l0.1,5.6l-2.9,0.1l-0.1-5.6l-10.1,0.2l0.1,5.6
		l-2.9,0.1l-0.1-5.6l-8.8,0.2l0.1,5.6l-2.9,0.1l-0.1-5.6l-1.5,0c-1.1,0-2-0.8-2.1-1.9l0-0.4C251.2,471.2,252.1,470.3,253.2,470.3z"
		/>
	<line class="st17" x1="382.3" y1="511.5" x2="382.4" y2="527.7"/>
	<path class="st18" d="M476.6,593.5"/>
	<path class="st10" d="M535.8,570.6h3c0.3,0,0.6-0.3,0.6-0.6v-21.3c0-0.3-0.3-0.6-0.6-0.6h-3c-0.3,0-0.6,0.3-0.6,0.6V570
		C535.2,570.3,535.5,570.6,535.8,570.6z"/>
	<path class="st1" d="M434.5,194.3c-1.2,0-2.3,0.1-3.5,0.2c-5.9-5.1-13.6-8.2-21.9-8.2c-7.5,0-14.4,2.5-20,6.6
		c-5.9-5-13.5-8.1-21.9-8.1c-9.7,0-18.5,4.1-24.6,10.7c-2.9-0.8-5.9-1.2-9-1.2c-18.6,0-33.6,15.1-33.6,33.6
		c0,18.6,15.1,33.6,33.6,33.6c1,0,2-0.1,2.9-0.1c6.1,6.1,14.5,9.9,23.9,9.9c7.6,0,14.6-2.5,20.2-6.8c5.6,4.2,12.6,6.8,20.2,6.8
		c9.8,0,18.7-4.2,24.9-11c2.8,0.8,5.7,1.2,8.8,1.2c18.6,0,33.6-15.1,33.6-33.6C468.2,209.4,453.1,194.3,434.5,194.3z"/>
	<path class="st1" d="M560.4,102.9c-0.8,0-1.5,0-2.2,0.1c-3.8-3.3-8.7-5.2-14.1-5.2c-4.8,0-9.3,1.6-12.9,4.2
		c-3.8-3.2-8.7-5.2-14.1-5.2c-6.3,0-11.9,2.7-15.8,6.9c-1.9-0.5-3.8-0.8-5.8-0.8c-12,0-21.7,9.7-21.7,21.7c0,12,9.7,21.7,21.7,21.7
		c0.6,0,1.3,0,1.9-0.1c3.9,4,9.4,6.4,15.4,6.4c4.9,0,9.4-1.6,13-4.4c3.6,2.7,8.1,4.4,13,4.4c6.3,0,12-2.7,16-7.1
		c1.8,0.5,3.7,0.8,5.7,0.8c12,0,21.7-9.7,21.7-21.7C582,112.6,572.4,102.9,560.4,102.9z"/>
	<path class="st12" d="M192.8,486.2L153.7,448c-5.8-5.7-15.2-5.6-20.9,0.2l0,0l-38.3,39.1c-5.7,5.8-5.6,15.2,0.2,20.9l0,0
		c5.8,5.7,15.2,5.6,20.9-0.2l27.9-28.5l28.5,27.9c5.8,5.7,15.2,5.6,20.9-0.2l0,0C198.8,501.3,198.6,491.9,192.8,486.2z"/>
	<path class="st13" d="M197.7,515.3l-42.4-42.4c-6.3-6.3-16.6-6.3-22.9,0l0,0l-42.4,42.4c-6.3,6.3-6.3,16.6,0,22.9h0
		c6.3,6.3,16.6,6.3,22.9,0l31-31l31,31c6.3,6.3,16.6,6.3,22.9,0h0C204,531.9,204,521.7,197.7,515.3z"/>
	<path class="st12" d="M197.7,542.2l-42.4-42.4c-6.3-6.3-16.6-6.3-22.9,0l0,0l-42.4,42.4c-6.3,6.3-6.3,16.6,0,22.9l0,0
		c6.3,6.3,16.6,6.3,22.9,0l31-31l31,31c6.3,6.3,16.6,6.3,22.9,0l0,0C204,558.8,204,548.5,197.7,542.2z"/>
	<path class="st14" d="M144.4,601.9L144.4,601.9c-4.6,0-8.3-3.7-8.3-8.3v-44.2c0-4.6,3.7-8.3,8.3-8.3h0c4.6,0,8.3,3.7,8.3,8.3v44.2
		C152.6,598.2,148.9,601.9,144.4,601.9z"/>
	<path class="st13" d="M198.3,565.1l-42.4-42.4c-6.3-6.3-16.6-6.3-22.9,0h0l-42.4,42.4c-6.3,6.3-6.3,16.6,0,22.9h0
		c6.3,6.3,16.6,6.3,22.9,0l31-31l31,31c6.3,6.3,16.6,6.3,22.9,0h0C204.6,581.7,204.6,571.4,198.3,565.1z"/>
	<path class="st12" d="M98.3,542.2l-25.2-24.7c-3.8-3.7-9.8-3.6-13.5,0.1h0l-24.7,25.2c-3.7,3.8-3.6,9.8,0.1,13.5h0
		c3.8,3.7,9.8,3.6,13.5-0.1l18-18.4l18.4,18c3.8,3.7,9.8,3.6,13.5-0.1h0C102.1,551.9,102,545.9,98.3,542.2z"/>
	<path class="st13" d="M101.4,561l-27.4-27.4c-4.1-4.1-10.7-4.1-14.8,0l0,0L31.9,561c-4.1,4.1-4.1,10.7,0,14.8h0
		c4.1,4.1,10.7,4.1,14.8,0l20-20l20,20c4.1,4.1,10.7,4.1,14.8,0h0C105.5,571.7,105.5,565.1,101.4,561z"/>
	<path class="st12" d="M101.4,578.3l-27.4-27.4c-4.1-4.1-10.7-4.1-14.8,0h0l-27.4,27.4c-4.1,4.1-4.1,10.7,0,14.8h0
		c4.1,4.1,10.7,4.1,14.8,0l20-20l20,20c4.1,4.1,10.7,4.1,14.8,0h0C105.5,589,105.5,582.4,101.4,578.3z"/>
	<path class="st14" d="M67,616.8L67,616.8c-3,0-5.3-2.4-5.3-5.3V583c0-3,2.4-5.3,5.3-5.3h0c3,0,5.3,2.4,5.3,5.3v28.5
		C72.4,614.4,70,616.8,67,616.8z"/>
	<path class="st13" d="M101.8,593.1l-27.4-27.4c-4.1-4.1-10.7-4.1-14.8,0h0l-27.4,27.4c-4.1,4.1-4.1,10.7,0,14.8l0,0
		c4.1,4.1,10.7,4.1,14.8,0l20-20l20,20c4.1,4.1,10.7,4.1,14.8,0l0,0C105.9,603.8,105.9,597.2,101.8,593.1z"/>
	<path class="st1" d="M675.5,174.2c-0.4,0-0.8,0-1.2,0.1c-2-1.7-4.7-2.8-7.5-2.8c-2.6,0-4.9,0.8-6.9,2.3c-2-1.7-4.6-2.8-7.5-2.8
		c-3.3,0-6.3,1.4-8.4,3.7c-1-0.3-2-0.4-3.1-0.4c-6.4,0-11.5,5.2-11.5,11.5c0,6.4,5.2,11.5,11.5,11.5c0.3,0,0.7,0,1,0
		c2.1,2.1,5,3.4,8.2,3.4c2.6,0,5-0.9,6.9-2.3c1.9,1.5,4.3,2.3,6.9,2.3c3.4,0,6.4-1.5,8.5-3.8c1,0.3,2,0.4,3,0.4
		c6.4,0,11.5-5.2,11.5-11.5C687.1,179.4,681.9,174.2,675.5,174.2z"/>
	<path class="st23" d="M706.3,394.3L706.3,394.3c-2.1,1.1-4.7,0.2-5.8-1.9l-14-27.5c-1.1-2.1-0.2-4.7,1.9-5.8l0,0
		c2.1-1.1,4.7-0.2,5.8,1.9l14,27.5C709.2,390.7,708.4,393.3,706.3,394.3z"/>
	<path class="st23" d="M709.1,451.2L709.1,451.2c-2.1,1.1-4.7,0.2-5.8-1.9L675.6,395c-1.1-2.1-0.2-4.7,1.9-5.8l0,0
		c2.1-1.1,4.7-0.2,5.8,1.9l27.7,54.4C712.1,447.6,711.2,450.1,709.1,451.2z"/>
	<path class="st24" d="M750.9,497.1L750.9,497.1c2.1,1.2,4.7,0.5,5.9-1.6l17.4-30.2c1.2-2.1,0.5-4.7-1.6-5.9l0,0
		c-2.1-1.2-4.7-0.5-5.9,1.6l-17.4,30.2C748.2,493.3,748.9,495.9,750.9,497.1z"/>
	<path class="st24" d="M753.1,529.2L753.1,529.2c2.1,1.2,4.7,0.5,5.9-1.6l8.7-15.1c1.2-2.1,0.5-4.7-1.6-5.9v0
		c-2.1-1.2-4.7-0.5-5.9,1.6l-8.7,15.1C750.3,525.4,751,528,753.1,529.2z"/>
	<path class="st7" d="M591.7,690.2H413.5c-3.7,0-6.8-3-6.8-6.8v-0.2c0-3.7,3-6.8,6.8-6.8h178.2c3.7,0,6.8,3,6.8,6.8v0.2
		C598.5,687.2,595.4,690.2,591.7,690.2z"/>
	<path class="st7" d="M722.9,690.2h-99.4c-3.8,0-6.9-3.1-6.9-6.9l0,0c0-3.8,3.1-6.9,6.9-6.9h99.4c3.8,0,6.9,3.1,6.9,6.9l0,0
		C729.8,687.1,726.7,690.2,722.9,690.2z"/>
	<path class="st7" d="M547.1,750.3h-99.4c-3.8,0-6.9-3.1-6.9-6.9l0,0c0-3.8,3.1-6.9,6.9-6.9h99.4c3.8,0,6.9,3.1,6.9,6.9l0,0
		C554,747.2,550.9,750.3,547.1,750.3z"/>
	<path class="st7" d="M704,750.3h-45.5c-3.8,0-6.9-3.1-6.9-6.9l0,0c0-3.8,3.1-6.9,6.9-6.9H704c3.8,0,6.9,3.1,6.9,6.9l0,0
		C710.9,747.2,707.8,750.3,704,750.3z"/>
	<path class="st7" d="M750.5,691.4L750.5,691.4c-3.8,0-6.9-3.1-6.9-6.9l0,0c0-3.8,3.1-6.9,6.9-6.9l0,0c3.8,0,6.9,3.1,6.9,6.9l0,0
		C757.3,688.3,754.3,691.4,750.5,691.4z"/>
	<path class="st7" d="M608.2,810.3h-99.4c-3.8,0-6.9-3.1-6.9-6.9v0c0-3.8,3.1-6.9,6.9-6.9h99.4c3.8,0,6.9,3.1,6.9,6.9v0
		C615.1,807.3,612,810.3,608.2,810.3z"/>
	<path class="st7" d="M655.3,810.3H635c-3.8,0-6.9-3.1-6.9-6.9v0c0-3.8,3.1-6.9,6.9-6.9h20.3c3.8,0,6.9,3.1,6.9,6.9v0
		C662.2,807.3,659.1,810.3,655.3,810.3z"/>
	<path class="st25" d="M238.7,504.4c-15,23.4-5.8,57-5.8,57l1.6,5.5c3,10.4,9.1,19.7,17.4,26.7h23.3c1,0,1.8-0.8,1.8-1.8v-4
		c0-12.1,10.3-21.9,23-21.9h9c12.7,0,23,9.8,23,21.9v4c0,1,0.8,1.8,1.8,1.8h141.3c1,0,1.8-0.8,1.8-1.8v-4c0-12.1,10.3-21.9,23-21.9
		L238.7,504.4z"/>
</g>
</svg>
