<?xml version="1.0" encoding="utf-8"?>
<!-- Generator: Adobe Illustrator 22.1.0, SVG Export Plug-In . SVG Version: 6.00 Build 0)  -->
<svg version="1.1" id="Layer_1" xmlns="http://www.w3.org/2000/svg" xmlns:xlink="http://www.w3.org/1999/xlink" x="0px" y="0px"
	 viewBox="0 0 500 500" style="enable-background:new 0 0 500 500;" xml:space="preserve">
<style type="text/css">
	.st0{fill:#9ED6E5;}
	.st1{fill:#F7F7F7;}
	.st2{fill:#5B5B66;}
	.st3{fill:#3F3F4C;}
	.st4{fill:#303044;}
	.st5{fill:#03B0D8;}
	.st6{fill:#51A34D;}
	.st7{fill:#92EFEA;}
	.st8{fill:#F15A29;}
	.st9{fill:#F7941D;}
	.st10{fill:#FBB040;}
	.st11{fill:#603913;}
	.st12{fill:#006838;}
	.st13{fill:#024F28;}
	.st14{fill:#3C2415;}
	.st15{fill:#11490D;}
	.st16{fill:#404902;}
	.st17{fill:#D0D0D0;}
	.st18{fill:#9D9D9D;}
	.st19{fill:#414042;}
	.st20{fill:#9DD9ED;}
	.st21{fill:#38177F;}
	.st22{fill:none;}
	.st23{fill:#CCCCCC;}
	.st24{fill:#545472;}
	.st25{fill:#CC903A;stroke:#6B3F18;stroke-miterlimit:10;}
	.st26{opacity:0.5;fill:#9D9D9D;enable-background:new    ;}
	.st27{fill:#002738;}
	.st28{fill:#22006B;}
	.st29{fill:#8C6128;}
</style>
<g>
	<circle class="st0" cx="250.5" cy="236.2" r="195.2"/>
	<path class="st1" d="M150.8,302.5l95.4-155.6c8-13.1,27.2-12.8,34.7,0.6l88.9,156.3L150.8,302.5z"/>
	<path class="st2" d="M301.2,183.1c-2,1.1-4.4,1.8-6.8,1.8c-3.6,0-7-1.4-9.5-3.7c-1.3,6.7-7.3,11.8-14.5,11.8
		c-5.4,0-10.1-2.9-12.7-7.3c-1.9,1.9-4.5,3.1-7.3,3.1c-5.6,0-10.1-4.5-10.1-10.1c0-0.7,0-1.4,0.2-2.1c-1.5,2.9-4.6,4.9-8.1,4.9
		c-2.3,0-4.4-0.9-6-2.2l-75.5,123.3l219.1,1.2L301.2,183.1z"/>
	<path class="st1" d="M101,304.7l61-118.6c5.1-10,17.4-9.8,22.3,0.4l56.9,119.1L101,304.7z"/>
	<path class="st1" d="M298,302.3l53-86.4c4.5-7.3,15.1-7.1,19.3,0.3l49.4,86.8L298,302.3z"/>
	<path class="st3" d="M204.5,227.2c-1.7,0.8-3.5,1.3-5.5,1.3c-5.1,0-9.5-3.1-11.9-7.6c-1.1,0.6-2.3,0.9-3.6,0.9c-3,0-5.6-1.7-7-4.2
		c-2.4,2.2-5.6,3.4-9.2,3.4c-2.5,0-4.9-0.7-6.9-1.9c-1.6,2.2-4.1,3.5-7,3.5c-3.4,0-6.4-2-7.8-4.9l-44.2,85.8l140.1,1L204.5,227.2z"
		/>
	<path class="st4" d="M379.6,232.6c-1.1,0.5-2.3,0.9-3.6,0.9c0,0-0.1,0-0.1,0c-0.6,4-4.1,7-8.3,7c-1.5,0-2.8-0.4-4-1.1
		c-1.1,1.3-2.8,2.2-4.7,2.2c-2.6,0-4.8-1.6-5.7-3.9c-1.5,1.7-3.7,2.8-6.2,2.8c-3.5,0-6.5-2.2-7.8-5.2L298,302.3l121.7,0.7
		L379.6,232.6z"/>
	<path class="st5" d="M79.6,330.4c0,0,48.6,100.9,171,100.9c0,0,108.9,7.5,171-100.9L79.6,330.4L79.6,330.4z"/>
	<path class="st6" d="M465.2,330.4h-423c-6.7,0-12.2-6.5-12.2-14.5l0,0c0-8,5.5-14.5,12.2-14.5h423c6.7,0,12.2,6.5,12.2,14.5l0,0
		C477.4,323.9,471.9,330.4,465.2,330.4z"/>
	<path class="st7" d="M221.2,383.3h-21.8c-1.8,0-3.3-1.5-3.3-3.3l0,0c0-1.8,1.5-3.3,3.3-3.3h21.8c1.8,0,3.3,1.5,3.3,3.3l0,0
		C224.5,381.8,223,383.3,221.2,383.3z"/>
	<path class="st8" d="M324.4,311.1c0,5.8-4.7,10.6-10.6,10.6c-5.8,0-10.6-4.7-10.6-10.6s10.6-16.3,10.6-16.3
		S324.4,305.3,324.4,311.1z"/>
	<path class="st9" d="M322,313.5c0,4.5-3.7,8.2-8.2,8.2c-4.5,0-8.2-3.7-8.2-8.2s8.2-12.6,8.2-12.6S322,308.9,322,313.5z"/>
	<path class="st10" d="M319.1,316.4c0,2.9-2.4,5.3-5.3,5.3c-2.9,0-5.3-2.4-5.3-5.3c0-2.9,5.3-8.1,5.3-8.1S319.1,313.4,319.1,316.4z"
		/>
	<circle class="st11" cx="306.1" cy="321.7" r="2.6"/>
	<circle class="st11" cx="311.3" cy="321.7" r="2.6"/>
	<circle class="st11" cx="316.4" cy="321.7" r="2.6"/>
	<circle class="st11" cx="321.6" cy="321.7" r="2.6"/>
	<path class="st12" d="M428.7,257.7l-19.2-18.8c-2.9-2.8-7.5-2.8-10.3,0.1l0,0l-18.8,19.2c-2.8,2.9-2.8,7.5,0.1,10.3l0,0
		c2.9,2.8,7.5,2.8,10.3-0.1l13.8-14.1l14.1,13.8c2.9,2.8,7.5,2.8,10.3-0.1l0,0C431.6,265.1,431.5,260.5,428.7,257.7z"/>
	<path class="st13" d="M431.1,272l-20.9-20.9c-3.1-3.1-8.2-3.1-11.3,0l0,0L378,272c-3.1,3.1-3.1,8.2,0,11.3l0,0
		c3.1,3.1,8.2,3.1,11.3,0l15.2-15.2l15.2,15.2c3.1,3.1,8.2,3.1,11.3,0l0,0C434.2,280.2,434.2,275.2,431.1,272z"/>
	<path class="st12" d="M431.1,285.2l-20.9-20.9c-3.1-3.1-8.2-3.1-11.3,0l0,0L378,285.2c-3.1,3.1-3.1,8.2,0,11.3l0,0
		c3.1,3.1,8.2,3.1,11.3,0l15.2-15.2l15.2,15.2c3.1,3.1,8.2,3.1,11.3,0l0,0C434.2,293.4,434.2,288.4,431.1,285.2z"/>
	<path class="st14" d="M404.8,314.6L404.8,314.6c-2.2,0-4.1-1.8-4.1-4.1v-21.8c0-2.2,1.8-4.1,4.1-4.1l0,0c2.2,0,4.1,1.8,4.1,4.1
		v21.8C408.9,312.8,407.1,314.6,404.8,314.6z"/>
	<path class="st13" d="M431.3,296.5l-20.9-20.9c-3.1-3.1-8.2-3.1-11.3,0l0,0l-20.9,20.9c-3.1,3.1-3.1,8.2,0,11.3l0,0
		c3.1,3.1,8.2,3.1,11.3,0l15.2-15.2l15.2,15.2c3.1,3.1,8.2,3.1,11.3,0l0,0C434.5,304.7,434.5,299.6,431.3,296.5z"/>
	<path class="st15" d="M452.5,278.3l-12.3-12.1c-1.8-1.8-4.8-1.8-6.6,0.1l0,0l-12.1,12.3c-1.8,1.8-1.8,4.8,0.1,6.6l0,0
		c1.8,1.8,4.8,1.8,6.6-0.1l8.8-9l9,8.8c1.8,1.8,4.8,1.8,6.6-0.1l0,0C454.4,283,454.4,280.1,452.5,278.3z"/>
	<path class="st16" d="M454.1,287.4l-13.4-13.4c-2-2-5.2-2-7.2,0l0,0l-13.4,13.4c-2,2-2,5.2,0,7.2l0,0c2,2,5.2,2,7.2,0l9.7-9.7
		l9.7,9.7c2,2,5.2,2,7.2,0l0,0C456.1,292.7,456.1,289.4,454.1,287.4z"/>
	<path class="st15" d="M454.1,295.9l-13.4-13.4c-2-2-5.2-2-7.2,0l0,0l-13.4,13.4c-2,2-2,5.2,0,7.2l0,0c2,2,5.2,2,7.2,0l9.7-9.7
		l9.7,9.7c2,2,5.2,2,7.2,0l0,0C456.1,301.1,456.1,297.9,454.1,295.9z"/>
	<path class="st11" d="M437.1,318.5L437.1,318.5c-1.9,0-3.4-1.5-3.4-3.4v-15.5c0-1.9,1.5-3.4,3.4-3.4l0,0c1.9,0,3.4,1.5,3.4,3.4
		v15.5C440.5,317,439,318.5,437.1,318.5z"/>
	<path class="st16" d="M454.2,303.1l-13.4-13.4c-2-2-5.2-2-7.2,0l0,0l-13.4,13.4c-2,2-2,5.2,0,7.2l0,0c2,2,5.2,2,7.2,0l9.7-9.7
		l9.7,9.7c2,2,5.2,2,7.2,0l0,0C456.2,308.3,456.2,305.1,454.2,303.1z"/>
	<path class="st1" d="M130,297.8c0,0-3.8-13.9,2.4-23.7l0,0h97.2l10.1,10.1c16.7-0.3,17.6,8.1,17.6,8.1v5.4"/>
	<path class="st17" d="M223.5,258.8c11.2,0,11.2,15.3,2.7,15.3h-93.5l0,0c0,0,3.6-9.9,7.9-10.1l24.9-0.4c0.8,0,2.1-0.5,2.8-0.9
		l3.5-2c0.7-0.4,3.5-1.9,4.2-1.7L223.5,258.8z"/>
	<path class="st17" d="M259.1,298.5v3.7c0,0.4,0.3,0.7,0.7,0.7l0,0c0.4,0,0.7,0.3,0.7,0.7v2.7c0,2.7-2.3,4.9-5.2,4.9H255
		c-0.4,0-0.7-0.3-0.7-0.7v-1.7c0-5-4.3-9.1-9.6-9.1h-3.7c-5.3,0-9.6,4.1-9.6,9.1v1.7c0,0.4-0.3,0.7-0.7,0.7h-58.7
		c-0.4,0-0.7-0.3-0.7-0.7v-1.7c0-5-4.3-9.1-9.6-9.1h-3.7c-5.3,0-9.6,4.1-9.6,9.1v1.7c0,0.4-0.3,0.7-0.7,0.7h-9.7l0,0
		c-3.5-2.9-5.9-6.8-7.2-11.1l-0.7-2.3h128.3C258.8,297.8,259.1,298.1,259.1,298.5z"/>
	<path class="st18" d="M257.9,310.8h2.3c0.5,0,1-0.4,1-1v-6.2c0-0.5-0.4-1-1-1h-2.3c-0.5,0-1,0.4-1,1v6.2
		C257,310.4,257.4,310.8,257.9,310.8z"/>
	<ellipse class="st19" cx="242.7" cy="311.2" rx="10" ry="9.5"/>
	<ellipse class="st19" cx="159.8" cy="311.2" rx="10" ry="9.5"/>
	<ellipse class="st18" cx="242.7" cy="311.2" rx="6.3" ry="6"/>
	<ellipse class="st18" cx="159.8" cy="311.2" rx="6.3" ry="6"/>
	<ellipse class="st17" cx="242.7" cy="311.2" rx="4.7" ry="4.4"/>
	<ellipse class="st17" cx="159.8" cy="311.2" rx="4.7" ry="4.4"/>
	<path class="st20" d="M227,276h2.3l7.6,7.3c0,0,1,1.2,0,1.7h-17.2c0,0-2.5,0-3-3.2l-0.7-5.8H227L227,276z"/>
	<path class="st20" d="M176.1,283.8h32.1c0.8,0,1.4-0.6,1.4-1.4v-3.9c0-0.8-0.6-1.4-1.4-1.4h-32.1c-0.8,0-1.4,0.6-1.4,1.4v3.9
		C174.7,283.2,175.3,283.8,176.1,283.8z"/>
	<path class="st20" d="M160.4,283.8h6.2c0.8,0,1.5-0.7,1.5-1.5v-3.8c0-0.8-0.7-1.5-1.5-1.5h-6.2c-0.8,0-1.5,0.7-1.5,1.5v3.9
		C158.9,283.2,159.6,283.8,160.4,283.8z"/>
	<path class="st20" d="M191.2,265.2h30.3c0.5,0,0.9-0.4,0.9-0.9v-2.2c0-0.5-0.4-0.9-0.9-0.9h-30.3c-0.5,0-0.9,0.4-0.9,0.9v2.2
		C190.3,264.8,190.7,265.2,191.2,265.2z"/>
	<path class="st8" d="M256.1,301.6h2.8c0.2,0,0.3-0.2,0.3-0.3v-8.6c0-0.2-0.2-0.3-0.3-0.3h-2.8c-0.2,0-0.3,0.2-0.3,0.3v8.6
		C255.7,301.5,255.9,301.6,256.1,301.6z"/>
	<path class="st21" d="M193.7,297.8h59.7c0.2,0,0.3-0.1,0.3-0.3v-2.7c0-0.2-0.1-0.3-0.3-0.3h-56.4c-0.6,0-1.2,0.2-1.6,0.7l-1.8,2
		C193.3,297.4,193.4,297.8,193.7,297.8z"/>
	<path class="st21" d="M188.1,294l6.2-5.8c0.5-0.5,1.1-0.7,1.7-0.7h48.6c0.5,0,1,0.1,1.5,0.2c0,0,5.2,1.9,7.3,2.5
		c0.1,0,0.1,0.2,0,0.2h-56.9c-0.5,0-1,0.2-1.4,0.6l-6.7,6.6l0,0h-58.1v-3.2h56.3C187.2,294.6,187.7,294.4,188.1,294z"/>
	<path class="st21" d="M130.1,291.2h54.6c0.3,0,0.7-0.1,0.9-0.4l2.5-2.3c0.4-0.3,0.1-1-0.3-1h-55.5c-0.8,0-0.9,0.9-1.2,1.6l-1,1.9
		C130,291.1,130,291.2,130.1,291.2z"/>
	<polyline class="st22" points="138.5,271 171.7,270.2 176.7,268.9 232.6,267.7 	"/>
	<path class="st18" d="M138.5,259.9l29.5-0.5c0.5,0,0.8,0.3,0.9,0.8v0.2c0,0.5-0.4,0.8-0.8,0.8h-0.9l0,2.3l-1.2,0l0-2.3l-4.3,0.1
		l0,2.4l-1.2,0l0-2.4l-4.3,0.1l0,2.3l-1.2,0l0-2.3l-4.2,0.1l0,2.3l-1.2,0l0-2.3l-4.2,0.1l0,2.3l-1.2,0l0-2.3l-3.7,0.1l0,2.3l-1.2,0
		l0-2.3h-0.6c-0.5,0-0.8-0.3-0.9-0.8v-0.2C137.6,260.3,138,259.9,138.5,259.9z"/>
	<line class="st22" x1="192.2" y1="277.1" x2="192.2" y2="283.8"/>
	<path class="st18" d="M231.4,311.2"/>
	<path class="st10" d="M256,301.6h1.2c0.1,0,0.2-0.1,0.2-0.2v-8.9c0-0.1-0.1-0.2-0.2-0.2H256c-0.1,0-0.2,0.1-0.2,0.2v8.9
		C255.7,301.5,255.8,301.6,256,301.6z"/>
	<path class="st1" d="M179.1,117.2c-0.6,0-1.1,0-1.7,0.1c-2.8-2.4-6.5-3.9-10.5-3.9c-3.6,0-6.9,1.2-9.6,3.2
		c-2.8-2.4-6.5-3.9-10.5-3.9c-4.6,0-8.9,2-11.8,5.1c-1.4-0.4-2.8-0.6-4.3-0.6c-8.9,0-16.1,7.2-16.1,16.1c0,8.9,7.2,16.1,16.1,16.1
		c0.5,0,1,0,1.4,0c2.9,2.9,6.9,4.7,11.4,4.7c3.6,0,7-1.2,9.7-3.3c2.7,2,6,3.3,9.7,3.3c4.7,0,9-2,11.9-5.3c1.3,0.4,2.7,0.6,4.2,0.6
		c8.9,0,16.1-7.2,16.1-16.1C195.2,124.4,188,117.2,179.1,117.2z"/>
	<path class="st1" d="M239.3,73.5c-0.4,0-0.7,0-1.1,0c-1.8-1.6-4.2-2.5-6.7-2.5c-2.3,0-4.5,0.8-6.2,2c-1.8-1.5-4.2-2.5-6.7-2.5
		c-3,0-5.7,1.3-7.6,3.3c-0.9-0.2-1.8-0.4-2.8-0.4c-5.7,0-10.4,4.6-10.4,10.4s4.6,10.4,10.4,10.4c0.3,0,0.6,0,0.9,0
		c1.9,1.9,4.5,3.1,7.4,3.1c2.3,0,4.5-0.8,6.2-2.1c1.7,1.3,3.9,2.1,6.2,2.1c3,0,5.7-1.3,7.7-3.4c0.9,0.2,1.8,0.4,2.7,0.4
		c5.7,0,10.4-4.6,10.4-10.4C249.7,78.1,245.1,73.5,239.3,73.5z"/>
	<path class="st12" d="M120.3,252.9l-19-18.6c-2.8-2.8-7.4-2.7-10.2,0.1l0,0l-18.7,19c-2.8,2.8-2.7,7.4,0.1,10.2l0,0
		c2.8,2.8,7.4,2.7,10.2-0.1l13.6-13.9l13.9,13.6c2.8,2.8,7.4,2.7,10.2-0.1l0,0C123.2,260.3,123.1,255.7,120.3,252.9z"/>
	<path class="st13" d="M122.6,267.1L102,246.4c-3.1-3.1-8.1-3.1-11.2,0l0,0l-20.7,20.7c-3.1,3.1-3.1,8.1,0,11.2l0,0
		c3.1,3.1,8.1,3.1,11.2,0l15.1-15.1l15.1,15.1c3.1,3.1,8.1,3.1,11.2,0l0,0C125.7,275.2,125.7,270.2,122.6,267.1z"/>
	<path class="st12" d="M122.6,280.2L102,259.6c-3.1-3.1-8.1-3.1-11.2,0l0,0l-20.7,20.7c-3.1,3.1-3.1,8.1,0,11.2l0,0
		c3.1,3.1,8.1,3.1,11.2,0l15.1-15.1l15.1,15.1c3.1,3.1,8.1,3.1,11.2,0l0,0C125.7,288.3,125.7,283.3,122.6,280.2z"/>
	<path class="st14" d="M96.7,309.3L96.7,309.3c-2.2,0-4-1.8-4-4v-21.5c0-2.2,1.8-4,4-4l0,0c2.2,0,4,1.8,4,4v21.5
		C100.7,307.5,98.9,309.3,96.7,309.3z"/>
	<path class="st13" d="M122.9,291.4l-20.7-20.7c-3.1-3.1-8.1-3.1-11.2,0l0,0l-20.7,20.7c-3.1,3.1-3.1,8.1,0,11.2l0,0
		c3.1,3.1,8.1,3.1,11.2,0l15.1-15.1l15.1,15.1c3.1,3.1,8.1,3.1,11.2,0l0,0C126,299.4,126,294.4,122.9,291.4z"/>
	<path class="st12" d="M74.2,280.2l-12.3-12c-1.9-1.8-4.8-1.8-6.6,0l0,0l-12,12.3c-1.8,1.9-1.8,4.8,0,6.6l0,0c1.9,1.8,4.8,1.8,6.6,0
		l8.8-9l9,8.8c1.9,1.8,4.8,1.8,6.6,0l0,0C76.1,284.9,76,282,74.2,280.2z"/>
	<path class="st13" d="M75.7,289.4L62.4,276c-2-2-5.2-2-7.2,0l0,0l-13.3,13.3c-2,2-2,5.2,0,7.2l0,0c2,2,5.2,2,7.2,0l9.7-9.7l9.7,9.7
		c2,2,5.2,2,7.2,0l0,0C77.7,294.6,77.7,291.4,75.7,289.4z"/>
	<path class="st12" d="M75.7,297.8l-13.3-13.3c-2-2-5.2-2-7.2,0l0,0l-13.3,13.3c-2,2-2,5.2,0,7.2l0,0c2,2,5.2,2,7.2,0l9.7-9.7
		l9.7,9.7c2,2,5.2,2,7.2,0l0,0C77.7,303,77.7,299.8,75.7,297.8z"/>
	<path class="st14" d="M59,316.5L59,316.5c-1.5,0-2.6-1.2-2.6-2.6v-13.9c0-1.5,1.2-2.6,2.6-2.6l0,0c1.5,0,2.6,1.2,2.6,2.6V314
		C61.6,315.4,60.4,316.5,59,316.5z"/>
	<path class="st13" d="M75.9,305l-13.3-13.3c-2-2-5.2-2-7.2,0l0,0L42,305c-2,2-2,5.2,0,7.2l0,0c2,2,5.2,2,7.2,0l9.7-9.7l9.7,9.7
		c2,2,5.2,2,7.2,0l0,0C77.9,310.2,77.9,307,75.9,305z"/>
	<path class="st1" d="M294.4,107.6c-0.2,0-0.4,0-0.6,0c-1-0.8-2.2-1.3-3.6-1.3c-1.2,0-2.3,0.4-3.3,1.1c-1-0.8-2.2-1.3-3.6-1.3
		c-1.6,0-3,0.7-4,1.8c-0.5-0.1-1-0.2-1.5-0.2c-3.1,0-5.5,2.5-5.5,5.5c0,3.1,2.5,5.5,5.5,5.5c0.1,0,0.3,0,0.5,0c1,1,2.4,1.6,3.9,1.6
		c1.2,0,2.4-0.4,3.3-1.1c0.9,0.7,2.1,1.1,3.3,1.1c1.6,0,3.1-0.7,4.1-1.8c0.5,0.1,1,0.2,1.4,0.2c3.1,0,5.5-2.5,5.5-5.5
		C300,110.1,297.5,107.6,294.4,107.6z"/>
	<path class="st23" d="M309.2,212.9L309.2,212.9c-1,0.5-2.2,0.1-2.8-0.9l-6.7-13.2c-0.5-1-0.1-2.2,0.9-2.8l0,0
		c1-0.5,2.2-0.1,2.8,0.9l6.7,13.2C310.6,211.2,310.2,212.5,309.2,212.9z"/>
	<path class="st23" d="M310.5,240.2L310.5,240.2c-1,0.5-2.2,0.1-2.8-0.9l-13.3-26c-0.5-1-0.1-2.2,0.9-2.8l0,0c1-0.5,2.2-0.1,2.8,0.9
		l13.3,26C312,238.4,311.5,239.6,310.5,240.2z"/>
	<path class="st24" d="M330.5,262.1L330.5,262.1c1,0.6,2.2,0.2,2.8-0.8l8.3-14.5c0.6-1,0.2-2.2-0.8-2.8l0,0c-1-0.6-2.2-0.2-2.8,0.8
		l-8.3,14.5C329.2,260.3,329.6,261.6,330.5,262.1z"/>
	<path class="st24" d="M331.6,277.5L331.6,277.5c1,0.6,2.2,0.2,2.8-0.8l4.2-7.2c0.6-1,0.2-2.2-0.8-2.8l0,0c-1-0.6-2.2-0.2-2.8,0.8
		l-4.2,7.2C330.2,275.7,330.6,276.9,331.6,277.5z"/>
	<path class="st7" d="M384.2,367.5h-85.3c-1.8,0-3.3-1.4-3.3-3.3v-0.1c0-1.8,1.4-3.3,3.3-3.3h85.3c1.8,0,3.3,1.4,3.3,3.3v0.1
		C387.5,366.1,386,367.5,384.2,367.5z"/>
	<path class="st7" d="M393.6,354.6H346c-1.8,0-3.3-1.5-3.3-3.3l0,0c0-1.8,1.5-3.3,3.3-3.3h47.6c1.8,0,3.3,1.5,3.3,3.3l0,0
		C396.9,353.1,395.4,354.6,393.6,354.6z"/>
	<path class="st7" d="M182.5,383.3h-47.6c-1.8,0-3.3-1.5-3.3-3.3l0,0c0-1.8,1.5-3.3,3.3-3.3h47.6c1.8,0,3.3,1.5,3.3,3.3l0,0
		C185.8,381.8,184.3,383.3,182.5,383.3z"/>
	<path class="st7" d="M195.5,397.8h-21.8c-1.8,0-3.3-1.5-3.3-3.3l0,0c0-1.8,1.5-3.3,3.3-3.3h21.8c1.8,0,3.3,1.5,3.3,3.3l0,0
		C198.8,396.3,197.3,397.8,195.5,397.8z"/>
	<path class="st7" d="M330.3,355.1L330.3,355.1c-1.8,0-3.3-1.5-3.3-3.3l0,0c0-1.8,1.5-3.3,3.3-3.3l0,0c1.8,0,3.3,1.5,3.3,3.3l0,0
		C333.6,353.7,332.2,355.1,330.3,355.1z"/>
	<path class="st25" d="M273.7,356l-0.2-0.2l-4-3.8l-0.2-0.2c-1.3-1.2-3.4-1.2-4.6,0.1c-1.2,1.3-1.2,3.4,0.1,4.6l0.2,0.2l-47.5,48.9
		c-5.7-1.3-15.4,2.9-19.1,6.7l-18.3,18.9h32.2l2.7-2.8c3.8-3.9,8.4-13.7,6.7-19.1l47.3-48.8l0.2,0.2c1.3,1.2,3.4,1.2,4.6-0.1
		C275.1,359.3,275,357.2,273.7,356z"/>
	<path class="st26" d="M134,275.3c-0.8-0.6-2-0.3-2.5,0.6c-4.8,9.6-1.4,22-1.4,22l0.7,2.3c1.2,4.1,3.5,7.8,6.8,10.7
		c0.3,0.3,0.7,0.4,1.1,0.4h7.4c1.3,0,2.4-1.1,2.4-2.4l0,0c0-5,4.3-9.1,9.6-9.1h3.7c5.3,0,9.6,4.1,9.6,9.1l0,0c0,1.3,1.1,2.4,2.4,2.4
		h55.4c1.3,0,2.4-1.1,2.4-2.4l0,0c0-5,4.6-9.3,9.6-9.1l-27.3,0.8c-5.8,0.2-26.5,0.2-33.1-1.2c-0.4-0.1-0.8-0.2-1.2-0.2l-19.6-2.8
		c-0.3-0.1-0.6-0.1-0.9-0.2c-9.8-2.5-18.1-8.8-23.2-17.6L134,275.3z"/>
	<path class="st27" d="M152.2,393.9c0,0,100.3,28.1,216.8,0.7l-0.1,29.8c0,11-10.4,19.8-23.1,19.8l-170.7-0.6c-12.7,0-23-9-23-19.9
		L152.2,393.9z"/>
	<path class="st28" d="M149.8,390.6L149.8,390.6c0-2.9,2.9-5,5.7-4.2c22.1,6.6,106.2,27.5,209.5,0.4c2.8-0.7,5.6,1.4,5.6,4.2l0,0.1
		c0,2-1.4,3.7-3.3,4.2c-19.3,4.8-119.2,27.3-214.3-0.7C151.1,394.3,149.8,392.5,149.8,390.6z"/>
	<path class="st29" d="M158.8,386.7c21.3,3.4,87.8,11.1,204.4,0.1c0,0-95.4,30.7-204.5,0.7C158.2,387.3,158.4,386.6,158.8,386.7z"/>
	<path class="st25" d="M282,406.9l-52-50.5l0.2-0.2c1.2-1.3,1.1-3.4-0.2-4.8c-1.4-1.3-3.5-1.4-4.8-0.1l-0.2,0.2l-3.8,4l-0.2,0.2
		c-1.2,1.3-1.1,3.4,0.2,4.8c1.4,1.3,3.5,1.4,4.8,0.1l0.2-0.2l52.2,50.6c-1.2,5.9,3.5,16,7.6,20l33,32.1c2.5,2.5,6.5,2.5,8.8,0.2
		l7.7-7.9c2.3-2.4,2.1-6.3-0.4-8.8l-33-32.1C297.9,410.4,287.6,405.3,282,406.9z"/>
</g>
</svg>
