<?xml version="1.0" encoding="utf-8"?>
<!-- Generator: Adobe Illustrator 22.1.0, SVG Export Plug-In . SVG Version: 6.00 Build 0)  -->
<svg version="1.1" id="Layer_1" xmlns="http://www.w3.org/2000/svg" xmlns:xlink="http://www.w3.org/1999/xlink" x="0px" y="0px"
	 viewBox="0 0 500 500" style="enable-background:new 0 0 500 500;" xml:space="preserve">
<style type="text/css">
	.st0{fill:#F9F3D4;}
	.st1{fill:#D89323;}
	.st2{opacity:0.5;fill:#6D6D6C;}
	.st3{fill:#2D1701;}
	.st4{fill:#442501;}
	.st5{fill:#603204;}
	.st6{fill:#3A3A3A;}
	.st7{fill:#FCECE0;stroke:#3A3A3A;stroke-width:2;stroke-miterlimit:10;}
	.st8{fill:#B23E0B;stroke:#3A3A3A;stroke-width:3;stroke-miterlimit:10;}
	.st9{opacity:0.7;fill:#1E1E1E;}
	.st10{fill:#E8DFCD;}
	.st11{opacity:0.2;fill:#BCB6AD;}
	.st12{fill:#EDC33E;}
	.st13{fill:#CCA129;}
	.st14{fill:#3D3D3D;}
	.st15{fill:#AD841C;}
	.st16{fill:#DDD1BA;}
	.st17{opacity:0.15;}
	.st18{fill:#160B01;}
	.st19{opacity:0.25;fill:none;stroke:#160B01;stroke-width:3;stroke-miterlimit:10;}
	.st20{fill:#B56C5B;}
	.st21{fill:#F2E7CE;}
	.st22{fill:#CE6E4D;}
	.st23{opacity:0.2;fill:#1E0802;}
	.st24{opacity:0.25;}
	.st25{fill:#C96A1C;}
	.st26{fill:#EDEB9A;stroke:#C96A1C;stroke-width:3;stroke-miterlimit:10;}
	.st27{fill:none;stroke:#CC8B5A;stroke-width:1.75;stroke-linecap:round;stroke-miterlimit:10;}
	.st28{fill:#FCFADE;stroke:#3A3A3A;stroke-width:3;stroke-miterlimit:10;}
	.st29{opacity:0.2;}
	.st30{fill:#1E1E1E;}
	.st31{fill:#DBAC58;}
	.st32{fill:#FFFAF3;}
	.st33{opacity:0.5;fill:#BCBCBC;}
	.st34{fill:#E8DECF;}
	.st35{fill:#FFF5E1;}
	.st36{fill:#F9DF6E;}
	.st37{opacity:0.4;}
	.st38{fill:#995A07;}
	.st39{fill:#D3846E;}
	.st40{fill:#FCB9A4;}
	.st41{opacity:0.6;fill:none;stroke:#A57C71;stroke-linecap:round;stroke-miterlimit:10;}
	.st42{fill:#5B7C4D;}
	.st43{fill:#7FA86C;}
	.st44{opacity:0.8;}
	.st45{fill:#F9D2A2;}
	.st46{fill:#B26756;}
	.st47{fill:#CCB656;}
	.st48{opacity:0.3;fill:#A3A3A3;}
	.st49{opacity:0.2;fill:#9B9B9B;}
	.st50{fill:#E2D3B0;}
	.st51{fill:#937A34;}
	.st52{fill:#C9AA73;}
	.st53{fill:#F2E5D1;}
	.st54{fill:#CEB99D;}
	.st55{fill:#352C20;}
	.st56{fill:#E8E043;}
	.st57{fill:#EAE6B5;}
	.st58{fill:#B5AB33;}
	.st59{fill:#E24223;}
	.st60{fill:#847D25;}
	.st61{opacity:0.3;}
	.st62{fill:#424242;}
	.st63{fill:#C6AD60;}
	.st64{opacity:0.5;}
	.st65{fill:#685441;}
	.st66{fill:#5B4731;}
	.st67{fill:#3D2F22;}
	.st68{fill:none;stroke:#3D2F22;stroke-width:0.75;stroke-linecap:round;stroke-miterlimit:10;}
	.st69{fill:#47310D;}
	.st70{fill:#F9BDDE;}
	.st71{fill:#F2D6E7;}
	.st72{opacity:0.5;fill:#F9AFF4;}
	.st73{opacity:0.5;fill:#F47FD3;}
	.st74{opacity:0.5;fill:#FC5BBB;}
	.st75{opacity:0.6;fill:#F4BADF;}
	.st76{opacity:0.7;fill:#F786C9;}
	.st77{opacity:0.5;fill:#F2D6E7;}
	.st78{opacity:0.7;fill:#F4B5DD;}
	.st79{opacity:0.7;fill:#FCD0EA;}
</style>
<g>
	<g>
		<path class="st0" d="M458.5,246.3H40C40,130.7,133.7,37,249.3,37S458.5,130.7,458.5,246.3z"/>
	</g>
	<g>
		<path class="st1" d="M458.5,246.3H40c0,115.6,93.7,209.3,209.3,209.3S458.5,361.8,458.5,246.3z"/>
	</g>
</g>
<path class="st2" d="M418.5,236.1l-18.2,15.1c-13.4,11.1-34,17.8-56,18.2l-226.7,3.6l2.6-36.4L418.5,236.1z"/>
<g>
	<path class="st3" d="M394.3,254.7H54.3c-5.5,0-10-4.5-10-10v-20.8c0-5.5,4.5-10,10-10h340.1c5.5,0,10,4.5,10,10v20.8
		C404.3,250.2,399.8,254.7,394.3,254.7z"/>
	<path class="st4" d="M46.1,217.4l98.1-41.5c8.4-3.5,17.4-5.4,26.4-5.4H428c6.7,0,9.7,8.4,4.6,12.7l-37.1,30.8L46.1,217.4z"/>
	<path class="st5" d="M434.2,173.1c0.9,0.8,1.5,1.9,1.3,3.2c-0.2,1.3-0.4,2.7-0.4,4l0.2,26.6c0,6.8-2.3,13.4-6.7,18.7l-24.3,29.1
		h-8.9v-40.8l39-40.8C436.6,170.4,431.7,170.8,434.2,173.1z"/>
	<g>
		<path class="st6" d="M108.6,169.7v21.4h0c0.3,6.2,11.8,11.1,25.9,11.1s25.7-5,25.9-11.1h0v-21.4H108.6z"/>
		<ellipse class="st7" cx="134.5" cy="169.7" rx="24.4" ry="9.9"/>
		<ellipse class="st8" cx="134.5" cy="168.9" rx="10.2" ry="4.1"/>
	</g>
	<g>
		<path class="st6" d="M72.2,182.1v21.4h0c0.3,6.2,11.8,11.1,25.9,11.1s25.7-5,25.9-11.1h0v-21.4H72.2z"/>
		<ellipse class="st7" cx="98.2" cy="182.1" rx="24.4" ry="9.9"/>
		<ellipse class="st8" cx="98.2" cy="181.3" rx="10.2" ry="4.1"/>
	</g>
	<path class="st9" d="M124.1,183.8v17.7c0,0,3.4,1.7,7.9,0v-21.9c0,0-8.6,0.1-13.1-2.3C118.8,177.3,124.1,178.4,124.1,183.8z"/>
	<path class="st10" d="M145.7,194.5c0,0-6.2,1.2-7,6.7c0,0,0,0,0,0c-1.2,5.1,2.2,10.1,7.3,10.8c7.5,1.1,19.6,2,30.7-0.7
		c1.4-0.4,2.8-0.9,4.1-1.6c4.6-2.3,16.9-8.7,24.9-13.9c5.5-3.5,6.6-11.1,2.3-16c-0.1-0.1-0.1-0.2-0.2-0.2L145.7,194.5z"/>
	<path class="st11" d="M145.7,194.5c0,0-5.8,2.8-6,4c0,0,29,1.2,35.4-0.4s28.1-15.8,28.1-15.8L145.7,194.5z"/>
	<path class="st12" d="M179.9,194.5h-38.9c-1.5,0-2.7-1.2-2.7-2.7v-5.7c0-1.5,1.2-2.7,2.7-2.7h38.9c1.5,0,2.7,1.2,2.7,2.7v5.7
		C182.5,193.3,181.4,194.5,179.9,194.5z"/>
	<path class="st13" d="M138.3,183.4l44.3-17.4h26.2c1.1,0,1.4,1.4,0.5,1.9l-26.7,15.5H138.3z"/>
	<path class="st12" d="M185,192.2l21.9-12.1c2.5-1.4,4.1-4.1,4.1-6.9v-6c0-0.5-0.6-0.9-1-0.6l-27.6,16c-0.8,0.5-1.4,1.4-1.4,2.4v4.8
		C181,191.9,183.2,193.2,185,192.2z"/>
	<polygon class="st14" points="157.1,176 193.8,176 193.8,187.4 201,183.4 201,171.8 167.8,171.8 	"/>
	<g>
		<g>
			<path class="st15" d="M175.2,190.5c1.9,0,1.9-3,0-3C173.2,187.5,173.2,190.5,175.2,190.5L175.2,190.5z"/>
		</g>
	</g>
	<g>
		<g>
			<path class="st15" d="M171.5,193.1c1.9,0,1.9-3,0-3C169.6,190.1,169.5,193.1,171.5,193.1L171.5,193.1z"/>
		</g>
	</g>
	<g>
		<g>
			<path class="st15" d="M200.5,169.9c1.9,0,1.9-3,0-3C198.5,166.9,198.5,169.9,200.5,169.9L200.5,169.9z"/>
		</g>
	</g>
	<g>
		<g>
			<path class="st15" d="M196.8,170.4c1.9,0,1.9-3,0-3C194.8,167.4,194.8,170.4,196.8,170.4L196.8,170.4z"/>
		</g>
	</g>
	<g>
		<g>
			<path class="st16" d="M158,206.5c0.2-0.3,0.4-0.7,0.5-1c0.4-0.7,0.2-1.6-0.5-2.1c-0.7-0.4-1.7-0.2-2.1,0.5
				c-0.2,0.3-0.4,0.7-0.5,1c-0.4,0.7-0.2,1.6,0.5,2.1C156.7,207.5,157.7,207.3,158,206.5L158,206.5z"/>
		</g>
	</g>
	<g>
		<g>
			<path class="st16" d="M162.6,209c0.2-0.2,0.4-0.4,0.5-0.5c0.6-0.6,0.6-1.5,0-2.1c-0.6-0.6-1.5-0.6-2.1,0
				c-0.2,0.2-0.4,0.4-0.5,0.5c-0.6,0.6-0.6,1.5,0,2.1C161.1,209.6,162,209.6,162.6,209L162.6,209z"/>
		</g>
	</g>
	<g>
		<g>
			<path class="st16" d="M199.1,189.9c-0.5,0.7-1,1.5-1.5,2.2c-0.4,0.7-0.1,1.7,0.5,2.1c0.7,0.4,1.6,0.1,2.1-0.5
				c0.5-0.7,1-1.5,1.5-2.2c0.4-0.7,0.1-1.7-0.5-2.1C200.4,188.9,199.5,189.2,199.1,189.9L199.1,189.9z"/>
		</g>
	</g>
	<g>
		<g>
			<path class="st16" d="M195.1,189.8c-0.2,0.2-0.3,0.4-0.5,0.6c-0.5,0.6-0.6,1.5,0,2.1c0.5,0.5,1.6,0.6,2.1,0
				c0.2-0.2,0.3-0.4,0.5-0.6c0.5-0.6,0.6-1.5,0-2.1C196.7,189.3,195.6,189.2,195.1,189.8L195.1,189.8z"/>
		</g>
	</g>
	<g>
		<g>
			<path class="st16" d="M170.5,199.9c0.5,0,1.1,0,1.6,0c0.8,0,1.5-0.7,1.5-1.5c0-0.8-0.7-1.5-1.5-1.5c-0.5,0-1.1,0-1.6,0
				c-0.8,0-1.5,0.7-1.5,1.5C169,199.3,169.7,199.9,170.5,199.9L170.5,199.9z"/>
		</g>
	</g>
	<g>
		<g>
			<path class="st16" d="M172.3,200.8c0.3-0.2,0.7-0.4,1-0.5c0.7-0.4,0.9-1.4,0.5-2.1c-0.4-0.7-1.3-0.9-2.1-0.5
				c-0.3,0.2-0.7,0.4-1,0.5c-0.7,0.4-0.9,1.4-0.5,2.1C170.6,201,171.5,201.2,172.3,200.8L172.3,200.8z"/>
		</g>
	</g>
	<g class="st17">
		<g>
			<path class="st3" d="M189.9,205.2c-1.4-1.3-3.2-3.4-3.4-5.4c-0.3-2.4,1.3-3.7,1.4-5.8c0.1-1.5-3.6-7.4-2.3-7.9
				c1.8-0.6,1-3.5-0.8-2.9c-1.5,0.5-2.3,1.3-2.6,2.9c-0.5,2.8,1.6,3.8,2.2,6.2c0.5,2.2-1,3-1.3,4.9c-0.2,1.1,0.1,2.3,0.4,3.4
				c0.7,2.6,2.2,4.9,4.1,6.7C189.2,208.7,191.3,206.6,189.9,205.2L189.9,205.2z"/>
		</g>
	</g>
	<path class="st10" d="M192,194.9c0,0-6.1,1.5-6.5,7c0,0,0,0,0,0c-0.9,5.1,2.7,9.8,7.8,10.3c7.5,0.7,19.5,1,30.3-2.4
		c1.4-0.4,2.7-1,4-1.8c4.4-2.6,16.2-9.5,23.9-15.1c5.2-3.8,5.9-11.3,1.4-15.9c-0.1-0.1-0.1-0.1-0.2-0.2L192,194.9z"/>
	<path class="st11" d="M192,194.9c0,0-5.6,3.1-5.7,4.2c0,0,28.8-0.4,34.9-2.3c6.2-1.9,26.9-17.1,26.9-17.1L192,194.9z"/>
	<path class="st12" d="M225.8,193l-38.4,2.1c-1.5,0.1-2.7-1-2.8-2.5l-0.3-5.6c-0.1-1.5,1-2.7,2.5-2.8l38.4-2.1
		c1.5-0.1,2.7,1,2.8,2.5l0.3,5.6C228.4,191.7,227.2,192.9,225.8,193z"/>
	<path class="st13" d="M184.1,184.4l42.8-19.6l25.9-1.4c1-0.1,1.5,1.3,0.6,1.9l-25.6,16.7L184.1,184.4z"/>
	<path class="st12" d="M232.5,190.5l21-13.1c2.4-1.5,3.8-4.2,3.7-7.1l-0.3-5.9c0-0.5-0.6-0.8-1.1-0.5l-26.4,17.3
		c-0.8,0.5-1.3,1.5-1.2,2.4l0.3,4.8C228.5,190.4,230.8,191.6,232.5,190.5z"/>
	<polygon class="st14" points="202.3,176 238.5,174 239.1,185.3 246.1,180.9 245.4,169.5 212.6,171.3 	"/>
	<g>
		<g>
			<path class="st15" d="M229.7,189.3c1.9,0,1.9-3,0-3C227.8,186.3,227.8,189.3,229.7,189.3L229.7,189.3z"/>
		</g>
	</g>
	<g>
		<g>
			<path class="st15" d="M226.2,192.1c1.9,0,1.9-3,0-3C224.3,189.1,224.3,192.1,226.2,192.1L226.2,192.1z"/>
		</g>
	</g>
	<g>
		<g>
			<path class="st15" d="M247.1,170.2c1.9,0,1.9-3,0-3C245.1,167.2,245.1,170.2,247.1,170.2L247.1,170.2z"/>
		</g>
	</g>
	<g>
		<g>
			<path class="st15" d="M251.7,166.5c1.9,0,1.9-3,0-3C249.8,163.5,249.8,166.5,251.7,166.5L251.7,166.5z"/>
		</g>
	</g>
	<g>
		<g>
			<path class="st16" d="M263.9,185.8c-0.5,0.7-1,1.4-1.6,2.1c-0.5,0.6-0.1,1.7,0.5,2.1c0.8,0.4,1.6,0.1,2.1-0.5
				c0.5-0.7,1-1.4,1.6-2.1c0.5-0.6,0.1-1.7-0.5-2.1C265.2,184.8,264.4,185.2,263.9,185.8L263.9,185.8z"/>
		</g>
	</g>
	<g>
		<g>
			<path class="st16" d="M255.4,184.1c-0.2,0.2-0.3,0.4-0.5,0.5c-0.5,0.6-0.6,1.5,0,2.1c0.5,0.5,1.6,0.6,2.1,0
				c0.2-0.2,0.3-0.4,0.5-0.5c0.5-0.6,0.6-1.5,0-2.1C257,183.5,256,183.5,255.4,184.1L255.4,184.1z"/>
		</g>
	</g>
	<g>
		<g>
			<path class="st16" d="M227.4,199.8c0.3-0.2,0.7-0.4,1-0.6c0.7-0.4,0.9-1.4,0.5-2.1c-0.4-0.7-1.3-0.9-2.1-0.5
				c-0.3,0.2-0.7,0.4-1,0.6c-0.7,0.4-0.9,1.4-0.5,2.1C225.8,200,226.7,200.2,227.4,199.8L227.4,199.8z"/>
		</g>
	</g>
	<g>
		<g>
			<path class="st16" d="M210.4,207c0.2-0.2,0.3-0.4,0.5-0.5c0.5-0.6,0.6-1.5,0-2.1c-0.5-0.5-1.6-0.6-2.1,0
				c-0.2,0.2-0.3,0.4-0.5,0.5c-0.5,0.6-0.6,1.5,0,2.1C208.9,207.6,209.9,207.6,210.4,207L210.4,207z"/>
		</g>
	</g>
	<g>
		<g>
			<path class="st16" d="M209.7,197.6c0.5,0,1-0.1,1.6-0.1c0.8,0,1.5-0.7,1.5-1.5c0-0.8-0.7-1.5-1.5-1.5c-0.5,0-1,0.1-1.6,0.1
				c-0.8,0-1.5,0.7-1.5,1.5C208.3,196.9,208.9,197.7,209.7,197.6L209.7,197.6z"/>
		</g>
	</g>
	<g>
		<g>
			<path class="st16" d="M197.8,204.9c0.2-0.4,0.3-0.7,0.5-1.1c0.3-0.7,0.2-1.6-0.5-2.1c-0.6-0.4-1.7-0.2-2.1,0.5
				c-0.2,0.4-0.3,0.7-0.5,1.1c-0.3,0.7-0.2,1.6,0.5,2.1C196.4,205.8,197.5,205.6,197.8,204.9L197.8,204.9z"/>
		</g>
	</g>
	<polygon class="st18" points="362.7,270.7 387.5,254.7 357.2,254.7 	"/>
	<polygon class="st18" points="128.5,269.8 153.3,253.8 123.1,253.8 	"/>
	<path class="st3" d="M124.6,270.7H72.2c-2.7,0-4.8-2.2-4.8-4.8v-7.2c0-2.7,2.2-4.8,4.8-4.8h52.4c2.7,0,4.8,2.2,4.8,4.8v7.2
		C129.4,268.5,127.2,270.7,124.6,270.7z"/>
	<path class="st3" d="M362.3,270.7h-52.4c-2.7,0-4.8-2.2-4.8-4.8v-7.2c0-2.7,2.2-4.8,4.8-4.8h52.4c2.7,0,4.8,2.2,4.8,4.8v7.2
		C367.1,268.5,364.9,270.7,362.3,270.7z"/>
	<path class="st19" d="M70.7,207.7c0,0,24.9,20.4,52.5,0.9"/>
	<path class="st19" d="M124.8,203.3c0,0,4.3,2.1,9.1,0.1"/>
	<path class="st19" d="M242,201.5c0,0-14.4,10-23.4,12.4c0,0-10.2,3-21.8,0.2"/>
	<g>
		<path class="st10" d="M243.1,193.4c0,0-6.1,1.2-6.9,6.7c0,0,0,0,0,0c-1.2,5,2.2,10,7.3,10.7c7.4,1.1,19.4,2,30.4-0.7
			c1.4-0.4,2.8-0.9,4.1-1.5c4.5-2.3,16.7-8.6,24.7-13.8c5.4-3.5,6.5-11,2.3-15.8c-0.1-0.1-0.1-0.2-0.2-0.2L243.1,193.4z"/>
		<path class="st11" d="M243.1,193.4c0,0-5.7,2.7-5.9,3.9c0,0,28.8,1.2,35-0.4s27.8-15.7,27.8-15.7L243.1,193.4z"/>
		<g>
			<path class="st20" d="M238.5,200.7c2.7,0.4,6.3,0.1,10.3-2.1c0,0,8.4,7.5,18-0.1c0,0,0,0,0,0c0.7-0.5,1.5-1.1,2.1-1.8
				c3.4-3.9,15.5-15.3,44.5-16.8c0,0-7.4-6.8-24.1-8.5c0,0-17.6-3.6-40.2-0.7c-5.5,0.7-10.6,3.1-14.2,7c-3.3,3.7-5.8,9.1-3.7,16.5
				C232.2,197.6,235,200.2,238.5,200.7z"/>
		</g>
		<g>
			<g>
				<path class="st16" d="M252,207.7c0.2-0.2,0.3-0.3,0.5-0.5c0.6-0.6,0.6-1.5,0-2.1c-0.6-0.6-1.5-0.6-2.1,0
					c-0.2,0.2-0.3,0.3-0.5,0.5c-0.6,0.6-0.6,1.5,0,2.1C250.5,208.3,251.5,208.3,252,207.7L252,207.7z"/>
			</g>
		</g>
		<g>
			<g>
				<path class="st16" d="M260.7,205.9c0.5,0,1,0,1.6,0c0.8,0,1.5-0.7,1.5-1.5c0-0.8-0.7-1.5-1.5-1.5c-0.5,0-1,0-1.6,0
					c-0.8,0-1.5,0.7-1.5,1.5C259.3,205.2,259.9,205.9,260.7,205.9L260.7,205.9z"/>
			</g>
		</g>
		<g>
			<g>
				<path class="st16" d="M247.5,205.3c0.2-0.3,0.4-0.7,0.5-1c0.4-0.7,0.2-1.6-0.5-2.1c-0.7-0.4-1.7-0.2-2.1,0.5
					c-0.2,0.3-0.4,0.7-0.5,1c-0.4,0.7-0.2,1.6,0.5,2.1C246.1,206.2,247.2,206,247.5,205.3L247.5,205.3z"/>
			</g>
		</g>
		<g>
			<path class="st21" d="M239.1,197.9c2.6,0.4,6.1,0.1,9.9-1.9c0,0,8.1,6.6,17.3-0.1c0,0,0,0,0,0c0.7-0.5,1.4-1,2-1.6
				c3.2-3.5,14.9-13.5,42.8-14.8c0,0-7.1-6-23.2-7.5c0,0-17-3.2-38.7-0.6c-5.3,0.6-10.2,2.7-13.7,6.2c-3.2,3.2-5.6,8-3.6,14.6
				C233.1,195.2,235.8,197.5,239.1,197.9z"/>
		</g>
		<path class="st22" d="M309.2,181.5c-2.3-1.4-2-4.8,0.6-5.8c4.1-1.5,9.8-2.6,14.8,0.2c6.4,3.6,3.1,9.1,0.5,12.1
			c-1,1.2-2.8,1.5-4.2,0.7L309.2,181.5z"/>
		<path class="st23" d="M312,181.3c-2.7,0.3-4.5-2.7-3-5c2.3-3.7,6.3-8,12-8.8c7.3-1,8,5.4,7.7,9.3c-0.1,1.6-1.3,2.9-2.9,3.1
			L312,181.3z"/>
		<path class="st22" d="M311.4,180.8c-2.7,0.4-4.6-2.4-3.3-4.8c2.1-3.8,5.7-8.4,11.4-9.5c7.2-1.4,8.3,4.9,8.3,8.8
			c0,1.6-1.1,3-2.7,3.2L311.4,180.8z"/>
		<g class="st24">
			<g>
				<path class="st22" d="M252.6,191.4c8.3-9.9,20-15.8,32.9-16.4c1.9-0.1,1.9-3.1,0-3c-13.7,0.7-26.2,6.8-35,17.3
					C249.2,190.8,251.3,192.9,252.6,191.4L252.6,191.4z"/>
			</g>
		</g>
		<g class="st24">
			<g>
				<path class="st22" d="M254.1,180c-3.2-2.5-7.1-3.8-11.2-3.3c-1.9,0.2-1.9,3.2,0,3c3.3-0.4,6.4,0.4,9,2.4
					C253.5,183.3,255.6,181.2,254.1,180L254.1,180z"/>
			</g>
		</g>
		<g class="st24">
			<g>
				<path class="st22" d="M263.4,186c2.4-0.7,4.9-0.1,6.8,1.6c1.4,1.3,3.5-0.8,2.1-2.1c-2.6-2.5-6.2-3.4-9.7-2.4
					C260.7,183.6,261.5,186.5,263.4,186L263.4,186z"/>
			</g>
		</g>
		<g class="st24">
			<g>
				<path class="st22" d="M264.4,173.3c-1.9-1.1-3.9-1.8-6.1-2c-1.9-0.2-1.9,2.8,0,3c1.6,0.2,3.2,0.7,4.6,1.6
					C264.5,176.9,266,174.3,264.4,173.3L264.4,173.3z"/>
			</g>
		</g>
		<g class="st24">
			<g>
				<path class="st22" d="M277.2,180.8c0.9,0,1.7,0.3,2.2,1.1c0.5,0.7,1.3,1,2.1,0.5c0.7-0.4,1-1.4,0.5-2.1
					c-1.1-1.6-2.9-2.6-4.8-2.6C275.3,177.9,275.3,180.9,277.2,180.8L277.2,180.8z"/>
			</g>
		</g>
	</g>
	<g>
		<path class="st10" d="M290.1,193.3c0,0-6.1,1.2-6.9,6.7c0,0,0,0,0,0c-1.2,5,2.2,10,7.3,10.7c7.4,1.1,19.4,2,30.4-0.7
			c1.4-0.4,2.8-0.9,4.1-1.5c4.5-2.3,16.7-8.6,24.7-13.8c5.4-3.5,6.5-11,2.3-15.8c-0.1-0.1-0.1-0.2-0.2-0.2L290.1,193.3z"/>
		<path class="st11" d="M290.1,193.3c0,0-5.7,2.7-5.9,3.9c0,0,28.8,1.2,35-0.4c6.3-1.6,27.8-15.7,27.8-15.7L290.1,193.3z"/>
		<g>
			<path class="st20" d="M285.5,200.7c2.7,0.4,6.3,0.1,10.3-2.1c0,0,8.4,7.5,18-0.1c0,0,0,0,0,0c0.7-0.5,1.5-1.1,2.1-1.8
				c3.4-3.9,15.5-15.3,44.5-16.8c0,0-7.4-6.8-24.1-8.5c0,0-17.6-3.6-40.2-0.7c-5.5,0.7-10.6,3.1-14.2,7c-3.3,3.7-5.8,9.1-3.7,16.5
				C279.2,197.6,282,200.2,285.5,200.7z"/>
		</g>
		<g>
			<g>
				<path class="st16" d="M299,207.7c0.2-0.2,0.3-0.3,0.5-0.5c0.6-0.6,0.6-1.5,0-2.1c-0.6-0.6-1.5-0.6-2.1,0
					c-0.2,0.2-0.3,0.3-0.5,0.5c-0.6,0.6-0.6,1.5,0,2.1C297.5,208.3,298.5,208.3,299,207.7L299,207.7z"/>
			</g>
		</g>
		<g>
			<g>
				<path class="st16" d="M307.7,205.8c0.5,0,1,0,1.6,0c0.8,0,1.5-0.7,1.5-1.5c0-0.8-0.7-1.5-1.5-1.5c-0.5,0-1,0-1.6,0
					c-0.8,0-1.5,0.7-1.5,1.5C306.3,205.1,306.9,205.8,307.7,205.8L307.7,205.8z"/>
			</g>
		</g>
		<g>
			<g>
				<path class="st16" d="M294.5,205.3c0.2-0.3,0.4-0.7,0.5-1c0.4-0.7,0.2-1.6-0.5-2.1c-0.7-0.4-1.7-0.2-2.1,0.5
					c-0.2,0.3-0.4,0.7-0.5,1c-0.4,0.7-0.2,1.6,0.5,2.1C293.1,206.2,294.2,206,294.5,205.3L294.5,205.3z"/>
			</g>
		</g>
		<g>
			<path class="st21" d="M286.1,197.9c2.6,0.4,6.1,0.1,9.9-1.9c0,0,8.1,6.6,17.3-0.1c0,0,0,0,0,0c0.7-0.5,1.4-1,2-1.6
				c3.2-3.5,14.9-13.5,42.8-14.8c0,0-7.1-6-23.2-7.5c0,0-17-3.2-38.7-0.6c-5.3,0.6-10.2,2.7-13.7,6.2c-3.2,3.2-5.6,8-3.6,14.6
				C280.1,195.2,282.8,197.5,286.1,197.9z"/>
		</g>
		<path class="st22" d="M356.2,181.5c-2.3-1.4-2-4.8,0.6-5.8c4.1-1.5,9.8-2.6,14.8,0.2c6.4,3.6,3.1,9.1,0.5,12.1
			c-1,1.2-2.8,1.5-4.2,0.7L356.2,181.5z"/>
		<path class="st23" d="M359,181.3c-2.7,0.3-4.5-2.7-3-5c2.3-3.7,6.3-8,12-8.8c7.3-1,8,5.4,7.7,9.3c-0.1,1.6-1.3,2.9-2.9,3.1
			L359,181.3z"/>
		<path class="st22" d="M358.4,180.8c-2.7,0.4-4.6-2.4-3.3-4.8c2.1-3.8,5.7-8.4,11.4-9.5c7.2-1.4,8.3,4.9,8.3,8.8
			c0,1.6-1.1,3-2.7,3.2L358.4,180.8z"/>
		<g class="st24">
			<g>
				<path class="st22" d="M299.6,191.4c8.3-9.9,20-15.8,32.9-16.4c1.9-0.1,1.9-3.1,0-3c-13.7,0.7-26.2,6.8-35,17.3
					C296.2,190.8,298.3,192.9,299.6,191.4L299.6,191.4z"/>
			</g>
		</g>
		<g class="st24">
			<g>
				<path class="st22" d="M301.1,180c-3.2-2.5-7.1-3.8-11.2-3.3c-1.9,0.2-1.9,3.2,0,3c3.3-0.4,6.4,0.4,9,2.4
					C300.5,183.3,302.6,181.2,301.1,180L301.1,180z"/>
			</g>
		</g>
		<g class="st24">
			<g>
				<path class="st22" d="M310.4,185.9c2.4-0.7,4.9-0.1,6.8,1.6c1.4,1.3,3.5-0.8,2.1-2.1c-2.6-2.5-6.2-3.4-9.7-2.4
					C307.7,183.6,308.5,186.5,310.4,185.9L310.4,185.9z"/>
			</g>
		</g>
		<g class="st24">
			<g>
				<path class="st22" d="M311.4,173.3c-1.9-1.1-3.9-1.8-6.1-2c-1.9-0.2-1.9,2.8,0,3c1.6,0.2,3.2,0.7,4.6,1.6
					C311.5,176.9,313,174.3,311.4,173.3L311.4,173.3z"/>
			</g>
		</g>
		<g class="st24">
			<g>
				<path class="st22" d="M324.2,180.8c0.9,0,1.7,0.3,2.2,1.1c0.5,0.7,1.3,1,2.1,0.5c0.7-0.4,1-1.4,0.5-2.1
					c-1.1-1.6-2.9-2.6-4.8-2.6C322.3,177.8,322.3,180.8,324.2,180.8L324.2,180.8z"/>
			</g>
		</g>
	</g>
	<g>
		<path class="st25" d="M363.1,158.9v22.9h0c0.3,6.6,11.8,11.9,25.9,11.9c14.2,0,25.7-5.3,25.9-11.9h0v-22.9H363.1z"/>
		<ellipse class="st26" cx="389" cy="158.9" rx="24.4" ry="10.6"/>
		<path class="st27" d="M413.9,161.5c0,0-1.2,18.8-29.9,31.3"/>
		<path class="st27" d="M405.5,166.7c0,0-4.6,16.5-32.5,23.9"/>
		<path class="st27" d="M395.5,170.2c0,0-7.2,13.3-28.7,16.5"/>
		<path class="st27" d="M387,170.2c0,0-7.5,9.7-22.3,11.2"/>
		<path class="st27" d="M379.2,169.6c0,0-6.4,5.6-14.5,6.4"/>
		<path class="st27" d="M373.1,167.3c0,0-4.1,3.4-8.7,4.2"/>
		<path class="st27" d="M413.4,176.1c0,0-0.7,9.8-17.8,16.3"/>
		<ellipse class="st28" cx="389" cy="158" rx="10.2" ry="4.4"/>
		<g>
			<path class="st25" d="M340.9,174.5v22.9h0c0.3,6.6,11.8,11.9,25.9,11.9c14.2,0,25.7-5.3,25.9-11.9h0v-22.9H340.9z"/>
			<ellipse class="st26" cx="366.9" cy="174.5" rx="24.4" ry="10.6"/>
			<path class="st27" d="M391.8,177.2c0,0-1.2,18.8-29.9,31.3"/>
			<path class="st27" d="M383.3,182.3c0,0-4.6,16.5-32.5,23.9"/>
			<path class="st27" d="M373.3,185.9c0,0-7.2,13.3-28.7,16.5"/>
			<path class="st27" d="M364.9,185.8c0,0-7.5,9.7-22.3,11.2"/>
			<path class="st27" d="M357,185.3c0,0-6.4,5.6-14.5,6.4"/>
			<path class="st27" d="M350.9,183c0,0-4.1,3.4-8.7,4.2"/>
			<path class="st27" d="M391.2,191.7c0,0-0.7,9.8-17.8,16.3"/>
			<ellipse class="st28" cx="366.9" cy="173.7" rx="10.2" ry="4.4"/>
		</g>
		<g class="st29">
			<g>
				<path class="st30" d="M392.5,177.9c0,4.7,0,9.4,0,14.1c0,1.9,3,1.9,3,0c0-7.6,0-15.3,0-22.9c0-1.9-3-1.9-3,0
					c0,7.6,0,15.3,0,22.9c0,1.9,3,1.9,3,0c0-4.7,0-9.4,0-14.1C395.5,175.9,392.5,175.9,392.5,177.9L392.5,177.9z"/>
			</g>
		</g>
		<path class="st19" d="M341.2,201.5c0,0,24.9,20.4,52.5,0.9"/>
		<path class="st19" d="M393.5,196.6c0,0,12.7-1.3,22.4-11.3"/>
	</g>
</g>
<g>
	<g>
		<path class="st31" d="M51.5,322.7c14.8,2.1,31.8,0.5,56,3c0,0,86.8,6.1,109.2-19.2c2.2-2.4,1.3-6.3-1.6-7.7
			c-15.8-7.6-65.2-29.4-104.1-26c0,0-24.2-2.6-70.2,6.3C39.8,279.3,50.4,322.6,51.5,322.7z"/>
	</g>
	<g>
		<path class="st32" d="M121.1,250.2c-3-0.2-28.2,0.1-31.2,0.3c-10.6,0.5-49.9,3.2-49.9,6.3c0,3.7-1,9.1,0.7,22.4
			c1.4,10.5,4,24.3,9.2,40c9.1,27.4,40.1,85.8,57,91.7c0,0,115.9,8.2,121.1-115.5C228.1,295.2,237.5,256,121.1,250.2z M51.5,322.7
			c-3.4-10.1-11.1-44-11.1-44c94.3-26.9,179.7,22.6,179.7,22.6C200.5,341.2,51.5,322.7,51.5,322.7z"/>
	</g>
	<path class="st33" d="M40.8,279.3c54.8-10,109.2-14.3,179.4,22.1c0,0,2.2-32.8-104.5-41.1c-5.5-0.4-11-0.5-16.5-0.1
		c-17.1,1-56.2,3.7-59.1,6.6C38.9,268,40.2,279.4,40.8,279.3z"/>
	<g>
		<path class="st34" d="M202.9,296.1c0,0,1.9,13.6-14.2,23.9c-3,2-6.5,3.2-10.1,3.7c-7.4,0.9-20.2,0.4-24.2-12.8L202.9,296.1z"/>
		
			<ellipse transform="matrix(0.9562 -0.2927 0.2927 0.9562 -81.0926 65.6314)" class="st35" cx="178.8" cy="303.8" rx="25.3" ry="12.5"/>
		
			<ellipse transform="matrix(0.9562 -0.2927 0.2927 0.9562 -81.7432 64.0487)" class="st36" cx="173.2" cy="305.2" rx="14.4" ry="7.7"/>
	</g>
	<g class="st37">
		
			<ellipse transform="matrix(3.167332e-02 -0.9995 0.9995 3.167332e-02 -205.7089 416.8845)" class="st38" cx="112.3" cy="314.6" rx="5.2" ry="38.1"/>
	</g>
	<g>
		<path class="st39" d="M101.4,297.1c0-0.1-0.1-0.3-0.2-0.4c-9-15.6-26.9-15.8-26.9-15.8c-20.7,0.1-24.2,18.9-24.2,18.9
			c0,0,0,0.1,0,0.1c-0.1,0.2-0.1,0.4-0.2,0.6c0,0,0.1,0,0.1,0c26.1,5.6,43.1,1.8,49.7-0.3c0.7-0.2,1.3-0.5,1.8-0.9
			C101.6,298.6,101.6,297.9,101.4,297.1C101.4,297.1,101.4,297.1,101.4,297.1z"/>
		<path class="st40" d="M104.6,291.7C104.6,291.7,104.6,291.7,104.6,291.7c0-0.2-0.1-0.3-0.2-0.5c-10.1-16.7-30.2-17-30.2-17
			C50.9,274.3,47,294.3,47,294.3c0,0,0,0.1,0,0.1c-1.2,2.5,0.3,5.4,2.9,6c0.1-0.2,0.1-0.4,0.2-0.6c0,0,0-0.1,0-0.1
			c0,0,3.5-18.8,24.2-18.9c0,0,17.9,0.2,26.9,15.8c0.1,0.1,0.1,0.3,0.2,0.4c0,0,0,0,0,0c0.2,0.7,0.2,1.5,0.1,2.2
			C104,297.7,105.2,294.7,104.6,291.7z"/>
	</g>
	<path class="st41" d="M58.1,297.3c0,0,14.8-20.2,42.9-7.6"/>
	<g>
		<path class="st39" d="M114.8,310.6c0-0.2-0.1-0.3-0.2-0.4c-10-16.9-29.9-17.2-29.9-17.2c-23,0.1-26.9,20.5-26.9,20.5
			c0,0,0,0.1,0,0.1c-0.1,0.2-0.2,0.4-0.2,0.6c0,0,0.1,0,0.1,0c29.1,6.1,47.9,2.1,55.2-0.2c0.7-0.2,1.4-0.6,2-1
			C115,312.2,115,311.4,114.8,310.6C114.8,310.6,114.8,310.6,114.8,310.6z"/>
		<path class="st40" d="M118.3,304.8C118.3,304.8,118.3,304.8,118.3,304.8c0-0.2-0.1-0.4-0.2-0.5c-11.3-18.1-33.6-18.5-33.6-18.5
			c-25.9,0-30.1,21.7-30.1,21.7c0,0,0,0.1,0,0.1c-1.3,2.7,0.4,5.8,3.3,6.5c0.1-0.2,0.1-0.4,0.2-0.6c0,0,0-0.1,0-0.1
			c0,0,3.9-20.4,26.9-20.5c0,0,19.9,0.3,29.9,17.2c0.1,0.1,0.1,0.3,0.2,0.4c0,0,0,0,0,0c0.2,0.8,0.2,1.6,0.1,2.4
			C117.7,311.3,119.1,308,118.3,304.8z"/>
	</g>
	<g class="st37">
		
			<ellipse transform="matrix(3.167332e-02 -0.9995 0.9995 3.167332e-02 -156.1279 408.5435)" class="st38" cx="132.8" cy="284.8" rx="2.2" ry="7.1"/>
	</g>
	<g class="st37">
		
			<ellipse transform="matrix(3.167332e-02 -0.9995 0.9995 3.167332e-02 -170.2089 412.2974)" class="st38" cx="127.7" cy="294" rx="3.8" ry="19.6"/>
	</g>
	<g>
		
			<ellipse transform="matrix(3.167332e-02 -0.9995 0.9995 3.167332e-02 -134.9895 429.1386)" class="st42" cx="154" cy="284.2" rx="3.5" ry="10.3"/>
		
			<ellipse transform="matrix(3.167332e-02 -0.9995 0.9995 3.167332e-02 -134.8579 428.4157)" class="st43" cx="153.7" cy="283.8" rx="2" ry="8.7"/>
	</g>
	<g>
		
			<ellipse transform="matrix(3.167332e-02 -0.9995 0.9995 3.167332e-02 -125.8908 450.4251)" class="st42" cx="169.5" cy="290.2" rx="2.6" ry="7.4"/>
		
			<ellipse transform="matrix(3.167332e-02 -0.9995 0.9995 3.167332e-02 -125.7926 449.9022)" class="st43" cx="169.3" cy="289.9" rx="1.5" ry="6.2"/>
	</g>
	<g class="st44">
		
			<ellipse transform="matrix(3.167332e-02 -0.9995 0.9995 3.167332e-02 -146.8488 432.6823)" class="st42" cx="149.9" cy="292.1" rx="1.9" ry="10.3"/>
		
			<ellipse transform="matrix(3.167332e-02 -0.9995 0.9995 3.167332e-02 -146.9135 432.1378)" class="st43" cx="149.6" cy="291.9" rx="1.1" ry="8.7"/>
	</g>
	<g>
		<g>
			<path class="st45" d="M141.5,277.9c-3.7-1.1-7.4,0.8-8.8,4.4c-1.7,4.5,0.5,9.2,3.2,12.8c0.9,1.3,2.9,3,3.5,4.4
				c1.9,4.7-1.8,5.5-4.2,7.5c-1.3,1.1-2.4,2-3.1,3.6c-0.9,2.1-0.8,4.6,0.2,6.6c1.2,2.3,8.1,6.3,4.4,9.5c-0.4,0.3,0.2,0.9,0.5,0.5
				c1.7-1.5,1.6-3.6,0.4-5.4c-2.6-4-7.4-5.6-4.4-11.5c1.4-2.7,3.9-3.3,5.8-5.4c2.2-2.3,1.8-4.5,0.1-7c-1.4-2-3.2-3.7-4.4-5.8
				c-2.9-5.1-2.4-16.1,6.5-13.6C141.8,278.7,142,278,141.5,277.9L141.5,277.9z"/>
		</g>
	</g>
	<g>
		<g>
			<path class="st45" d="M145,296.8c4.4,3.7-0.1,8.6-2.9,11.4c-1.2,1.2-2.5,2.4-2.8,4.2c-0.5,4.2,8,9.4,3.4,13.1
				c-0.4,0.3,0.2,0.8,0.5,0.5c1.6-1.3,2.1-2.8,1.5-4.8c-0.3-0.9-0.8-1.6-1.4-2.4c-0.6-0.9-2-1.9-2.4-3c-0.8-2.4,0.9-6.5,2.6-8.1
				c3.2-3,6.2-8,1.9-11.5C145.1,296,144.6,296.5,145,296.8L145,296.8z"/>
		</g>
	</g>
	<g>
		<g>
			<path class="st45" d="M151.8,298.2c3,7.3-2.8,8.9-4.4,14.5c-1.2,4.1,3.4,7,2.5,11.1c-0.1,0.5,0.6,0.7,0.7,0.2
				c0.3-1.4,0.2-2.3-0.3-3.7c-0.4-1.2-1.3-2.2-1.7-3.4c-1.1-3.3,0.2-5.5,2.1-8c2.6-3.5,3.6-6.7,1.9-10.8
				C152.4,297.6,151.6,297.8,151.8,298.2L151.8,298.2z"/>
		</g>
	</g>
	<g>
		<g>
			<path class="st45" d="M133.2,277c-3.7-1.1-7.4,0.8-8.8,4.4c-1.7,4.5,0.5,9.2,3.2,12.8c0.9,1.3,2.9,3,3.5,4.4
				c1.9,4.7-1.8,5.5-4.2,7.5c-1.3,1.1-2.4,2-3.1,3.6c-0.9,2.1-0.8,4.6,0.2,6.6c1.2,2.3,8.1,6.3,4.4,9.5c-0.4,0.3,0.2,0.9,0.5,0.5
				c1.7-1.5,1.6-3.6,0.4-5.4c-2.6-4-7.4-5.6-4.4-11.5c1.4-2.7,3.9-3.3,5.8-5.4c2.2-2.3,1.8-4.5,0.1-7c-1.4-2-3.2-3.7-4.4-5.8
				c-2.9-5.1-2.4-16.1,6.5-13.6C133.5,277.8,133.7,277.1,133.2,277L133.2,277z"/>
		</g>
	</g>
	<g>
		<g>
			<path class="st45" d="M120.3,274.7c-3.4,0.7-5.4,3.7-5.5,7.1c-0.4,7.8,7.7,12.6,6.3,20.8c-0.1,0.5,0.6,0.7,0.7,0.2
				c0.7-3.8-0.4-7-2.2-10.4c-2.5-4.8-8-15.1,0.9-17C120.9,275.3,120.7,274.6,120.3,274.7L120.3,274.7z"/>
		</g>
	</g>
	<g>
		<g>
			<path class="st45" d="M110.4,274.3c-2.4,1.6-3.9,4-4,6.9c-0.1,4.4,4.7,6.9,4.4,11.2c0,0.5,0.7,0.5,0.8,0c0.2-2.4-1.1-4-2.4-6
				c-2.7-3.9-2.6-8.7,1.6-11.5C111.1,274.7,110.8,274,110.4,274.3L110.4,274.3z"/>
		</g>
	</g>
	<g>
		<g>
			<path class="st45" d="M117.1,314.3c0.4,2.8,6.3,10.1,1.3,11.5c-0.5,0.1-0.3,0.9,0.2,0.7c5.9-1.7-0.4-9.4-0.7-12.3
				C117.7,313.8,117,313.8,117.1,314.3L117.1,314.3z"/>
		</g>
	</g>
	<g>
		<g>
			<path class="st45" d="M110.5,318.1c2,1.2,2.3,4.1,0.6,5.7c-0.3,0.3,0.2,0.9,0.5,0.5c2-2,1.6-5.5-0.8-6.9
				C110.5,317.2,110.1,317.8,110.5,318.1L110.5,318.1z"/>
		</g>
	</g>
	<path class="st46" d="M75.5,307c0,0,0.1,0,0.1,0c0.3-0.1,0.6,0,0.9,0.1c0.5,0.2,1.7,0.6,4,0.7c1.3,0,2.4,0.6,3,1.5c0,0,0,0,0,0.1
		c0.6,1,0.1,2.2-1.1,2.7c-1.3,0.6-3.3,1.3-5.1,1.4c0,0-0.1,0-0.2,0C72,313.9,70.6,308.1,75.5,307z"/>
	<path class="st46" d="M92.4,313.7c-0.1,0-0.2-0.1-0.2-0.1c-0.5-0.2-0.8-0.6-1-1.1c-0.3-0.9-1.2-2.7-3.9-5c-1.5-1.3-2.2-3.4-1.6-5.5
		c0-0.1,0-0.1,0-0.2c0.6-2.3,2.9-3.8,5.1-3.5c2.4,0.3,5.8,1,8.2,2.5c0,0,0.1,0.1,0.3,0.2C106.2,305.5,100,316.7,92.4,313.7z"/>
	<g>
		<g>
			<path class="st47" d="M176.6,300.8c1.1,2.4-0.6,5.2-3,5.9c-1.9,0.5-1.1,3.4,0.8,2.9c4.4-1.1,6.6-6.2,4.8-10.3
				C178.4,297.5,175.8,299.1,176.6,300.8L176.6,300.8z"/>
		</g>
	</g>
	<g>
		<g>
			<path class="st47" d="M169.9,302.7c-0.2,0.8-0.7,1.5-1.3,1.9c-0.7,0.4-1,1.3-0.5,2.1c0.4,0.7,1.4,1,2.1,0.5
				c1.3-0.9,2.3-2.2,2.7-3.7c0.2-0.8-0.3-1.6-1-1.8C171,301.4,170.1,301.9,169.9,302.7L169.9,302.7z"/>
		</g>
	</g>
</g>
<g>
	<path class="st48" d="M50.6,311c0,0,31.4,44.9,78.9,69.2c0,0-12.5,6.8-35.1,4.4C94.5,384.6,48.5,329.1,50.6,311z"/>
</g>
<path class="st49" d="M163.2,349.4c-2.3,6.8-6.3,18.9-27.1,27.4c-0.6,0.3-1.3,0.3-1.9,0.2c-1.2-0.2-3-1.7-1.4-4.8
	c2.7-5.4,18.2-0.9,23.1-26.1C156.6,342.4,165.2,343.5,163.2,349.4z"/>
<path class="st50" d="M272-118"/>
<g>
	<path class="st51" d="M402.4,370.1c-73.9-3-134-16.7-134-37.2s60-37.2,134-37.2c17.7,0,49.8,1.9,50.1,2.7
		c0.1,0.2-14.7,51.2-31.3,71.5C421.1,369.8,407.5,370.3,402.4,370.1z"/>
	<path class="st52" d="M272.3,347c0,0,53.3-29.3,171.6-23.3c0.6,0-21,62.4-43.4,59.1C400.5,382.9,305.4,376.8,272.3,347z"/>
	<g>
		<path class="st53" d="M351.5,295.1c-1.5,0-2.9,0.2-4.3,0.8c-0.2,0.1-0.5,0.2-0.7,0.2c-0.2,0.1-0.5-0.1-0.5-0.4c0-0.1,0-0.3,0-0.4
			c-0.2-2.4-2.8-3.3-4.1-1.4c0,0,0,0,0,0c-0.2,0.3-0.6,0.2-0.7-0.2c-0.2-1-0.7-1.7-1.2-2.3c-0.7-0.8-2-0.5-2.4,0.5
			c-0.4,1-1.4,1.6-2,1.9c-0.2,0.1-0.4,0-0.5-0.2c-1-2.9-2.3-3.8-3.9-3.8c-0.5,0-0.8,0.5-0.7,1c0.4,3.1-0.3,3.1-1.1,4.7
			c-0.1,0.2-0.3,0.3-0.4,0.2c0,0,0,0-0.1,0c-1.3-0.5-2.7-0.7-4.2-0.7c-9.2,0.3-16.6,12.1-16.5,26.4c0.1,14.3,7.6,25.9,16.9,25.9
			c1.2,0,2.4-0.2,3.5-0.6c1.7-0.6,3.6-0.6,5.3,0c1.1,0.4,2.3,0.6,3.5,0.6c1.4,0,2.7-0.2,3.9-0.7c2-0.7,4.1-0.7,6,0
			c1.3,0.5,2.6,0.7,3.9,0.7c9.3,0,16.8-11.6,16.9-25.9C368.3,307.1,360.8,295.2,351.5,295.1z"/>
		<g>
			<g>
				<path class="st54" d="M327,304.4c4.2-0.4,7.6-2.8,9.8-6.3c1-1.6-1.6-3.1-2.6-1.5c-1.6,2.5-4.2,4.5-7.2,4.8
					C325.1,301.6,325.1,304.6,327,304.4L327,304.4z"/>
			</g>
		</g>
		<g>
			<g>
				<path class="st54" d="M337.9,305.6c1.2-2.6,1.8-5.4,1.6-8.3c-0.1-1.9-3.1-1.9-3,0c0.2,2.4-0.1,4.7-1.2,6.8
					C334.5,305.8,337,307.3,337.9,305.6L337.9,305.6z"/>
			</g>
		</g>
		<g>
			<g>
				<path class="st54" d="M345.8,303.4c0.4-2.4-0.2-5-2.1-6.6c-1.5-1.2-3.6,0.9-2.1,2.1c1.1,0.9,1.6,2.3,1.3,3.7
					C342.6,304.5,345.5,305.3,345.8,303.4L345.8,303.4z"/>
			</g>
		</g>
		<g>
			<g>
				<path class="st54" d="M355,313c7.1,7.5,5.9,19.4-1.4,26.4c-1.4,1.3,0.7,3.5,2.1,2.1c8.4-8.1,9.6-22,1.4-30.6
					C355.8,309.5,353.7,311.6,355,313L355,313z"/>
			</g>
		</g>
		<g>
			<g>
				<path class="st54" d="M315.8,330c0.2,5.8,4.1,9.4,8.5,12.7c1.6,1.1,3.1-1.5,1.5-2.6c-3.5-2.6-6.8-5.5-7-10.1
					C318.7,328.1,315.7,328.1,315.8,330L315.8,330z"/>
			</g>
		</g>
	</g>
	<g class="st29">
		<path class="st55" d="M327.2,313.5c-1.4,0-2.8,0.2-4.1,0.7c-0.2,0.1-0.4,0.2-0.7,0.2c-0.2,0.1-0.4-0.1-0.5-0.4c0-0.1,0-0.3,0-0.4
			c-0.2-2.3-2.7-3.1-4-1.3c0,0,0,0,0,0c-0.2,0.3-0.6,0.2-0.6-0.2c-0.2-0.9-0.6-1.7-1.1-2.2c-0.7-0.8-1.9-0.5-2.3,0.5
			c-0.4,1-1.4,1.5-1.9,1.8c-0.2,0.1-0.4,0-0.5-0.2c-1-2.7-2.2-3.7-3.7-3.6c-0.4,0-0.8,0.5-0.7,1c0.4,2.9-0.3,3-1,4.5
			c-0.1,0.2-0.3,0.2-0.4,0.2c0,0,0,0,0,0c-1.3-0.5-2.6-0.7-4-0.6c-8.8,0.3-15.9,11.6-15.8,25.2c0.1,13.7,7.3,24.7,16.2,24.7
			c1.2,0,2.3-0.2,3.4-0.5c1.6-0.5,3.4-0.5,5,0c1.1,0.4,2.2,0.5,3.4,0.5c1.3,0,2.6-0.2,3.8-0.7c1.9-0.7,3.9-0.7,5.8,0
			c1.2,0.4,2.5,0.7,3.8,0.7c8.9,0,16.1-11,16.2-24.7C343.2,325,336.1,313.7,327.2,313.5z"/>
	</g>
	<g>
		<path class="st53" d="M325.5,316.6c-1.4,0-2.8,0.2-4.1,0.7c-0.2,0.1-0.4,0.2-0.7,0.2c-0.2,0.1-0.4-0.1-0.5-0.4c0-0.1,0-0.3,0-0.4
			c-0.2-2.3-2.7-3.1-4-1.3c0,0,0,0,0,0c-0.2,0.3-0.6,0.2-0.6-0.2c-0.2-0.9-0.6-1.7-1.1-2.2c-0.7-0.8-1.9-0.5-2.3,0.5
			c-0.4,1-1.4,1.5-1.9,1.8c-0.2,0.1-0.4,0-0.5-0.2c-1-2.7-2.2-3.7-3.7-3.6c-0.4,0-0.8,0.5-0.7,1c0.4,2.9-0.3,3-1,4.5
			c-0.1,0.2-0.3,0.2-0.4,0.2c0,0,0,0,0,0c-1.3-0.5-2.6-0.7-4-0.6c-8.8,0.3-15.9,11.6-15.8,25.2c0.1,13.7,7.3,24.7,16.2,24.7
			c1.2,0,2.3-0.2,3.4-0.5c1.6-0.5,3.4-0.5,5,0c1.1,0.4,2.2,0.5,3.4,0.5c1.3,0,2.6-0.2,3.8-0.7c1.9-0.7,3.9-0.7,5.8,0
			c1.2,0.4,2.5,0.7,3.8,0.7c8.9,0,16.1-11,16.2-24.7C341.6,328.1,334.4,316.7,325.5,316.6z"/>
		<g>
			<g>
				<path class="st54" d="M302.2,325.6c4-0.4,7.3-2.7,9.4-6.1c1-1.6-1.6-3.1-2.6-1.5c-1.5,2.4-3.9,4.3-6.9,4.6
					C300.3,322.8,300.2,325.8,302.2,325.6L302.2,325.6z"/>
			</g>
		</g>
		<g>
			<g>
				<path class="st54" d="M312.6,326.6c1.2-2.5,1.7-5.2,1.5-8c-0.1-1.9-3.1-1.9-3,0c0.2,2.2-0.1,4.4-1.1,6.5
					C309.2,326.9,311.7,328.4,312.6,326.6L312.6,326.6z"/>
			</g>
		</g>
		<g>
			<g>
				<path class="st54" d="M320.2,324.6c0.4-2.3-0.2-4.8-2-6.4c-1.5-1.2-3.6,0.9-2.1,2.1c1,0.8,1.5,2.1,1.2,3.4
					C316.9,325.7,319.8,326.5,320.2,324.6L320.2,324.6z"/>
			</g>
		</g>
		<g>
			<g>
				<path class="st54" d="M328.8,333.7c6.8,7.2,5.6,18.5-1.3,25.1c-1.4,1.3,0.7,3.5,2.1,2.1c8.1-7.8,9.2-21,1.3-29.4
					C329.6,330.2,327.5,332.3,328.8,333.7L328.8,333.7z"/>
			</g>
		</g>
		<g>
			<g>
				<path class="st54" d="M291.3,350c0.2,5.5,3.9,9.1,8.1,12.2c1.6,1.1,3.1-1.5,1.5-2.6c-3.3-2.4-6.5-5.2-6.6-9.6
					C294.3,348,291.3,348,291.3,350L291.3,350z"/>
			</g>
		</g>
	</g>
	<g>
		<g>
			<path class="st56" d="M374.4,318v28.4h0c0.2,8.2,10.6,14.7,23.3,14.7c12.7,0,23.1-6.6,23.3-14.7h0V318H374.4z"/>
			<path class="st56" d="M373.7,315.3c0,0-3-3.7-1-6.6c2-3,2.2,1.7,2.9,0.8c0.7-0.8,3.5-1.7,2.6-2c-2.9-0.9-2.8-3.6-0.6-5.4
				s2.5,3.9,4.5,3.3c0.8-0.2,0.9-3.8,3.5-5.4s1.5,0.8,4.3,1.3s3-5.9,6.8-3.6c3.8,2.3,3.7,2.2,5.7,3.2
				C404.4,301.9,373.7,315.3,373.7,315.3z"/>
			<path class="st56" d="M395,301.7c0,0,1.1-4.8,4.4-4.6c3.3,0.2,0,3,1,3.1c1,0.1,3.2,2.2,2.9,1.2c-1-3.1,1.1-4.6,3.8-3.6
				c2.6,1-1.6,4.5,0.1,6c0.6,0.6,3.3-1.3,6.1,0.1c2.7,1.4,0.2,1.8,1.4,4.6c1.2,2.7,6.1-0.6,6.5,4.1c0.4,4.8,0.4,4.6,0.8,7
				C422.3,322.1,395,301.7,395,301.7z"/>
			<path class="st57" d="M420.3,318.3c0,8-10.1,14.5-22.6,14.5s-22.6-6.5-22.6-14.5c0-2.3,0.9-4.5,2.4-6.5c3.7-4.8,11.4-8,20.2-8
				C410.2,303.8,420.3,310.3,420.3,318.3z"/>
			<path class="st56" d="M375.8,333.2c0,0-8.8-23.7-4.7-25.4c4.1-1.7,4.7,4.2,4.7,4.2s1,11.4,4.7,10.9c3.7-0.4,8.8-2.9,17.9,4.2
				c0,0,8.5,3.8,15.2-4.6c0,0-1.4-11.8,3.4-7.6c0,0,1.8,2.9,3.1,8.2c0,0,3-15.8,1.3-20c-1.7-4.2,7.1-3.4,4.7,7.6
				c-2.4,10.9-4.7,13-4.6,22.1C421.8,341.9,375.8,333.2,375.8,333.2z"/>
			<g>
				<g>
					<path class="st58" d="M387,336c0.3-2.4,0.1-4.8-0.4-7.1c-0.4-1.9-3.3-1.1-2.9,0.8c0.4,2.1,0.5,4.2,0.3,6.3
						C383.8,338,386.8,337.9,387,336L387,336z"/>
				</g>
			</g>
			<g>
				<g>
					<path class="st58" d="M385.7,330.5c0,2.1,0.5,4,1.4,5.8c0.9,1.7,3.4,0.2,2.6-1.5c-0.7-1.4-1-2.8-1-4.3
						C388.7,328.5,385.7,328.5,385.7,330.5L385.7,330.5z"/>
				</g>
			</g>
			<g>
				<g>
					<path class="st58" d="M413.1,325.8c-1.4,2.9-2,6-1.7,9.2c0.2,1.9,3.2,1.9,3,0c-0.2-2.7,0.1-5.2,1.3-7.6
						C416.5,325.6,413.9,324,413.1,325.8L413.1,325.8z"/>
				</g>
			</g>
			<g>
				<g>
					<path class="st58" d="M415.9,328.9c-0.5,2.7-0.6,5.5-0.4,8.2c0.2,1.9,3.2,1.9,3,0c-0.2-2.5-0.2-5,0.3-7.4
						C419.1,327.8,416.2,327,415.9,328.9L415.9,328.9z"/>
				</g>
			</g>
			<g>
				<g>
					<path class="st58" d="M371.3,316.5c1.9,1.8,3,4.1,3.1,6.8c0.1,1.9,3.1,1.9,3,0c-0.2-3.4-1.5-6.5-4-8.9
						C372,313,369.9,315.1,371.3,316.5L371.3,316.5z"/>
				</g>
			</g>
			<g>
				<g>
					<path class="st58" d="M395.2,329.6c2.2,4.9,3.2,10,3,15.4c-0.1,1.9,2.9,1.9,3,0c0.2-5.9-1-11.5-3.4-16.9
						C397,326.4,394.4,327.9,395.2,329.6L395.2,329.6z"/>
				</g>
			</g>
			<g>
				<g>
					<path class="st58" d="M401.8,329.9c-0.2,2.4-0.4,4.8-0.6,7.2c-0.2,1.9,2.8,1.9,3,0c0.2-2.4,0.4-4.8,0.6-7.2
						C405,328,402,328,401.8,329.9L401.8,329.9z"/>
				</g>
			</g>
			<g>
				<g>
					<path class="st58" d="M408.3,328.8c-1.5,1.5-2.3,3.4-2.5,5.5c-0.1,0.8,0.7,1.5,1.5,1.5c0.9,0,1.4-0.7,1.5-1.5
						c0.1-1.3,0.7-2.5,1.6-3.4C411.7,329.6,409.6,327.5,408.3,328.8L408.3,328.8z"/>
				</g>
			</g>
			<path class="st59" d="M396.4,314.2h-0.3c-1.4,0-2.5-1.1-2.5-2.5V309c0-1.4,1.1-2.5,2.5-2.5h0.3c1.4,0,2.5,1.1,2.5,2.5v2.7
				C399,313.1,397.8,314.2,396.4,314.2z"/>
			<path class="st59" d="M399.8,314.2h-0.3c-1.4,0-2.5-1.1-2.5-2.5V309c0-1.4,1.1-2.5,2.5-2.5h0.3c1.4,0,2.5,1.1,2.5,2.5v2.7
				C402.3,313.1,401.2,314.2,399.8,314.2z"/>
		</g>
		<g class="st29">
			<g>
				<path class="st60" d="M376.8,311.2c-0.6,3.4-1.5,7.6,1,10.5c3.2,3.8,6.4-0.6,10.2-0.5c7.1,0.2,12.7,15.8,20.6,7.6
					c1.3-1.4-0.8-3.5-2.1-2.1c-4.5,4.7-11.3-6.4-15.2-7.9c-1.6-0.6-3.4-0.8-5.2-0.5c0.4-0.1-3.8,1-3.2,1.1c-1.2-1.1-2.5-2.1-3.7-3.2
					c0.1-1.4,0.2-2.9,0.6-4.3C380,310.1,377.1,309.3,376.8,311.2L376.8,311.2z"/>
			</g>
		</g>
		<g class="st61">
			<g>
				<path class="st62" d="M361.4,337.2v30.3h0c0.2,8.7,11.3,15.8,24.9,15.8s24.6-7,24.9-15.8h0v-30.3H361.4z"/>
				<path class="st62" d="M360.8,334.3c0,0-3.2-3.9-1.1-7.1c2.2-3.2,2.4,1.8,3.1,0.9c0.7-0.9,3.7-1.8,2.7-2.1
					c-3.1-0.9-3-3.9-0.6-5.8c2.4-2,2.6,4.2,4.8,3.5c0.9-0.3,1-4,3.8-5.8c2.8-1.8,1.6,0.9,4.5,1.4s3.2-6.3,7.2-3.8
					c4.1,2.5,4,2.3,6.1,3.4C393.5,320,360.8,334.3,360.8,334.3z"/>
				<path class="st62" d="M383.5,319.8c0,0,1.1-5.1,4.7-4.9s0,3.2,1.1,3.3c1.1,0.2,3.4,2.4,3.1,1.3c-1-3.3,1.2-4.9,4-3.8
					c2.8,1.1-1.7,4.8,0.1,6.4c0.7,0.6,3.6-1.3,6.5,0.1c2.9,1.5,0.3,2,1.5,4.9c1.3,2.9,6.5-0.7,6.9,4.4s0.5,4.9,0.9,7.5
					S383.5,319.8,383.5,319.8z"/>
				<path class="st62" d="M410.6,337.5c0,8.6-10.8,15.5-24.2,15.5c-13.3,0-24.2-7-24.2-15.5c0-2.5,0.9-4.9,2.5-7
					c4-5.1,12.2-8.6,21.6-8.6C399.8,322,410.6,329,410.6,337.5z"/>
				<path class="st62" d="M363,353.4c0,0-9.4-25.3-5.1-27.1s5.1,4.5,5.1,4.5s1.1,12.1,5.1,11.7c4-0.4,9.4-3.1,19.2,4.5
					c0,0,9,4,16.3-4.9c0,0-1.4-12.6,3.6-8.1c0,0,1.9,3.1,3.3,8.7c0,0,3.2-16.8,1.4-21.3s7.6-3.6,5.1,8.1
					c-2.5,11.7-5.1,13.9-4.9,23.6S363,353.4,363,353.4z"/>
				<g>
					<path class="st62" d="M373.3,356.5c0.3-2.4,0.2-4.9-0.4-7.2"/>
					<g>
						<path class="st58" d="M374.8,356.5c0.3-2.6,0.1-5.1-0.4-7.6c-0.4-1.9-3.3-1.1-2.9,0.8c0.5,2.3,0.6,4.5,0.3,6.8
							C371.6,358.4,374.6,358.4,374.8,356.5L374.8,356.5z"/>
					</g>
				</g>
				<g>
					<path class="st62" d="M375.2,350.5c0,1.9,0.5,3.8,1.3,5.4"/>
					<g>
						<path class="st58" d="M373.7,350.5c0,2.2,0.6,4.2,1.5,6.2c0.9,1.7,3.4,0.2,2.6-1.5c-0.7-1.5-1.1-3-1.1-4.7
							C376.6,348.6,373.6,348.6,373.7,350.5L373.7,350.5z"/>
					</g>
				</g>
				<g>
					<path class="st62" d="M404.2,346.3c-1.3,2.7-1.9,5.9-1.6,9"/>
					<g>
						<path class="st58" d="M402.9,345.6c-1.4,3.1-2.1,6.4-1.8,9.7c0.2,1.9,3.2,1.9,3,0c-0.3-2.9,0.1-5.6,1.4-8.2
							C406.3,345.3,403.7,343.8,402.9,345.6L402.9,345.6z"/>
					</g>
				</g>
				<g>
					<path class="st62" d="M407.3,349.3c-0.5,2.8-0.6,5.6-0.3,8.4"/>
					<g>
						<path class="st58" d="M405.9,348.9c-0.5,2.9-0.7,5.8-0.4,8.8c0.2,1.9,3.2,1.9,3,0c-0.2-2.7-0.2-5.3,0.3-8
							C409.1,347.8,406.2,347,405.9,348.9L405.9,348.9z"/>
					</g>
				</g>
				<g>
					<path class="st62" d="M359.2,334.4c2.3,2,3.7,5.1,3.8,8.4"/>
					<g>
						<path class="st58" d="M358.2,335.5c2.1,1.9,3.2,4.5,3.4,7.3c0.1,1.9,3.1,1.9,3,0c-0.2-3.6-1.6-6.9-4.3-9.4
							C358.9,332,356.8,334.1,358.2,335.5L358.2,335.5z"/>
					</g>
				</g>
				<g>
					<path class="st62" d="M385.1,348.8c2.5,5.3,3.7,11.3,3.4,17.2"/>
					<g>
						<path class="st58" d="M383.8,349.6c2.4,5.2,3.4,10.7,3.2,16.5c-0.1,1.9,2.9,1.9,3,0c0.2-6.3-1-12.3-3.6-18
							C385.6,346.3,383,347.8,383.8,349.6L383.8,349.6z"/>
					</g>
				</g>
				<g>
					<path class="st62" d="M392.4,349.9c-0.2,2.6-0.4,5.2-0.7,7.8"/>
					<g>
						<path class="st58" d="M390.9,349.9c-0.2,2.6-0.4,5.2-0.7,7.8c-0.2,1.9,2.8,1.9,3,0c0.2-2.6,0.4-5.2,0.7-7.8
							C394.1,348,391.1,348,390.9,349.9L390.9,349.9z"/>
					</g>
				</g>
				<g>
					<path class="st62" d="M398.8,349.9c-1.2,1.2-2,3-2.2,4.8"/>
					<g>
						<path class="st58" d="M397.8,348.9c-1.6,1.6-2.4,3.6-2.6,5.8c-0.1,0.8,0.7,1.5,1.5,1.5c0.9,0,1.4-0.7,1.5-1.5
							c0.1-1.4,0.7-2.7,1.7-3.7C401.2,349.6,399.1,347.5,397.8,348.9L397.8,348.9z"/>
					</g>
				</g>
				<path class="st62" d="M385,333.2h-0.3c-1.5,0-2.7-1.2-2.7-2.7v-2.9c0-1.5,1.2-2.7,2.7-2.7h0.3c1.5,0,2.7,1.2,2.7,2.7v2.9
					C387.7,331.9,386.5,333.2,385,333.2z"/>
				<path class="st62" d="M388.6,333.2h-0.3c-1.5,0-2.7-1.2-2.7-2.7v-2.9c0-1.5,1.2-2.7,2.7-2.7h0.3c1.5,0,2.7,1.2,2.7,2.7v2.9
					C391.4,331.9,390.1,333.2,388.6,333.2z"/>
			</g>
			<g class="st29">
				<path class="st62" d="M365.5,330.3c-0.4,2.2-0.9,4.5-0.5,6.7c0.3,2.2,1.7,4.4,3.3,4.4c1,0,2-0.7,2.9-1.2
					c2.9-1.6,6.3-1.5,9.2,0.3c2.8,1.8,5,5.1,7.6,7.3c2.7,2.2,6.5,3,8.7,0"/>
				<g>
					<path class="st60" d="M364.1,329.9c-0.7,3.7-1.6,8.4,1.3,11.5c3.5,3.7,6.6-1.4,10.5-0.9c7,0.9,14.2,16.6,21.9,8.2
						c1.3-1.4-0.8-3.5-2.1-2.1c-5,5.4-11.9-6.7-16.3-8.4c-2.2-0.9-4.7-0.9-7-0.2c-1.5,0.5-1.9,1-3.6,0.8c-2.2,0.5-3-0.7-2.4-3.5
						c0.1-1.6,0.3-3.1,0.6-4.6C367.3,328.9,364.5,328,364.1,329.9L364.1,329.9z"/>
				</g>
			</g>
		</g>
		<g>
			<g>
				<path class="st56" d="M360.9,337.1v29.5h0c0.2,8.5,11,15.3,24.2,15.3s23.9-6.8,24.2-15.3h0v-29.5H360.9z"/>
				<path class="st56" d="M360.2,334.3c0,0-3.1-3.8-1-6.9c2.1-3.1,2.3,1.7,3,0.9c0.7-0.9,3.6-1.7,2.7-2c-3-0.9-2.9-3.7-0.6-5.6
					c2.3-1.9,2.6,4.1,4.7,3.4c0.8-0.3,1-3.9,3.6-5.7c2.7-1.8,1.6,0.9,4.4,1.3c2.8,0.5,3.1-6.1,7-3.7c3.9,2.4,3.9,2.3,5.9,3.3
					C392.1,320.4,360.2,334.3,360.2,334.3z"/>
				<path class="st56" d="M382.3,320.1c0,0,1.1-5,4.6-4.8c3.5,0.2,0,3.1,1.1,3.2c1,0.2,3.3,2.3,3,1.3c-1-3.2,1.2-4.7,3.9-3.7
					c2.7,1-1.6,4.6,0.1,6.2c0.7,0.6,3.5-1.3,6.3,0.1c2.8,1.4,0.2,1.9,1.5,4.8c1.2,2.8,6.3-0.6,6.7,4.3c0.4,4.9,0.5,4.8,0.8,7.3
					S382.3,320.1,382.3,320.1z"/>
				<path class="st57" d="M408.6,337.4c0,8.3-10.5,15.1-23.5,15.1c-13,0-23.5-6.8-23.5-15.1c0-2.4,0.9-4.7,2.5-6.8
					c3.9-4.9,11.8-8.3,21-8.3C398.1,322.3,408.6,329,408.6,337.4z"/>
				<path class="st56" d="M362.4,352.8c0,0-9.1-24.6-4.9-26.4c4.2-1.7,4.9,4.4,4.9,4.4s1.1,11.8,4.9,11.4c3.9-0.4,9.1-3.1,18.6,4.4
					c0,0,8.8,3.9,15.8-4.8c0,0-1.4-12.2,3.5-7.9c0,0,1.9,3,3.2,8.5c0,0,3.1-16.4,1.3-20.7s7.4-3.5,4.9,7.9
					c-2.5,11.4-4.9,13.5-4.7,22.9C410.1,361.8,362.4,352.8,362.4,352.8z"/>
				<g>
					<g>
						<path class="st58" d="M373.9,355.8c0.3-2.5,0.1-4.9-0.4-7.4c-0.4-1.9-3.3-1.1-2.9,0.8c0.5,2.2,0.5,4.4,0.3,6.6
							C370.7,357.7,373.7,357.7,373.9,355.8L373.9,355.8z"/>
					</g>
				</g>
				<g>
					<g>
						<path class="st58" d="M372.7,350c0,2.1,0.5,4.1,1.5,6c0.9,1.7,3.4,0.2,2.6-1.5c-0.7-1.4-1-2.9-1.1-4.5
							C375.7,348.1,372.7,348,372.7,350L372.7,350z"/>
					</g>
				</g>
				<g>
					<g>
						<path class="st58" d="M401.1,345.1c-1.4,3-2,6.2-1.7,9.5c0.2,1.9,3.2,1.9,3,0c-0.3-2.8,0.1-5.4,1.3-8
							C404.5,344.9,402,343.4,401.1,345.1L401.1,345.1z"/>
					</g>
				</g>
				<g>
					<g>
						<path class="st58" d="M404,348.4c-0.5,2.8-0.6,5.7-0.4,8.5c0.2,1.9,3.2,1.9,3,0c-0.2-2.6-0.2-5.2,0.3-7.7
							C407.2,347.3,404.4,346.5,404,348.4L404,348.4z"/>
					</g>
				</g>
				<g>
					<g>
						<path class="st58" d="M357.7,335.4c2,1.9,3.1,4.3,3.3,7.1c0.1,1.9,3.1,1.9,3,0c-0.2-3.5-1.6-6.7-4.1-9.2
							C358.4,331.9,356.3,334.1,357.7,335.4L357.7,335.4z"/>
					</g>
				</g>
				<g>
					<g>
						<path class="st58" d="M382.6,349.1c2.3,5.1,3.3,10.4,3.1,16c-0.1,1.9,2.9,1.9,3,0c0.2-6.1-1-11.9-3.5-17.5
							C384.4,345.8,381.8,347.3,382.6,349.1L382.6,349.1z"/>
					</g>
				</g>
				<g>
					<g>
						<path class="st58" d="M389.4,349.4c-0.2,2.5-0.4,5-0.6,7.5c-0.2,1.9,2.8,1.9,3,0c0.2-2.5,0.4-5,0.6-7.5
							C392.6,347.5,389.6,347.5,389.4,349.4L389.4,349.4z"/>
					</g>
				</g>
				<g>
					<g>
						<path class="st58" d="M396.1,348.3c-1.5,1.6-2.3,3.5-2.5,5.7c-0.1,0.8,0.7,1.5,1.5,1.5c0.9,0,1.4-0.7,1.5-1.5
							c0.1-1.4,0.7-2.6,1.7-3.6C399.6,349.1,397.5,347,396.1,348.3L396.1,348.3z"/>
					</g>
				</g>
				<path class="st59" d="M383.8,333.1h-0.3c-1.5,0-2.6-1.2-2.6-2.6v-2.8c0-1.5,1.2-2.6,2.6-2.6h0.3c1.5,0,2.6,1.2,2.6,2.6v2.8
					C386.4,331.9,385.2,333.1,383.8,333.1z"/>
				<path class="st59" d="M387.3,333.1H387c-1.5,0-2.6-1.2-2.6-2.6v-2.8c0-1.5,1.2-2.6,2.6-2.6h0.3c1.5,0,2.6,1.2,2.6,2.6v2.8
					C389.9,331.9,388.8,333.1,387.3,333.1z"/>
			</g>
			<g class="st29">
				<g>
					<path class="st60" d="M363.4,330c-0.7,3.5-1.6,8.2,1.2,11.2c3.3,3.5,6.5-1,10.3-0.9c7.1,0.2,13.5,16.5,21.3,8
						c1.3-1.4-0.8-3.5-2.1-2.1c-4.8,5.2-11.6-6.5-15.8-8.1c-2.3-0.9-4.5-0.7-6.8-0.2c-1.4,0.3-1.8,1-3.4,0.8
						c-2.1,0.5-2.9-0.7-2.3-3.3c0.1-1.5,0.3-3,0.6-4.5C366.7,328.9,363.8,328.1,363.4,330L363.4,330z"/>
				</g>
			</g>
		</g>
	</g>
	<path class="st63" d="M268.4,332.8v75.7c0,0,25.6,19.3,67.6,24.7c4.7,0.6,41.2-13,85.1-62.3c0,0,0.2,0-18.7-0.8
		C402.4,370.1,318,368.9,268.4,332.8z"/>
	<g class="st64">
		<g>
			<path class="st65" d="M297.7,381.9c25.7,13.2,54.2,19.2,83,16.6c1.9-0.2,1.9-3.2,0-3c-28.3,2.6-56.3-3.2-81.5-16.1
				C297.5,378.4,296,381,297.7,381.9L297.7,381.9z"/>
		</g>
	</g>
	<g class="st64">
		<g>
			<path class="st65" d="M280.7,387.3c30.1,15.5,63.5,23.5,97.5,22.5c1.9-0.1,1.9-3.1,0-3c-33.4,1-66.3-6.8-95.9-22.1
				C280.5,383.8,279,386.4,280.7,387.3L280.7,387.3z"/>
		</g>
	</g>
</g>
<g>
	<g>
		<path class="st66" d="M68.6,401.3c0,0.1-0.1,0.2-0.1,0.3c-2.6,6.7,8.7,13.2,22.8,13.4l306,1.9c3.7,0,3.9-4.4,0.2-4.6L92,393.1
			C80.8,392.5,70.8,396,68.6,401.3z"/>
		<path class="st66" d="M77.2,357.6c-0.1,0.1-0.1,0.2-0.2,0.2c-4.4,5.7,4.7,15.1,18.2,19.2l293.4,86.7c3.6,1.1,5-3.2,1.4-4.4
			L101.9,356.3C91.3,352.6,80.8,353.2,77.2,357.6z"/>
	</g>
	<polygon class="st67" points="165,397.7 226.4,415.8 209,415.7 150.4,397.2 	"/>
	<line class="st68" x1="268.7" y1="415.9" x2="230.6" y2="402.2"/>
</g>
<g class="st44">
	<g>
		<path class="st69" d="M387.2,96.2c-30.1-3.3-61.3-6.6-90.6,3.2c-14,4.7-27,11.6-40.6,17.2c-14.3,5.9-29.2,9.3-44.6,10.2
			c-17.5,1.1-35-0.4-52.4-2.4c-1.9-0.2-1.9,2.8,0,3c29.6,3.3,60.3,5.3,88.9-4.6c13.9-4.8,26.9-11.8,40.5-17.3
			c14.6-5.9,29.7-9,45.4-9.6c17.9-0.7,35.7,1.2,53.4,3.2C389.1,99.4,389.1,96.4,387.2,96.2L387.2,96.2z"/>
	</g>
</g>
<g class="st44">
	<g>
		<path class="st69" d="M198.2,125.9c-20-15.3-45.9-17.6-70.1-19.4c-1.9-0.1-1.9,2.9,0,3c23.8,1.7,49,4,68.6,19
			C198.3,129.7,199.8,127.1,198.2,125.9L198.2,125.9z"/>
	</g>
</g>
<g class="st44">
	<g>
		<path class="st69" d="M281.9,105.6c-1.5,4.1-7.8,5.7-11,8.5c-3,2.7-5.3,6-7.5,9.3c-4.8,7.3-9,16.3-17.8,19.2
			c-1.8,0.6-1,3.5,0.8,2.9c8.9-3,13.5-11,18.3-18.5c2.8-4.4,5.7-9,10-12.1c3.8-2.7,8.3-3.8,10-8.5
			C285.5,104.6,282.6,103.8,281.9,105.6L281.9,105.6z"/>
	</g>
</g>
<g class="st44">
	<g>
		<path class="st69" d="M251.8,118.7c-4.5-0.6-6.9-4.5-9.6-7.7c-3-3.5-6.3-6.8-9.9-9.8c-6.4-5.2-13.4-9.3-21-12.3
			c-1.8-0.7-2.6,2.2-0.8,2.9c9.2,3.7,17.5,9,24.6,15.9c4.7,4.6,8.8,12.9,15.9,13.9C252.9,121.8,253.8,118.9,251.8,118.7L251.8,118.7
			z"/>
	</g>
</g>
<g class="st44">
	<g>
		<path class="st69" d="M226.3,96.5c0.5-5.2,2-10.1,4.9-14.6c2.4-3.7,5.7-6.7,7.9-10.6c2.8-4.9,3.2-11.3-1.3-15.3
			c-1.4-1.3-3.6,0.8-2.1,2.1c7.5,6.6-2.3,15.4-6.1,20.9c-3.7,5.2-5.6,11.1-6.2,17.4C223.1,98.4,226.1,98.4,226.3,96.5L226.3,96.5z"
			/>
	</g>
</g>
<g class="st44">
	<g>
		<path class="st69" d="M333.8,94.9c-16.2,3.2-29.2,15.9-32.8,32c-0.4,1.9,2.5,2.7,2.9,0.8c3.4-15.1,15.5-26.9,30.7-29.9
			C336.5,97.4,335.7,94.5,333.8,94.9L333.8,94.9z"/>
	</g>
</g>
<g class="st44">
	<g>
		<path class="st69" d="M304,96.9c-10.2-8.7-22.3-13.9-35.6-15.3c-1.9-0.2-1.9,2.8,0,3c12.5,1.3,24,6.2,33.5,14.4
			C303.3,100.3,305.5,98.2,304,96.9L304,96.9z"/>
	</g>
</g>
<g class="st44">
	<g>
		<path class="st69" d="M233.7,125.5c55.3-16.2,114.1-18.2,170.3-5.7c1.9,0.4,2.7-2.5,0.8-2.9c-56.7-12.6-116.1-10.6-171.9,5.7
			C231.1,123.2,231.9,126,233.7,125.5L233.7,125.5z"/>
	</g>
</g>
<path class="st69" d="M410.2,124.1c0,0-93.4-28.9-162-2.1c0,0,52.6-39.4,149.2-25.6C397.5,96.4,407,107.7,410.2,124.1z"/>
<g class="st44">
	<g>
		<path class="st69" d="M169.3,125c-7.1,2.3-12.5,7.6-15,14.6c-0.6,1.8,2.2,2.6,2.9,0.8c2.1-6,6.9-10.6,12.9-12.5
			C171.9,127.3,171.1,124.4,169.3,125L169.3,125z"/>
	</g>
</g>
<circle class="st70" cx="133.8" cy="103.7" r="13.5"/>
<circle class="st70" cx="271.6" cy="80.6" r="10.6"/>
<circle class="st71" cx="300.5" cy="139.8" r="13.5"/>
<ellipse class="st71" cx="149.7" cy="105.5" rx="7.2" ry="6.9"/>
<circle class="st71" cx="153.9" cy="144.3" r="8.6"/>
<ellipse transform="matrix(0.9562 -0.2927 0.2927 0.9562 -15.5042 60.7252)" class="st72" cx="195.2" cy="82.2" rx="17" ry="16.8"/>
<ellipse transform="matrix(0.9562 -0.2927 0.2927 0.9562 -18.4457 64.4799)" class="st72" cx="206.3" cy="93.9" rx="10.5" ry="10.4"/>
<ellipse transform="matrix(0.9562 -0.2927 0.2927 0.9562 -28.7474 43.4445)" class="st73" cx="130.8" cy="117.8" rx="11.4" ry="11.3"/>
<ellipse transform="matrix(0.9562 -0.2927 0.2927 0.9562 -25.2662 97.3992)" class="st74" cx="312.9" cy="133.1" rx="8.2" ry="8.1"/>
<ellipse transform="matrix(0.9562 -0.2927 0.2927 0.9562 -14.9755 55.6962)" class="st74" cx="178.6" cy="77.9" rx="7.2" ry="7.2"/>
<circle class="st70" cx="248.5" cy="141.9" r="9.3"/>
<ellipse class="st75" cx="273.4" cy="126.8" rx="6.6" ry="6.9"/>
<ellipse class="st75" cx="227.8" cy="56.7" rx="6.6" ry="6.9"/>
<circle class="st76" cx="237.3" cy="53.2" r="9.8"/>
<circle class="st76" cx="201.2" cy="123.3" r="3.5"/>
<circle class="st71" cx="180.8" cy="133.1" r="4.2"/>
<circle class="st76" cx="237.3" cy="128.6" r="3.5"/>
<circle class="st77" cx="206.3" cy="126.7" r="4.2"/>
<circle class="st71" cx="240.5" cy="101" r="6.6"/>
<circle class="st76" cx="237.3" cy="94.6" r="3.5"/>
<circle class="st76" cx="146" cy="138.2" r="3.5"/>
<ellipse transform="matrix(0.9911 -0.1334 0.1334 0.9911 -5.6436 33.2953)" class="st71" cx="245.6" cy="58.8" rx="4.4" ry="4.2"/>
<ellipse transform="matrix(0.9562 -0.2927 0.2927 0.9562 -24.0554 90.8628)" class="st78" cx="291.6" cy="125.8" rx="5.8" ry="5.7"/>
<ellipse class="st79" cx="196.2" cy="141.6" rx="11.7" ry="11.2"/>
<circle class="st76" cx="108.8" cy="110.6" r="3.5"/>
<circle class="st76" cx="287.3" cy="70.2" r="3.5"/>
<circle class="st71" cx="189.3" cy="56.6" r="4.2"/>
<circle class="st71" cx="264.8" cy="148" r="4.2"/>
</svg>
